<svg width="21" height="30" viewBox="0 0 21 30" fill="none" xmlns="http://www.w3.org/2000/svg">
<path d="M6.30004 9.20393V15.1594H8.40004V11.3696C8.40004 11.0706 8.63511 10.8282 8.92504 10.8282H12.075C12.365 10.8282 12.6 11.0706 12.6 11.3696V15.1594H14.7V9.20393C14.7 8.90494 14.9351 8.66252 15.225 8.66252H15.7816L10.5 4.47322L5.21851 8.66252H5.77504C6.06497 8.66252 6.30004 8.90494 6.30004 9.20393Z" fill="white"/>
<path d="M9.45001 11.911H11.55V15.1594H9.45001V11.911Z" fill="white"/>
<path d="M10.5 30C12.4754 27.4563 21 16.1719 21 10.8281C21 4.84782 16.2988 0 10.5 0C4.7009 0 0 4.84782 0 10.8281C0 16.173 8.52433 27.4569 10.5 30ZM3.35482 8.77672L10.1798 3.36265C10.3685 3.21276 10.6315 3.21276 10.8202 3.36265L17.6452 8.77672C17.8218 8.91868 17.8918 9.16031 17.8195 9.37867C17.7475 9.59703 17.5488 9.74428 17.325 9.74533H15.75V15.7008C15.75 15.9998 15.5149 16.2422 15.225 16.2422H5.775C5.48507 16.2422 5.25 15.9998 5.25 15.7008V9.74533H3.675C3.45044 9.74533 3.25074 9.59782 3.1782 9.3784C3.10591 9.15899 3.17692 8.91657 3.35482 8.77514V8.77672Z" fill="white"/>
</svg>
