<svg width="17" height="30" viewBox="0 0 17 30" fill="none" xmlns="http://www.w3.org/2000/svg">
<path d="M15.0234 0H1.97659C0.889632 0 0 0.911143 0 2.02629V27.9729C0 29.088 0.889632 30 1.97659 30H15.0234C16.1104 30 17 29.0897 17 27.9737V2.02629C17 0.911143 16.1104 0 15.0234 0ZM6.41304 1.46057H10.587C10.7191 1.46057 10.8261 1.57029 10.8261 1.70657C10.8261 1.842 10.7191 1.95171 10.587 1.95171H6.41304C6.28094 1.95171 6.17391 1.842 6.17391 1.70657C6.17391 1.57029 6.28094 1.46057 6.41304 1.46057ZM8.5 28.9869C7.95401 28.9869 7.51171 28.5334 7.51171 27.9729C7.51171 27.4123 7.95401 26.9597 8.5 26.9597C9.04599 26.9597 9.48829 27.4123 9.48829 27.9729C9.48829 28.5334 9.04599 28.9869 8.5 28.9869ZM15.6246 26.25H1.37542V3.21343H15.6246V26.25Z" fill="white"/>
</svg>
