<svg width="30" height="30" viewBox="0 0 30 30" fill="none" xmlns="http://www.w3.org/2000/svg">
<path d="M25.9573 0H4.04259C1.80997 0 0 1.80989 0 4.04256V25.9573C0 28.19 1.8099 29.9999 4.04259 29.9999H14.8508L14.8693 19.2795H12.0841C11.7222 19.2795 11.4284 18.9869 11.427 18.6249L11.4136 15.1693C11.4122 14.8054 11.7069 14.5096 12.0708 14.5096H14.8509V11.1706C14.8509 7.29576 17.2175 5.18587 20.6741 5.18587H23.5106C23.8735 5.18587 24.1678 5.48008 24.1678 5.84305V8.75684C24.1678 9.11967 23.8737 9.4138 23.5109 9.41402L21.7702 9.41483C19.8904 9.41483 19.5264 10.3081 19.5264 11.619V14.5097H23.6571C24.0506 14.5097 24.356 14.8534 24.3096 15.2442L23.9 18.6998C23.8609 19.0305 23.5804 19.2797 23.2475 19.2797H19.5448L19.5264 30H25.9575C28.1901 30 30 28.1901 30 25.9575V4.04256C29.9999 1.80989 28.19 0 25.9573 0Z" fill="white"/>
</svg>
