<svg width="30" height="30" viewBox="0 0 30 30" fill="none" xmlns="http://www.w3.org/2000/svg">
<path d="M13.2853 0.0958421C6.51909 0.850647 1.02376 6.22275 0.133896 12.9724C-1.12692 22.5372 6.69276 30.6745 16.1645 29.9557C19.6487 29.6913 22.91 28.1343 25.4654 25.7511L25.6849 25.5465C25.9374 25.3111 25.9512 24.9156 25.7158 24.6631L24.8629 23.7487C24.6275 23.4962 24.232 23.4824 23.9796 23.7178L23.5224 24.1442C20.68 26.7945 16.778 27.9869 12.8416 27.3166C7.26265 26.3664 2.97382 21.6299 2.53817 15.9873C1.96214 8.52584 7.98089 2.29059 15.3706 2.50533C22.1843 2.70344 27.5 8.51799 27.5 15.3346V16.25C27.5 17.7109 26.241 18.8827 24.7507 18.7378C23.4519 18.6115 22.5 17.4442 22.5 16.1392V10.625C22.5 10.2798 22.2202 10 21.875 10H20.625C20.3741 10 20.1609 10.15 20.0615 10.3635C18.8037 8.9916 17.0034 8.125 15 8.125C11.2091 8.125 8.12503 11.2091 8.12503 15C8.12503 18.7909 11.2091 21.875 15 21.875C17.388 21.875 19.4936 20.6499 20.7265 18.7965C21.6547 20.3478 23.3794 21.3701 25.3425 21.2385C27.997 21.0607 30 18.7339 30 16.0735V15C30 6.16416 22.3202 -0.912087 13.2853 0.0958421ZM15 19.375C12.5879 19.375 10.625 17.4121 10.625 15C10.625 12.5879 12.5879 10.625 15 10.625C17.4121 10.625 19.375 12.5879 19.375 15C19.375 17.4121 17.4121 19.375 15 19.375Z" fill="white"/>
</svg>
