<svg width="47" height="60" viewBox="0 0 47 60" fill="none" xmlns="http://www.w3.org/2000/svg">
<g clip-path="url(#clip0)">
<path fill-rule="evenodd" clip-rule="evenodd" d="M38.2192 48.0822L31.9521 28.2534H30.1027H16.3356H14.4863L8.21918 48.0822H10.0685H36.3699H38.2192Z" fill="#00A4B5"/>
<path fill-rule="evenodd" clip-rule="evenodd" d="M40.4795 48.0822H40.0685L33.5959 27.637C34.9315 26.8151 35.8562 25.3767 35.8562 23.7329C35.8562 22.3973 35.2397 21.1644 34.3151 20.3425L38.1164 16.8493C39.6575 15.5137 40.4795 13.5616 40.4795 11.5068V1.74658C40.4795 0.821918 39.6575 0 38.7329 0H32.363C31.4384 0 30.6164 0.821918 30.6164 1.74658V8.63014H28.1507V1.74658C28.1507 0.821918 27.3288 0 26.4041 0H20.0342C19.1096 0 18.2877 0.821918 18.2877 1.74658V8.63014H15.8219V1.74658C15.8219 0.821918 15 0 14.0753 0H7.70548C6.67808 0 5.9589 0.821918 5.9589 1.74658V11.5068C5.9589 13.5616 6.78082 15.5137 8.32192 16.8493L12.1233 20.3425C11.1986 21.1644 10.5822 22.3973 10.5822 23.7329C10.5822 25.3767 11.5068 26.8151 12.8425 27.637L6.36986 48.0822H5.9589C2.67123 48.0822 0 50.7534 0 54.0411C0 57.3288 2.67123 60 5.9589 60H40.3767C43.6644 60 46.3356 57.3288 46.3356 54.0411C46.3356 50.7534 43.7671 48.0822 40.4795 48.0822ZM15.1027 26.5068C13.5616 26.5068 12.4315 25.274 12.4315 23.8356C12.4315 22.2945 13.6644 21.1644 15.1027 21.1644H31.4384C32.9795 21.1644 34.1096 22.3973 34.1096 23.8356C34.1096 25.3767 32.8767 26.5068 31.4384 26.5068H15.1027ZM40.4795 49.8288C42.8425 49.8288 44.6918 51.7808 44.6918 54.0411C44.6918 56.4041 42.7397 58.2534 40.4795 58.2534H5.9589C3.59589 58.2534 1.74658 56.3014 1.74658 54.0411C1.74658 51.6781 3.69863 49.8288 5.9589 49.8288H40.4795ZM30.3082 19.3151H16.1301H13.4589L9.45205 15.6164C8.32192 14.589 7.70548 13.1507 7.70548 11.6096V1.74658H14.0753V10.3767H20.137V1.74658H26.5068V10.3767H32.5685V1.74658H38.9384V11.5068C38.9384 13.0479 38.3219 14.4863 37.1918 15.5137L33.1849 19.2123L30.3082 19.3151ZM16.3356 28.2534H30.1027H31.9521L38.2192 48.0822H36.3699H10.0685H8.21918L14.4863 28.2534H16.3356Z" fill="#003333"/>
</g>
<defs>
<clipPath id="clip0">
<rect width="46.4384" height="60" fill="white"/>
</clipPath>
</defs>
</svg>
