<svg width="60" height="60" viewBox="0 0 60 60" fill="none" xmlns="http://www.w3.org/2000/svg">
<path d="M28.6643 29.2808C28.5616 28.6644 28.4589 27.9452 28.4589 27.226C29.6917 27.0205 31.8493 23.7329 31.8493 23.7329C31.8493 23.7329 33.8013 25.0685 34.9315 25.6849C36.2671 26.3014 41.5068 26.3014 42.8424 25.6849C44.0753 25.0685 45.9246 23.7329 45.9246 23.7329C45.9246 23.7329 48.0821 27.0205 49.315 27.226C49.2123 31.4384 47.6712 34.3151 45.5137 36.0616C43.5616 37.6027 41.1986 38.3219 38.8356 38.3219C36.9863 38.3219 35.0342 37.8082 33.3904 36.8836" stroke="#003333" stroke-width="1.4173" stroke-miterlimit="10" stroke-linejoin="round"/>
<path fill-rule="evenodd" clip-rule="evenodd" d="M49.726 27.1233C49.6233 27.226 49.5205 27.226 49.4178 27.226C48.1849 27.0205 46.0274 23.7329 46.0274 23.7329C46.0274 23.7329 44.0753 25.0685 42.9452 25.6849C41.6096 26.3014 36.3699 26.3014 35.0343 25.6849C33.8014 25.0685 31.9521 23.7329 31.9521 23.7329C31.9521 23.7329 29.7945 27.0205 28.5617 27.226C28.4589 27.226 28.3562 27.226 28.2534 27.1233C27.0206 26.4041 29.1781 17.363 39.0411 17.363C48.8014 17.363 50.9589 26.5068 49.726 27.1233Z" fill="#00A4B5" stroke="#003333" stroke-width="1.4173" stroke-miterlimit="10" stroke-linejoin="round"/>
<path fill-rule="evenodd" clip-rule="evenodd" d="M11.1986 41.3014C10.8904 40.274 10.5822 38.8356 10.5822 36.9863C10.3767 36.8835 10.274 36.7808 10.1712 36.5753C9.96573 36.2671 9.96573 35.8561 9.96573 35.4452C7.08902 36.4726 7.70546 40.9931 11.1986 41.3014Z" stroke="#003333" stroke-width="1.4173" stroke-miterlimit="10" stroke-linecap="round" stroke-linejoin="round"/>
<path fill-rule="evenodd" clip-rule="evenodd" d="M29.7945 52.1918C29.3836 52.8082 28.9726 52.8082 27.7397 52.8082C26.5069 52.8082 21.0616 52.8082 21.0616 52.8082C21.0616 52.8082 15.6164 52.8082 14.3836 52.8082C13.1507 52.8082 12.7397 52.7055 12.3288 52.1918C11.4041 50.8561 14.0753 46.952 14.4863 46.3356H14.589C16.4384 47.8767 18.8014 48.5959 21.1644 48.5959C23.4247 48.5959 25.7877 47.8767 27.7397 46.3356H27.8425C28.048 46.952 30.7192 50.8561 29.7945 52.1918Z" stroke="#003333" stroke-width="1.4173" stroke-miterlimit="10" stroke-linecap="round" stroke-linejoin="round"/>
<path d="M40.9931 30.5137C40.4794 31.0274 39.452 31.1301 38.9383 31.1301C38.4246 31.1301 37.3972 31.0274 36.8835 30.5137" stroke="#003333" stroke-width="1.7864" stroke-miterlimit="10" stroke-linecap="round" stroke-linejoin="round"/>
<path d="M33.9041 37.089C35.4452 37.911 37.1918 38.3219 38.8356 38.3219C41.1986 38.3219 43.5616 37.6027 45.5137 36.0616C45.9246 36.6781 48.4931 40.5822 47.6712 41.9178C47.2602 42.5342 46.8493 42.5343 45.6164 42.5343C44.3835 42.5343 38.9383 42.5343 38.9383 42.5343C38.9383 42.5343 31.7465 42.5343 30.5137 42.5343" stroke="#003333" stroke-width="1.4173" stroke-miterlimit="10" stroke-linecap="round" stroke-linejoin="round"/>
<path fill-rule="evenodd" clip-rule="evenodd" d="M30.9246 41.3014C31.2328 40.274 31.5411 38.8356 31.5411 36.9863C31.7465 36.8835 31.8493 36.7808 31.952 36.5753C32.1575 36.2671 32.1575 35.8561 32.1575 35.4452C34.9315 36.4726 34.315 40.9931 30.9246 41.3014Z" stroke="#003333" stroke-width="1.4173" stroke-miterlimit="10" stroke-linecap="round" stroke-linejoin="round"/>
<path fill-rule="evenodd" clip-rule="evenodd" d="M29.0753 31.8493C28.7671 30.8219 28.4589 29.3835 28.4589 27.5342C28.2534 27.4315 28.1507 27.3288 28.0479 27.1233C27.8424 26.8151 27.8424 26.4041 27.8424 25.9931C24.9657 27.0205 25.5822 31.4383 29.0753 31.8493Z" stroke="#003333" stroke-width="1.4173" stroke-miterlimit="10" stroke-linecap="round" stroke-linejoin="round"/>
<path fill-rule="evenodd" clip-rule="evenodd" d="M48.8013 31.8493C49.1095 30.8219 49.4178 29.3835 49.4178 27.5342C49.6232 27.4315 49.726 27.3288 49.8287 27.1233C50.0342 26.8151 50.0342 26.4041 50.0342 25.9931C52.9109 27.0205 52.2945 31.4383 48.8013 31.8493Z" stroke="#003333" stroke-width="1.4173" stroke-miterlimit="10" stroke-linecap="round" stroke-linejoin="round"/>
<path fill-rule="evenodd" clip-rule="evenodd" d="M31.5411 37.089C31.5411 41.5068 29.8972 44.589 27.6369 46.4383C25.7876 47.9794 23.4246 48.6986 21.0616 48.6986C18.8013 48.6986 16.4383 47.9794 14.4863 46.4383C12.226 44.589 10.5822 41.5068 10.5822 37.089C12.7397 38.0137 20.2397 33.9041 21.0616 33.0822C21.9863 33.9041 29.2808 37.9109 31.5411 37.089Z" stroke="#003333" stroke-width="1.4173" stroke-miterlimit="10" stroke-linecap="round" stroke-linejoin="round"/>
<path d="M33.8013 29.3836C34.4255 29.3836 34.9315 28.8776 34.9315 28.2534C34.9315 27.6293 34.4255 27.1233 33.8013 27.1233C33.1772 27.1233 32.6712 27.6293 32.6712 28.2534C32.6712 28.8776 33.1772 29.3836 33.8013 29.3836Z" fill="#003333"/>
<path d="M43.9726 29.3836C44.5968 29.3836 45.1027 28.8776 45.1027 28.2534C45.1027 27.6293 44.5968 27.1233 43.9726 27.1233C43.3484 27.1233 42.8425 27.6293 42.8425 28.2534C42.8425 28.8776 43.3484 29.3836 43.9726 29.3836Z" fill="#003333"/>
<path d="M23.1164 40.6849C22.6027 41.1986 21.5753 41.3014 21.0616 41.3014C20.5479 41.3014 19.5205 41.1986 19.0068 40.6849" stroke="#003333" stroke-width="1.7864" stroke-miterlimit="10" stroke-linecap="round" stroke-linejoin="round"/>
<path d="M15.9246 39.452C16.5488 39.452 17.0548 38.9461 17.0548 38.3219C17.0548 37.6978 16.5488 37.1918 15.9246 37.1918C15.3005 37.1918 14.7945 37.6978 14.7945 38.3219C14.7945 38.9461 15.3005 39.452 15.9246 39.452Z" fill="#003333"/>
<path d="M26.1986 39.452C26.8228 39.452 27.3288 38.9461 27.3288 38.3219C27.3288 37.6978 26.8228 37.1918 26.1986 37.1918C25.5745 37.1918 25.0685 37.6978 25.0685 38.3219C25.0685 38.9461 25.5745 39.452 26.1986 39.452Z" fill="#003333"/>
<path fill-rule="evenodd" clip-rule="evenodd" d="M25.7877 27.8425C26.3014 26.3014 25.274 25.3767 24.0411 24.863C24.0411 24.863 25.9932 18.1849 25.0685 17.2603C24.1438 16.3356 22.5 16.1301 21.0617 16.1301C19.6233 16.1301 17.9795 16.2329 17.0548 17.2603C16.1301 18.1849 18.0822 24.863 18.0822 24.863C16.8493 25.3767 15.8219 26.3014 16.3356 27.8425H16.4384C11.4041 29.8973 9.24658 34.9315 10.274 36.6781C11.4041 38.7329 20.2397 34.0068 21.1644 32.9794C22.089 33.9041 30.9247 38.7329 32.0548 36.6781C32.9795 34.9315 30.9247 29.8973 25.7877 27.8425Z" fill="#00A4B5" stroke="#003333" stroke-width="1.4173" stroke-miterlimit="10" stroke-linejoin="round"/>
<path d="M25.8904 27.8425C26.815 25.0685 22.7055 24.2466 21.0616 24.2466C19.5205 24.2466 15.4109 25.0685 16.2329 27.8425" stroke="#003333" stroke-width="1.4173" stroke-miterlimit="10" stroke-linejoin="round"/>
<path fill-rule="evenodd" clip-rule="evenodd" d="M32.1575 35.5479C32.1575 35.9589 32.0548 36.3698 31.952 36.6781C31.8493 36.8835 31.7465 36.9863 31.5411 37.089C29.3835 38.0137 21.9863 33.9041 21.0616 33.0822C20.137 33.9041 11.3013 38.7329 10.1712 36.6781C8.93833 34.5205 12.637 26.9178 21.0616 26.9178C28.3561 26.9178 32.1575 32.6712 32.1575 35.5479Z" stroke="#003333" stroke-width="1.4173" stroke-miterlimit="10" stroke-linejoin="round"/>
<path d="M24.1438 24.863C24.1438 24.863 26.0959 18.1849 25.1712 17.2603C24.2466 16.3356 22.6027 16.1301 21.1644 16.1301C19.726 16.1301 18.0822 16.2329 17.1575 17.2603C16.2329 18.1849 18.1849 24.863 18.1849 24.863" stroke="#003333" stroke-width="1.4173" stroke-miterlimit="10" stroke-linejoin="round"/>
<path fill-rule="evenodd" clip-rule="evenodd" d="M30 4.9315L57.8425 14.8972V11.8151L30 1.8493L2.15753 11.8151V14.8972L30 4.9315Z" fill="#00A4B5"/>
<path d="M55.3767 20.5479V54.7603C55.3767 54.863 55.3767 54.9658 55.2739 55.0685C55.1712 55.1712 55.0685 55.1712 54.9657 55.1712H32.2603V56.0959C32.2603 56.7123 32.0548 57.3288 31.6438 57.7397C31.2329 58.1507 30.6164 58.3562 30 58.3562C29.3835 58.3562 28.7671 58.1507 28.3561 57.7397C27.9452 57.3288 27.7397 56.7123 27.7397 56.0959V55.1712H5.03423C4.93149 55.1712 4.82875 55.1712 4.72601 55.0685C4.62327 54.9658 4.62327 54.863 4.62327 54.7603V20.5479H2.97943V54.7603C2.97943 55.3767 3.18491 55.8904 3.59587 56.3014C4.00683 56.7123 4.52053 56.9178 5.13697 56.9178H26.1986C26.4041 57.637 26.7123 58.3562 27.3287 58.8699C28.0479 59.589 29.0753 60 30.2055 60C31.3356 60 32.363 59.589 33.0822 58.8699C33.5959 58.3562 34.0068 57.637 34.2123 56.9178H55.2739C55.8904 56.9178 56.4041 56.7123 56.815 56.3014C57.226 55.8904 57.4315 55.3767 57.4315 54.7603V20.5479H55.3767Z" fill="#003333"/>
<path d="M30 0C20.137 3.49315 10.274 7.08904 0.41095 10.5822V17.363L30 6.78082L59.589 17.363V10.5822C49.726 7.08904 39.863 3.49315 30 0ZM57.8425 14.8973L30 4.93151L2.15752 14.8973V11.8151L30 1.84932L57.8425 11.8151V14.8973Z" fill="#003333"/>
</svg>
