<svg width="60" height="60" viewBox="0 0 60 60" fill="none" xmlns="http://www.w3.org/2000/svg">
<g clip-path="url(#clip0)">
<path fill-rule="evenodd" clip-rule="evenodd" d="M43.8699 36.1644C43.6644 35.6507 43.0479 35.3424 42.3288 35.3424C41.6096 35.3424 40.8904 35.6507 40.7877 36.1644L37.1918 47.9794C37.1918 48.0822 37.1918 48.0822 37.1918 48.1849C37.1918 48.8013 38.1164 49.2123 38.7329 49.2123C39.1438 49.2123 39.452 49.1096 39.5548 48.6986L40.0685 46.2328H44.3836L45.1027 48.6986C45.2055 49.0068 45.5137 49.2123 45.9247 49.2123C46.5411 49.2123 47.4657 48.8013 47.4657 48.1849C47.4657 48.0822 47.4657 48.0822 47.4657 47.9794L43.8699 36.1644ZM40.5822 44.2808L42.226 38.5274L43.8699 44.2808H40.5822Z" fill="#003333"/>
<path fill-rule="evenodd" clip-rule="evenodd" d="M53.5274 24.452H35.5479V16.7466L41.4041 12.5342C41.9178 12.226 42.1233 11.7123 42.1233 11.0959C42.1233 10.4794 41.8151 9.96574 41.4041 9.65752L35.4452 5.44519C34.9315 2.363 32.2603 -0.102753 29.0753 -0.102753H6.4726C2.87671 -1.29715e-05 0 2.8767 0 6.47259V29.0753C0 32.6712 2.87671 35.5479 6.4726 35.5479H24.4521V43.2534L18.5959 47.4657C18.0822 47.774 17.8767 48.2877 17.8767 48.9041C17.8767 49.5205 18.1849 50.0342 18.5959 50.3424L24.5548 54.5548C25.0685 57.637 27.7397 60.1027 30.9247 60.1027H53.5274C57.1233 60.1027 60 57.226 60 53.6301V31.0274C60 27.4315 57.1233 24.452 53.5274 24.452ZM30.9247 26.1986H53.5274C56.0959 26.1986 58.2534 28.3561 58.2534 30.9246V53.5274C58.2534 56.0959 56.0959 58.2534 53.5274 58.2534H30.9247C28.3562 58.2534 26.1986 56.0959 26.1986 53.5274L21.6781 50.3424L19.6233 48.9041L26.1986 44.1781V31.0274C26.1986 28.3561 28.3562 26.1986 30.9247 26.1986ZM28.8699 24.863H28.7671C26.5068 25.6849 24.863 27.7397 24.5548 30.1027V30.3082V30.5137V30.7192V30.9246V31.1301V32.1575V33.9041H6.4726C3.90411 33.9041 1.74658 31.7466 1.74658 29.1781V6.57533C1.74658 4.00684 3.90411 1.8493 6.4726 1.8493H29.0753C31.6438 1.8493 33.8014 4.00684 33.8014 6.57533L38.4247 9.863L40.4795 11.3014L33.9041 16.0274V24.6575H31.0274C30.2055 24.452 29.4863 24.6575 28.8699 24.863Z" fill="#003333"/>
<path fill-rule="evenodd" clip-rule="evenodd" d="M23.2192 16.2329C23.7329 16.2329 24.2466 15.8219 24.2466 15.2055C24.2466 14.6918 23.8356 14.1781 23.2192 14.1781H18.8014V11.8151C18.8014 11.3014 18.3904 10.7877 17.774 10.7877C17.2603 10.7877 16.7466 11.1986 16.7466 11.8151V14.1781H12.3288C11.8151 14.1781 11.3014 14.589 11.3014 15.2055C11.3014 15.7192 11.7124 16.2329 12.3288 16.2329H13.6644C13.8699 18.2877 14.7945 20.2397 16.1302 21.6781C15 22.3972 13.6644 22.7055 12.3288 22.7055C11.8151 22.7055 11.3014 23.1164 11.3014 23.7329C11.3014 24.2466 11.7124 24.7603 12.3288 24.7603C14.3836 24.7603 16.2329 24.1438 17.774 23.1164C19.3151 24.1438 21.1644 24.7603 23.2192 24.7603C23.7329 24.7603 24.2466 24.3493 24.2466 23.7329C24.2466 23.1164 23.8356 22.7055 23.2192 22.7055C21.7808 22.7055 20.548 22.2945 19.4178 21.6781C20.7534 20.2397 21.6781 18.2877 21.8836 16.2329H23.2192ZM17.774 20.4452C16.6439 19.3151 15.9247 17.8767 15.7192 16.2329H19.8288C19.6233 17.8767 18.9041 19.3151 17.774 20.4452Z" fill="#003333"/>
<path fill-rule="evenodd" clip-rule="evenodd" d="M1.74658 6.4726V29.0753C1.74658 31.6438 3.90412 33.8014 6.47261 33.8014H24.4521V32.0548V31.0274V30.8219V30.6164V30.411V30.2055V30C24.7603 27.5342 26.4041 25.5822 28.6644 24.7603H28.7671C29.3836 24.5548 30.1027 24.452 30.8219 24.452H33.6986V15.8219L40.274 11.0959L38.2192 9.65753L33.5959 6.36986C33.5959 3.80136 31.4384 1.64383 28.8699 1.64383H6.26713C3.90412 1.74657 1.74658 3.9041 1.74658 6.4726ZM12.3288 14.2808H16.7466V11.9178C16.7466 11.4041 17.1575 10.8904 17.774 10.8904C18.2877 10.8904 18.8014 11.3014 18.8014 11.9178V14.2808H23.2192C23.7329 14.2808 24.2466 14.6918 24.2466 15.3082C24.2466 15.9247 23.8356 16.3356 23.2192 16.3356H21.8836C21.6781 18.3904 20.7534 20.3425 19.4178 21.7808C20.548 22.5 21.8836 22.8082 23.2192 22.8082C23.7329 22.8082 24.2466 23.2192 24.2466 23.8356C24.2466 24.3493 23.8356 24.863 23.2192 24.863C21.1644 24.863 19.3151 24.2466 17.774 23.2192C16.2329 24.2466 14.3836 24.863 12.3288 24.863C11.8151 24.863 11.3014 24.452 11.3014 23.8356C11.3014 23.3219 11.7123 22.8082 12.3288 22.8082C13.7671 22.8082 15 22.3973 16.1301 21.7808C14.7945 20.3425 13.8699 18.3904 13.6644 16.3356H12.3288C11.8151 16.3356 11.3014 15.9247 11.3014 15.3082C11.3014 14.6918 11.8151 14.2808 12.3288 14.2808Z" fill="#00A4B5"/>
<path fill-rule="evenodd" clip-rule="evenodd" d="M15.7192 16.2328C15.9247 17.8767 16.6439 19.315 17.774 20.4452C18.9042 19.315 19.6233 17.8767 19.8288 16.2328C19.8288 16.2328 15.7192 16.2328 15.7192 16.2328Z" fill="#00A4B5"/>
</g>
<defs>
<clipPath id="clip0">
<rect width="60" height="60" fill="white"/>
</clipPath>
</defs>
</svg>
