<svg width="60" height="60" viewBox="0 0 60 60" fill="none" xmlns="http://www.w3.org/2000/svg">
<g clip-path="url(#clip0)">
<path d="M56.5069 15.4109C56.5069 16.0274 56.5069 16.7466 56.5069 17.363H58.1507V50.7534H31.4384V51.7808C31.4384 52.1918 31.3356 52.5 31.0274 52.8082V43.6644C30.411 43.6644 29.6918 43.6644 29.0754 43.6644V52.8082C28.8699 52.6027 28.6644 52.1918 28.6644 51.7808V50.7534H1.84933V17.363H7.1918C7.1918 16.7466 7.1918 16.0274 7.1918 15.4109H-0.102722V52.7055H1.84933V54.2466C1.84933 54.863 2.15755 55.4794 2.56851 55.8904C2.97947 56.3014 3.59591 56.6096 4.21235 56.6096H25.5822C25.7877 57.4315 26.1986 58.2534 26.8151 58.7671C27.637 59.589 28.7671 60.1027 30 60.1027C31.2329 60.1027 32.363 59.589 33.1849 58.7671C33.8014 58.1507 34.2123 57.4315 34.4178 56.6096H55.7877C56.4041 56.6096 57.0206 56.3014 57.4315 55.8904C57.8425 55.4794 58.1507 54.863 58.1507 54.2466V52.7055H60.1027V15.4109H56.5069ZM56.1986 54.2466C56.1986 54.3493 56.1986 54.452 56.0959 54.5548C55.9932 54.6575 55.8904 54.6575 55.7877 54.6575H32.5685V55.6849C32.5685 56.4041 32.2603 57.0205 31.8493 57.5342C31.4384 57.9452 30.7192 58.2534 30 58.2534C29.2808 58.2534 28.6644 57.9452 28.1507 57.5342C27.7397 57.1233 27.4315 56.4041 27.4315 55.6849V54.6575H4.21235C4.10961 54.6575 4.00687 54.6575 3.90413 54.5548C3.80139 54.452 3.80139 54.3493 3.80139 54.2466V52.7055H26.8151C27.0206 53.2192 27.226 53.7329 27.637 54.0411C28.2534 54.6575 29.0754 55.0685 30 55.0685C30.9247 55.0685 31.7466 54.6575 32.363 54.0411C32.774 53.6301 33.0822 53.2192 33.1849 52.7055H56.1986V54.2466Z" fill="#003333"/>
<path d="M28.5616 15.6164C28.4589 14.8972 28.3561 14.0753 28.3561 13.2534C29.6918 13.0479 32.1575 9.3493 32.1575 9.3493C32.1575 9.3493 34.315 10.8904 35.6507 11.5068C37.1918 12.226 43.0479 12.226 44.589 11.5068C45.9246 10.8904 48.0822 9.3493 48.0822 9.3493C48.0822 9.3493 50.5479 13.0479 51.8835 13.2534C51.7808 17.9794 50.0342 21.1644 47.5685 23.2192C45.4109 24.863 42.7397 25.6849 40.0685 25.6849C37.9109 25.6849 35.7534 25.1712 33.9041 24.0411" stroke="#003333" stroke-width="1.4173" stroke-miterlimit="10" stroke-linejoin="round"/>
<path fill-rule="evenodd" clip-rule="evenodd" d="M52.1918 13.1507C52.089 13.2534 51.9863 13.2534 51.7808 13.2534C50.4452 13.0479 47.9795 9.34931 47.9795 9.34931C47.9795 9.34931 45.8219 10.8904 44.4863 11.5068C42.9452 12.226 37.089 12.226 35.548 11.5068C34.2123 10.8904 32.0548 9.34931 32.0548 9.34931C32.0548 9.34931 29.589 13.0479 28.2534 13.2534C28.1507 13.2534 27.9452 13.2534 27.8425 13.1507C26.6096 12.3288 28.9726 2.15753 40.0685 2.15753C51.1644 2.15753 53.6301 12.3288 52.1918 13.1507Z" fill="#00A4B5" stroke="#003333" stroke-width="1.4173" stroke-miterlimit="10" stroke-linejoin="round"/>
<path fill-rule="evenodd" clip-rule="evenodd" d="M8.83562 29.0753C8.42466 27.9452 8.21918 26.4041 8.21918 24.2466C8.0137 24.1438 7.80822 24.0411 7.70548 23.8356C7.5 23.5274 7.39726 23.1164 7.39726 22.6027C4.31507 23.6301 5.03425 28.6644 8.83562 29.0753Z" stroke="#003333" stroke-width="1.4173" stroke-miterlimit="10" stroke-linecap="round" stroke-linejoin="round"/>
<path fill-rule="evenodd" clip-rule="evenodd" d="M29.7945 41.3014C29.3836 41.9178 28.8699 42.0205 27.4315 42.0205C25.9932 42.0205 19.9315 42.0205 19.9315 42.0205C19.9315 42.0205 13.7671 42.0205 12.3288 42.0205C10.9932 42.0205 10.4795 41.9178 9.96576 41.3014C8.93836 39.863 11.9178 35.4452 12.3288 34.726H12.4315C14.589 36.4726 17.2603 37.2945 19.8288 37.2945C22.3973 37.2945 25.0685 36.4726 27.226 34.726H27.3288C27.8425 35.4452 30.8219 39.7603 29.7945 41.3014Z" stroke="#003333" stroke-width="1.4173" stroke-miterlimit="10" stroke-linecap="round" stroke-linejoin="round"/>
<path d="M42.4315 16.952C41.8151 17.5685 40.685 17.6712 40.0685 17.6712C39.4521 17.6712 38.3219 17.5685 37.7055 16.952" stroke="#003333" stroke-width="1.7864" stroke-miterlimit="10" stroke-linecap="round" stroke-linejoin="round"/>
<path d="M34.5206 24.3493C36.2671 25.274 38.2192 25.6849 40.1712 25.6849C42.7397 25.6849 45.5137 24.863 47.6713 23.1164C48.0822 23.8356 51.0617 28.1507 50.0343 29.6918C49.6233 30.3082 49.1096 30.4109 47.6713 30.4109C46.2329 30.4109 40.0685 30.4109 40.0685 30.4109C40.0685 30.4109 31.9521 30.4109 30.6165 30.4109" stroke="#003333" stroke-width="1.4173" stroke-miterlimit="10" stroke-linecap="round" stroke-linejoin="round"/>
<path fill-rule="evenodd" clip-rule="evenodd" d="M31.0274 29.0753C31.4384 27.9452 31.6438 26.3014 31.7466 24.2466C31.9521 24.1438 32.1575 24.0411 32.2603 23.8356C32.4658 23.5274 32.5685 23.1164 32.5685 22.6027C35.6507 23.6301 34.9315 28.6644 31.0274 29.0753Z" stroke="#003333" stroke-width="1.4173" stroke-miterlimit="10" stroke-linecap="round" stroke-linejoin="round"/>
<path fill-rule="evenodd" clip-rule="evenodd" d="M28.9726 18.3904C28.5617 17.2603 28.3562 15.6164 28.2535 13.5616C28.048 13.4589 27.8425 13.3561 27.7398 13.1507C27.5343 12.8424 27.4315 12.4315 27.4315 11.9178C24.4521 12.9452 25.0685 17.9794 28.9726 18.3904Z" stroke="#003333" stroke-width="1.4173" stroke-miterlimit="10" stroke-linecap="round" stroke-linejoin="round"/>
<path fill-rule="evenodd" clip-rule="evenodd" d="M51.1644 18.3904C51.5753 17.2603 51.7808 15.6164 51.8835 13.5616C52.089 13.4589 52.2945 13.3561 52.3972 13.1507C52.6027 12.8424 52.7055 12.4315 52.7055 11.9178C55.7877 12.9452 55.0685 17.9794 51.1644 18.3904Z" stroke="#003333" stroke-width="1.4173" stroke-miterlimit="10" stroke-linecap="round" stroke-linejoin="round"/>
<path fill-rule="evenodd" clip-rule="evenodd" d="M31.7466 24.2466C31.7466 29.1781 29.8973 32.6712 27.3288 34.726C25.1712 36.4726 22.6027 37.2945 19.9315 37.2945C17.363 37.2945 14.6918 36.4726 12.5342 34.726C9.96575 32.6712 8.21918 29.1781 8.21918 24.2466C10.5822 25.3767 19.0068 20.6507 20.0342 19.726C20.9589 20.6507 29.2808 25.274 31.7466 24.2466Z" stroke="#003333" stroke-width="1.4173" stroke-miterlimit="10" stroke-linecap="round" stroke-linejoin="round"/>
<path d="M34.3151 15.6164C34.996 15.6164 35.548 15.0644 35.548 14.3835C35.548 13.7026 34.996 13.1507 34.3151 13.1507C33.6342 13.1507 33.0822 13.7026 33.0822 14.3835C33.0822 15.0644 33.6342 15.6164 34.3151 15.6164Z" fill="#003333"/>
<path d="M45.8219 15.6164C46.5028 15.6164 47.0548 15.0644 47.0548 14.3835C47.0548 13.7026 46.5028 13.1507 45.8219 13.1507C45.141 13.1507 44.5891 13.7026 44.5891 14.3835C44.5891 15.0644 45.141 15.6164 45.8219 15.6164Z" fill="#003333"/>
<path d="M22.2945 28.3561C21.6781 28.9726 20.5479 29.0753 19.9315 29.0753C19.3151 29.0753 18.1849 28.9726 17.5685 28.3561" stroke="#003333" stroke-width="1.7864" stroke-miterlimit="10" stroke-linecap="round" stroke-linejoin="round"/>
<path d="M14.1781 26.9178C14.859 26.9178 15.4109 26.3658 15.4109 25.6849C15.4109 25.004 14.859 24.452 14.1781 24.452C13.4972 24.452 12.9452 25.004 12.9452 25.6849C12.9452 26.3658 13.4972 26.9178 14.1781 26.9178Z" fill="#003333"/>
<path d="M25.6849 26.9178C26.3658 26.9178 26.9178 26.3658 26.9178 25.6849C26.9178 25.004 26.3658 24.452 25.6849 24.452C25.004 24.452 24.452 25.004 24.452 25.6849C24.452 26.3658 25.004 26.9178 25.6849 26.9178Z" fill="#003333"/>
<path fill-rule="evenodd" clip-rule="evenodd" d="M25.274 13.8698C25.8904 12.1233 24.7603 11.0959 23.3219 10.4794C23.3219 10.4794 25.5822 2.97944 24.452 1.8493C23.3219 0.719164 21.4726 0.616425 19.9315 0.616425C18.2877 0.616425 16.4383 0.719164 15.411 1.8493C14.3836 2.97944 16.5411 10.4794 16.5411 10.4794C15.1027 11.0959 13.9726 12.1233 14.589 13.8698H14.6918C8.93835 16.2329 6.67807 21.8835 7.70547 23.8356C9.04109 26.1986 18.9041 20.7534 20.0342 19.726C21.0616 20.7534 31.0274 26.1986 32.363 23.8356C33.3904 21.9863 31.0274 16.2329 25.274 13.8698Z" fill="#00A4B5" stroke="#003333" stroke-width="1.4173" stroke-miterlimit="10" stroke-linejoin="round"/>
<path d="M25.3767 13.8698C26.4041 10.6849 21.7808 9.76025 20.0342 9.76025C18.2877 9.76025 13.6644 10.6849 14.6918 13.8698" stroke="#003333" stroke-width="1.4173" stroke-miterlimit="10" stroke-linejoin="round"/>
<path fill-rule="evenodd" clip-rule="evenodd" d="M32.4657 22.6027C32.4657 23.1164 32.363 23.5274 32.1575 23.8356C32.0548 24.0411 31.8493 24.1438 31.6438 24.2465C29.1781 25.2739 20.8561 20.6507 19.8287 19.726C18.8013 20.7534 8.83559 26.1986 7.49998 23.8356C6.16436 21.4726 10.2739 12.8424 19.8287 12.8424C28.2534 12.9452 32.4657 19.315 32.4657 22.6027Z" stroke="#003333" stroke-width="1.4173" stroke-miterlimit="10" stroke-linejoin="round"/>
<path d="M23.4247 10.5822C23.4247 10.5822 25.685 3.08219 24.5548 1.95205C23.4247 0.821917 21.5754 0.719177 20.0343 0.719177C18.4932 0.719177 16.5411 0.821917 15.411 1.95205C14.2808 3.08219 16.5411 10.5822 16.5411 10.5822" stroke="#003333" stroke-width="1.4173" stroke-miterlimit="10" stroke-linejoin="round"/>
</g>
<defs>
<clipPath id="clip0">
<rect width="60" height="60" fill="white"/>
</clipPath>
</defs>
</svg>
