<svg width="60" height="60" viewBox="0 0 60 60" fill="none" xmlns="http://www.w3.org/2000/svg">
<path d="M50.0342 13.6644L49.9315 12.9452C49.726 11.4041 50.2397 9.86301 51.6781 8.11644C52.9109 6.67808 53.6301 5.54795 53.6301 4.31507C53.6301 2.87671 52.7055 1.95205 50.9589 1.95205C49.9315 1.95205 48.9041 2.26027 48.1849 2.77397L47.5685 1.0274C48.4931 0.410959 50.0342 0 51.4726 0C54.6575 0 56.0959 1.95205 56.0959 4.10959C56.0959 5.9589 55.0685 7.29452 53.7329 8.93836C52.5 10.3767 52.089 11.6096 52.1918 13.0479V13.7671H50.0342V13.6644ZM49.4178 17.5685C49.4178 16.5411 50.137 15.8219 51.0616 15.8219C51.9863 15.8219 52.7055 16.5411 52.7055 17.5685C52.7055 18.4932 52.089 19.3151 51.0616 19.3151C50.137 19.2123 49.4178 18.4932 49.4178 17.5685Z" fill="#003333"/>
<path d="M28.2534 13.6644L28.1507 12.9452C27.9452 11.4041 28.4589 9.86301 29.8972 8.11644C31.1301 6.67808 31.8493 5.65069 31.8493 4.41781C31.8493 2.97945 30.9246 2.05479 29.1781 2.05479C28.1507 2.05479 27.1233 2.36301 26.4041 2.87671L25.7877 1.13014C26.6096 0.410959 28.2534 0 29.6918 0C32.8767 0 34.3151 1.95205 34.3151 4.10959C34.3151 5.9589 33.2877 7.29452 31.952 8.93836C30.7192 10.3767 30.3082 11.6096 30.4109 13.0479V13.7671H28.2534V13.6644ZM27.637 17.5685C27.637 16.5411 28.3562 15.8219 29.2808 15.8219C30.2055 15.8219 30.9246 16.5411 30.9246 17.5685C30.9246 18.4932 30.3082 19.3151 29.2808 19.3151C28.2534 19.2123 27.637 18.4932 27.637 17.5685Z" fill="#003333"/>
<path d="M8.42465 13.6644L8.32191 12.9452C8.11643 11.4041 8.63013 9.86301 10.0685 8.11644C11.3014 6.67808 12.0205 5.54795 12.0205 4.31507C12.0205 2.87671 11.0959 1.95205 9.3493 1.95205C8.32191 1.95205 7.29451 2.26027 6.57533 2.77397L5.95889 1.13014C6.88355 0.410959 8.42465 0 9.863 0C13.0479 0 14.4863 1.95205 14.4863 4.10959C14.4863 5.9589 13.4589 7.29452 12.1233 8.93836C10.8904 10.3767 10.4794 11.6096 10.5822 13.0479V13.7671H8.42465V13.6644ZM7.80821 17.5685C7.80821 16.5411 8.52739 15.8219 9.45204 15.8219C10.3767 15.8219 11.0959 16.5411 11.0959 17.5685C11.0959 18.4932 10.4794 19.3151 9.45204 19.3151C8.42465 19.2123 7.80821 18.4932 7.80821 17.5685Z" fill="#003333"/>
<path d="M28.5616 32.774C28.4589 32.0548 28.3562 31.2329 28.3562 30.4109C29.6918 30.2055 32.1575 26.5068 32.1575 26.5068C32.1575 26.5068 34.3151 28.0479 35.6507 28.6644C37.1918 29.3835 43.048 29.3835 44.589 28.6644C45.9247 28.0479 48.0822 26.5068 48.0822 26.5068C48.0822 26.5068 50.548 30.2055 51.8836 30.4109C51.7808 35.137 50.0343 38.3219 47.5685 40.3767C45.411 42.1233 42.7397 42.9452 40.0685 42.9452C37.911 42.9452 35.7534 42.4315 33.9041 41.3014" stroke="#003333" stroke-width="1.4173" stroke-miterlimit="10" stroke-linejoin="round"/>
<path fill-rule="evenodd" clip-rule="evenodd" d="M52.1918 30.411C52.089 30.5137 51.9863 30.5137 51.7808 30.5137C50.4452 30.3082 47.9794 26.6096 47.9794 26.6096C47.9794 26.6096 45.8219 28.1507 44.4863 28.7671C42.9452 29.4863 37.089 29.4863 35.5479 28.7671C34.2123 28.1507 32.0548 26.6096 32.0548 26.6096C32.0548 26.6096 29.589 30.3082 28.2534 30.5137C28.1507 30.5137 27.9452 30.5137 27.8425 30.411C26.5068 29.589 28.8699 19.4178 39.9657 19.4178C51.1644 19.4178 53.6301 29.589 52.1918 30.411Z" fill="#00A4B5" stroke="#003333" stroke-width="1.4173" stroke-miterlimit="10" stroke-linejoin="round"/>
<path fill-rule="evenodd" clip-rule="evenodd" d="M8.83562 46.3356C8.42466 45.2055 8.21918 43.5616 8.21918 41.5068C8.0137 41.4041 7.80822 41.3014 7.70548 41.0959C7.5 40.7877 7.39726 40.3767 7.39726 39.863C4.31507 40.8904 5.03425 45.9247 8.83562 46.3356Z" stroke="#003333" stroke-width="1.4173" stroke-miterlimit="10" stroke-linecap="round" stroke-linejoin="round"/>
<path fill-rule="evenodd" clip-rule="evenodd" d="M29.7945 58.5616C29.3836 59.1781 28.8699 59.2808 27.4315 59.2808C25.9932 59.2808 19.9315 59.2808 19.9315 59.2808C19.9315 59.2808 13.7671 59.2808 12.3288 59.2808C10.9932 59.2808 10.4795 59.1781 9.96576 58.5616C8.93836 57.1233 11.9178 52.7055 12.3288 51.9863H12.4315C14.589 53.7329 17.2603 54.5548 19.8288 54.5548C22.3973 54.5548 25.0685 53.7329 27.226 51.9863H27.3288C27.8425 52.7055 30.8219 57.0205 29.7945 58.5616Z" stroke="#003333" stroke-width="1.4173" stroke-miterlimit="10" stroke-linecap="round" stroke-linejoin="round"/>
<path d="M42.4315 34.2123C41.8151 34.8288 40.685 34.9315 40.0685 34.9315C39.4521 34.9315 38.3219 34.8288 37.7055 34.2123" stroke="#003333" stroke-width="1.7864" stroke-miterlimit="10" stroke-linecap="round" stroke-linejoin="round"/>
<path d="M34.5205 41.6096C36.2671 42.5342 38.2192 42.9452 40.1712 42.9452C42.7397 42.9452 45.5137 42.1233 47.6712 40.3767C48.0822 41.0959 51.0616 45.411 50.0342 46.9521C49.6233 47.5685 49.1096 47.6712 47.6712 47.6712C46.2329 47.6712 40.0685 47.6712 40.0685 47.6712C40.0685 47.6712 31.952 47.6712 30.6164 47.6712" stroke="#003333" stroke-width="1.4173" stroke-miterlimit="10" stroke-linecap="round" stroke-linejoin="round"/>
<path fill-rule="evenodd" clip-rule="evenodd" d="M31.0274 46.3356C31.4384 45.2055 31.6438 43.5616 31.7466 41.5068C31.9521 41.4041 32.1575 41.3014 32.2603 41.0959C32.4658 40.7877 32.5685 40.3767 32.5685 39.863C35.6507 40.8904 34.9315 45.9247 31.0274 46.3356Z" stroke="#003333" stroke-width="1.4173" stroke-miterlimit="10" stroke-linecap="round" stroke-linejoin="round"/>
<path fill-rule="evenodd" clip-rule="evenodd" d="M28.9726 35.6507C28.5616 34.5205 28.3562 32.8767 28.2534 30.8219C28.0479 30.7192 27.8425 30.6164 27.7397 30.4109C27.5342 30.1027 27.4315 29.6918 27.4315 29.1781C24.4521 30.2055 25.0685 35.2397 28.9726 35.6507Z" stroke="#003333" stroke-width="1.4173" stroke-miterlimit="10" stroke-linecap="round" stroke-linejoin="round"/>
<path fill-rule="evenodd" clip-rule="evenodd" d="M51.1644 35.6507C51.5753 34.5205 51.7808 32.8767 51.8835 30.8219C52.089 30.7192 52.2945 30.6164 52.3972 30.4109C52.6027 30.1027 52.7055 29.6918 52.7055 29.1781C55.7877 30.2055 55.0685 35.2397 51.1644 35.6507Z" stroke="#003333" stroke-width="1.4173" stroke-miterlimit="10" stroke-linecap="round" stroke-linejoin="round"/>
<path fill-rule="evenodd" clip-rule="evenodd" d="M31.7466 41.5068C31.7466 46.4384 29.8973 49.9315 27.3288 51.9863C25.1712 53.7329 22.6027 54.5548 19.9315 54.5548C17.363 54.5548 14.6918 53.7329 12.5342 51.9863C9.96575 49.9315 8.21918 46.4384 8.21918 41.5068C10.5822 42.637 19.0068 37.911 20.0342 36.9863C20.9589 37.911 29.2808 42.4315 31.7466 41.5068Z" stroke="#003333" stroke-width="1.4173" stroke-miterlimit="10" stroke-linecap="round" stroke-linejoin="round"/>
<path d="M34.3151 32.774C34.996 32.774 35.548 32.222 35.548 31.5411C35.548 30.8602 34.996 30.3082 34.3151 30.3082C33.6342 30.3082 33.0822 30.8602 33.0822 31.5411C33.0822 32.222 33.6342 32.774 34.3151 32.774Z" fill="#003333"/>
<path d="M45.8219 32.774C46.5028 32.774 47.0548 32.222 47.0548 31.5411C47.0548 30.8602 46.5028 30.3082 45.8219 30.3082C45.141 30.3082 44.5891 30.8602 44.5891 31.5411C44.5891 32.222 45.141 32.774 45.8219 32.774Z" fill="#003333"/>
<path d="M22.2945 45.6164C21.6781 46.2329 20.5479 46.3356 19.9315 46.3356C19.3151 46.3356 18.1849 46.2329 17.5685 45.6164" stroke="#003333" stroke-width="1.7864" stroke-miterlimit="10" stroke-linecap="round" stroke-linejoin="round"/>
<path d="M14.1781 44.1781C14.859 44.1781 15.4109 43.6261 15.4109 42.9452C15.4109 42.2643 14.859 41.7123 14.1781 41.7123C13.4972 41.7123 12.9452 42.2643 12.9452 42.9452C12.9452 43.6261 13.4972 44.1781 14.1781 44.1781Z" fill="#003333"/>
<path d="M25.6849 44.1781C26.3658 44.1781 26.9178 43.6261 26.9178 42.9452C26.9178 42.2643 26.3658 41.7123 25.6849 41.7123C25.004 41.7123 24.4521 42.2643 24.4521 42.9452C24.4521 43.6261 25.004 44.1781 25.6849 44.1781Z" fill="#003333"/>
<path fill-rule="evenodd" clip-rule="evenodd" d="M25.274 31.1301C25.8904 29.3836 24.7603 28.3562 23.3219 27.7397C23.3219 27.7397 25.5822 20.2397 24.452 19.1096C23.3219 17.9794 21.4726 17.8767 19.9315 17.8767C18.2877 17.8767 16.4383 17.9794 15.411 19.1096C14.3836 20.2397 16.5411 27.7397 16.5411 27.7397C15.1027 28.3562 13.9726 29.3836 14.589 31.1301H14.6918C8.93835 33.4931 6.67807 39.1438 7.70547 41.0959C9.04109 43.4589 18.9041 38.0137 20.0342 36.9863C21.0616 38.0137 31.0274 43.4589 32.363 41.0959C33.3904 39.1438 31.0274 33.4931 25.274 31.1301Z" fill="#00A4B5" stroke="#003333" stroke-width="1.4173" stroke-miterlimit="10" stroke-linejoin="round"/>
<path d="M25.3767 31.1301C26.4041 27.9452 21.7808 27.0205 20.0342 27.0205C18.2877 27.0205 13.6644 27.9452 14.6918 31.1301" stroke="#003333" stroke-width="1.4173" stroke-miterlimit="10" stroke-linejoin="round"/>
<path fill-rule="evenodd" clip-rule="evenodd" d="M32.4658 39.863C32.4658 40.3767 32.363 40.7877 32.1575 41.0959C32.0548 41.3014 31.8493 41.4041 31.6438 41.5068C29.1781 42.5342 20.8562 37.9109 19.8288 36.9863C18.8014 38.0137 8.83562 43.4589 7.50001 41.0959C6.16439 38.7329 10.274 30.1027 19.8288 30.1027C28.2534 30.1027 32.4658 36.5753 32.4658 39.863Z" stroke="#003333" stroke-width="1.4173" stroke-miterlimit="10" stroke-linejoin="round"/>
<path d="M23.4247 27.7397C23.4247 27.7397 25.6849 20.2397 24.5548 19.1096C23.4247 17.9794 21.5753 17.8767 20.0342 17.8767C18.4931 17.8767 16.5411 17.9794 15.5137 19.1096C14.4863 20.2397 16.6438 27.7397 16.6438 27.7397" stroke="#003333" stroke-width="1.4173" stroke-miterlimit="10" stroke-linejoin="round"/>
</svg>
