<svg width="52" height="60" viewBox="0 0 52 60" fill="none" xmlns="http://www.w3.org/2000/svg">
<g clip-path="url(#clip0)">
<path fill-rule="evenodd" clip-rule="evenodd" d="M30.1027 31.7466C29.7945 31.3356 29.2808 31.2329 28.8699 31.5411C27.0205 32.8767 24.5548 32.8767 22.7055 31.5411C22.2945 31.2329 21.7808 31.3356 21.4726 31.7466C21.1644 32.1575 21.2671 32.6712 21.6781 32.9795C22.911 33.8014 24.3493 34.3151 25.7877 34.3151C27.226 34.3151 28.6644 33.8014 29.8973 32.9795C30.3082 32.6712 30.411 32.1575 30.1027 31.7466ZM36.4726 53.1164C36.0616 53.1164 35.6507 53.5274 35.5479 54.0411C35.5479 54.5548 35.9589 54.9658 36.4726 54.9658C36.9863 54.9658 37.3973 54.5548 37.3973 54.0411C37.3973 53.5274 36.9863 53.1164 36.4726 53.1164ZM17.9795 47.5685H13.8699C13.3562 47.5685 12.9452 47.9795 12.9452 48.4932C12.9452 49.0069 13.3562 49.4178 13.8699 49.4178H17.9795C18.4931 49.4178 18.9041 49.0069 18.9041 48.4932C18.9041 47.9795 18.4931 47.5685 17.9795 47.5685ZM30.1027 31.7466C29.7945 31.3356 29.2808 31.2329 28.8699 31.5411C27.0205 32.8767 24.5548 32.8767 22.7055 31.5411C22.2945 31.2329 21.7808 31.3356 21.4726 31.7466C21.1644 32.1575 21.2671 32.6712 21.6781 32.9795C22.911 33.8014 24.3493 34.3151 25.7877 34.3151C27.226 34.3151 28.6644 33.8014 29.8973 32.9795C30.3082 32.6712 30.411 32.1575 30.1027 31.7466ZM17.9795 47.5685H13.8699C13.3562 47.5685 12.9452 47.9795 12.9452 48.4932C12.9452 49.0069 13.3562 49.4178 13.8699 49.4178H17.9795C18.4931 49.4178 18.9041 49.0069 18.9041 48.4932C18.9041 47.9795 18.4931 47.5685 17.9795 47.5685ZM36.4726 53.1164C36.0616 53.1164 35.6507 53.5274 35.5479 54.0411C35.5479 54.5548 35.9589 54.9658 36.4726 54.9658C36.9863 54.9658 37.3973 54.5548 37.3973 54.0411C37.3973 53.5274 36.9863 53.1164 36.4726 53.1164ZM46.5411 29.8973V18.2877C46.5411 8.21918 38.3219 0 28.2534 0H23.3219C13.2534 0 5.03425 8.21918 5.03425 18.2877V29.8973C2.05479 30.7192 0 33.3904 0 36.4726C0 38.3219 0.719178 40.1712 1.95205 41.6096C3.28767 43.1507 5.03425 44.0753 6.88356 44.0753H9.45205V58.9726C9.45205 59.589 9.96575 60.1027 10.5822 60.1027H40.9931C41.6096 60.1027 42.1233 59.589 42.1233 58.9726V43.9726H44.6918C46.5411 43.9726 48.2877 43.1507 49.6233 41.5069C50.8562 40.0685 51.5753 38.2192 51.5753 36.3699C51.5753 33.3904 49.5205 30.7192 46.5411 29.8973ZM40.4795 58.3562H11.1986V54.9658H31.2329C31.7466 54.9658 32.1575 54.5548 32.1575 54.0411C32.1575 53.5274 31.7466 53.1164 31.2329 53.1164H11.1986V43.9726H17.4658L25.4794 51.5753C25.6849 51.7808 26.0959 51.7808 26.3014 51.5753L34.2123 43.9726H40.4795V58.3562ZM22.8082 38.2192C16.7466 36.7808 12.4315 31.1301 12.4315 24.6575V20.2397L22.2945 12.9452C23.1164 13.3562 24.4521 14.0753 26.0959 14.7945C26.3014 14.8973 26.5068 15 26.6096 15.1027C26.7123 15.1027 26.8151 15.2055 26.9178 15.2055C31.0274 17.1575 36.4726 19.726 39.0411 20.5479V24.6575C39.0411 31.0274 35.0342 36.4726 29.2808 38.1164C29.0753 38.2192 28.8699 38.2192 28.6644 38.2192C28.0479 38.3219 27.637 39.0411 27.8425 39.6575L28.7671 43.1507C28.8699 43.6644 29.3836 44.0753 29.8973 44.0753H31.5411L25.6849 49.6233L19.8288 44.0753H21.4726C21.9863 44.0753 22.5 43.6644 22.6027 43.1507L23.4247 39.6575C23.8356 39.0411 23.4247 38.4247 22.8082 38.2192ZM48.1849 40.4795C47.2603 41.5069 46.0274 42.3288 44.589 42.3288H30.2055L29.7945 39.7603L30.3082 39.5548C36.7808 37.5 40.8904 31.2329 40.8904 24.5548V19.5205C40.8904 19.2123 40.6849 19.0068 40.3767 18.9041C39.3493 18.8014 37.5 17.9795 36.5753 17.5685C34.6233 16.7466 32.6712 15.8219 30.7192 14.8973C27.9452 13.5616 25.1712 12.226 22.5 10.8904C22.2945 10.7877 22.089 10.7877 21.8836 10.8904L10.8904 19.2123C10.7877 19.3151 10.6849 19.5205 10.6849 19.726V24.6575C10.6849 31.3356 14.7945 37.5 21.2671 39.6575L21.7808 39.863L21.1644 42.3288H6.78082C3.90411 42.3288 1.64384 39.2466 1.64384 36.5753C1.64384 34.0068 3.59589 31.8493 6.16438 31.5411C6.4726 31.5411 6.67808 31.2329 6.67808 30.9247V18.2877C6.67808 9.14384 14.0753 1.74658 23.2192 1.74658H28.1507C37.2945 1.74658 44.6918 9.14384 44.6918 18.2877V30.8219C44.6918 31.1301 44.8973 31.3356 45.2055 31.4384C49.726 31.9521 51.0616 37.1918 48.1849 40.4795ZM36.4726 53.1164C36.0616 53.1164 35.6507 53.5274 35.5479 54.0411C35.5479 54.5548 35.9589 54.9658 36.4726 54.9658C36.9863 54.9658 37.3973 54.5548 37.3973 54.0411C37.3973 53.5274 36.9863 53.1164 36.4726 53.1164ZM29.8973 32.9795C30.3082 32.6712 30.411 32.1575 30.1027 31.7466C29.7945 31.3356 29.2808 31.2329 28.8699 31.5411C27.0205 32.8767 24.5548 32.8767 22.7055 31.5411C22.2945 31.2329 21.7808 31.3356 21.4726 31.7466C21.1644 32.1575 21.2671 32.6712 21.6781 32.9795C22.911 33.8014 24.3493 34.3151 25.7877 34.3151C27.226 34.3151 28.6644 33.8014 29.8973 32.9795ZM17.9795 47.5685H13.8699C13.3562 47.5685 12.9452 47.9795 12.9452 48.4932C12.9452 49.0069 13.3562 49.4178 13.8699 49.4178H17.9795C18.4931 49.4178 18.9041 49.0069 18.9041 48.4932C18.9041 47.9795 18.4931 47.5685 17.9795 47.5685Z" fill="#003333"/>
<path fill-rule="evenodd" clip-rule="evenodd" d="M48.1849 40.4795C47.2603 41.5069 46.0274 42.3288 44.589 42.3288H30.2055L29.7945 39.7603L30.3082 39.5548C36.7808 37.5 40.8904 31.2329 40.8904 24.5548V19.5206C40.8904 19.2123 40.6849 19.0069 40.3767 18.9041C39.3493 18.8014 37.5 17.9795 36.5753 17.5685C34.6233 16.7466 32.6712 15.8219 30.7192 14.8973C27.9452 13.5617 25.1712 12.226 22.5 10.8904C22.2945 10.7877 22.089 10.7877 21.8836 10.8904L10.8904 19.2123C10.7877 19.3151 10.6849 19.5206 10.6849 19.726V24.6575C10.6849 31.3356 14.7945 37.5 21.2671 39.6575L21.7808 39.863L21.1644 42.3288H6.78082C3.9041 42.3288 1.64383 39.2466 1.64383 36.5753C1.64383 34.0069 3.59588 31.8493 6.16438 31.5411C6.4726 31.5411 6.67808 31.2329 6.67808 30.9247V18.2877C6.67808 9.14384 14.0753 1.74658 23.2192 1.74658H28.1507C37.2945 1.74658 44.6918 9.14384 44.6918 18.2877V30.8219C44.6918 31.1301 44.8973 31.3356 45.2055 31.4384C49.726 31.9521 51.0616 37.1918 48.1849 40.4795Z" fill="#00A4B5"/>
<path d="M19.5206 28.1507C21.847 28.1507 23.7329 26.2647 23.7329 23.9383C23.7329 21.6119 21.847 19.726 19.5206 19.726C17.1942 19.726 15.3082 21.6119 15.3082 23.9383C15.3082 26.2647 17.1942 28.1507 19.5206 28.1507Z" stroke="#003333" stroke-width="1.7008" stroke-miterlimit="10"/>
<path d="M32.1575 28.1507C34.4839 28.1507 36.3698 26.2647 36.3698 23.9383C36.3698 21.6119 34.4839 19.726 32.1575 19.726C29.8311 19.726 27.9452 21.6119 27.9452 23.9383C27.9452 26.2647 29.8311 28.1507 32.1575 28.1507Z" stroke="#003333" stroke-width="1.7008" stroke-miterlimit="10"/>
<path d="M23.7329 23.9384H27.8425" stroke="#003333" stroke-width="1.7008" stroke-miterlimit="10"/>
<path d="M19.5205 24.863C20.0312 24.863 20.4452 24.449 20.4452 23.9384C20.4452 23.4277 20.0312 23.0137 19.5205 23.0137C19.0099 23.0137 18.5959 23.4277 18.5959 23.9384C18.5959 24.449 19.0099 24.863 19.5205 24.863Z" fill="#003333"/>
<path d="M32.1575 24.863C32.6682 24.863 33.0822 24.449 33.0822 23.9384C33.0822 23.4277 32.6682 23.0137 32.1575 23.0137C31.6468 23.0137 31.2328 23.4277 31.2328 23.9384C31.2328 24.449 31.6468 24.863 32.1575 24.863Z" fill="#003333"/>
</g>
<defs>
<clipPath id="clip0">
<rect width="51.5753" height="60" fill="white"/>
</clipPath>
</defs>
</svg>
