<svg width="160" height="160" viewBox="0 0 160 160" fill="none" xmlns="http://www.w3.org/2000/svg">
<g clip-path="url(#clip0)">
<path d="M80 160C124.183 160 160 124.183 160 80C160 35.8172 124.183 0 80 0C35.8172 0 0 35.8172 0 80C0 124.183 35.8172 160 80 160Z" fill="#00A4B5"/>
<path d="M13.5613 94.722C13.7296 94.3835 14.0146 93.8595 14.4181 93.1461C14.8216 92.4347 15.2538 91.685 15.7147 90.8971C15.732 90.8531 15.753 90.8091 15.7779 90.7709C15.8027 90.7307 15.8238 90.6886 15.841 90.6446C16.233 89.9695 16.6136 89.3231 16.9827 88.7073C17.3537 88.0915 17.6597 87.5981 17.9026 87.2309C18.0537 86.9919 18.2985 86.64 18.6427 86.1733C18.9851 85.7067 19.358 85.2171 19.7577 84.7026C19.8112 84.6357 19.8667 84.5649 19.9241 84.4904C19.9814 84.4158 20.0369 84.3393 20.0866 84.2589C20.5953 83.624 21.0792 83.0541 21.5363 82.5492C21.9933 82.0424 22.3127 81.7689 22.4925 81.7269C22.5307 81.7173 22.5766 81.7211 22.6283 81.7364C22.6799 81.7517 22.7354 81.7728 22.7966 81.8014C22.9228 81.8818 23.0567 81.9984 23.1925 82.1495C23.3302 82.3025 23.4468 82.4689 23.5424 82.6525C23.5922 82.75 23.6361 82.8418 23.6763 82.9279C23.7165 83.0139 23.7471 83.1019 23.7681 83.1937C23.7681 83.1937 23.7681 83.1975 23.77 83.2033C23.7719 83.209 23.7719 83.2128 23.7719 83.2128C23.8159 83.4079 23.7815 83.6546 23.6648 83.953C23.5501 84.2513 23.355 84.76 23.0834 85.4753C21.9647 88.3344 21.3068 90.3482 21.1098 91.5167C20.9128 92.6852 20.8573 93.4579 20.9434 93.8346C20.9989 94.0813 21.083 94.2668 21.1939 94.3911C21.3049 94.5155 21.4139 94.6073 21.5229 94.6627C21.5554 94.6818 21.5917 94.6971 21.6357 94.7086C21.6797 94.7201 21.716 94.7277 21.7447 94.7354C21.8002 94.7373 21.8518 94.7392 21.8996 94.7411C21.9474 94.743 21.9972 94.7392 22.0507 94.7277C22.0775 94.722 22.1024 94.7163 22.1291 94.7105C22.1559 94.7048 22.1789 94.6914 22.2018 94.6723C22.2286 94.6665 22.2534 94.657 22.2783 94.6455C22.3032 94.6321 22.3261 94.6168 22.3491 94.5977C22.3758 94.592 22.3988 94.5786 22.4217 94.5614C22.4447 94.5422 22.4695 94.5308 22.4944 94.525C22.7201 94.3778 22.9419 94.1846 23.1599 93.9436C23.378 93.7027 23.6208 93.4234 23.8886 93.1022C23.9842 92.9855 24.0607 92.888 24.12 92.8134C24.1774 92.7388 24.2328 92.6623 24.2826 92.582C24.2826 92.582 24.2864 92.582 24.2921 92.5801C24.2979 92.5781 24.3017 92.5781 24.3017 92.5781C24.3112 92.5628 24.3189 92.5495 24.3246 92.5418C24.3304 92.5342 24.3361 92.5227 24.3476 92.5055C24.3897 92.4557 24.4203 92.4213 24.4375 92.4041C24.4547 92.3869 24.4738 92.3678 24.4968 92.3506C24.4968 92.3506 24.5044 92.3486 24.5159 92.3467C24.5293 92.3448 24.5427 92.341 24.5541 92.3372C24.5675 92.3333 24.5771 92.3314 24.5828 92.3295C24.5885 92.3276 24.5981 92.3257 24.6115 92.3219C24.6115 92.3219 24.6172 92.32 24.6306 92.318C24.6574 92.3123 24.688 92.3123 24.7224 92.318C24.7588 92.3238 24.7894 92.3563 24.818 92.4194C24.8372 92.4424 24.8486 92.4634 24.8525 92.4825C24.8563 92.5016 24.8563 92.5265 24.8486 92.5552C24.8467 92.6107 24.8219 92.691 24.7702 92.7981C24.7205 92.9052 24.6593 93.0142 24.5886 93.1251C24.5694 93.1576 24.5503 93.1806 24.5331 93.1997C24.5159 93.2169 24.5044 93.2399 24.4987 93.2685C24.4164 93.3833 24.3418 93.4923 24.2768 93.5956C24.2118 93.6988 24.1621 93.7677 24.1296 93.8021C23.0949 95.2384 22.2993 96.1755 21.7466 96.6153C21.1939 97.0552 20.7598 97.3115 20.45 97.3822C20.385 97.3975 20.3085 97.4052 20.2205 97.4033C20.1325 97.4033 20.0369 97.3937 19.9375 97.3765C19.7252 97.344 19.5129 97.235 19.3006 97.0514C19.0883 96.8678 18.9392 96.5886 18.8531 96.2137C18.6312 95.2422 18.7919 93.8729 19.3369 92.1077C19.8801 90.3406 20.5074 88.3267 21.2188 86.0662C21.2264 86.0375 21.236 86.0069 21.2494 85.9783C21.2628 85.9477 21.2723 85.919 21.28 85.8903C21.2896 85.875 21.2953 85.8559 21.2991 85.8348C21.301 85.8138 21.3049 85.7889 21.3125 85.7602C21.3297 85.7143 21.3393 85.6684 21.3412 85.6206C21.3431 85.5728 21.3412 85.5346 21.3355 85.5097C21.324 85.4581 21.28 85.4198 21.2073 85.3949C21.1327 85.3701 21.0505 85.3701 20.9606 85.3892C20.8057 85.4255 20.5858 85.5862 20.3046 85.8769C20.0235 86.1657 19.7328 86.4946 19.4364 86.8618C19.3828 86.9287 19.3312 86.9957 19.2777 87.0607C19.2241 87.1276 19.1725 87.1946 19.1189 87.2615C18.8665 87.5924 18.6351 87.9041 18.4228 88.1967C18.2105 88.4912 18.0594 88.7092 17.9695 88.8527C17.4474 89.6674 16.8546 90.6886 16.1948 91.9145C15.535 93.1423 14.814 94.6149 14.0337 96.3323C13.852 96.7282 13.7086 97.017 13.6072 97.1967C13.5059 97.3765 13.3988 97.4932 13.2878 97.5448C13.2515 97.5658 13.2113 97.5869 13.1674 97.6022C13.1234 97.6194 13.0756 97.6328 13.0239 97.6442C12.9971 97.65 12.9685 97.6557 12.9359 97.6634C12.9034 97.671 12.8671 97.6787 12.8288 97.6882C12.7868 97.6844 12.7466 97.6863 12.7084 97.6959C12.6701 97.7054 12.6242 97.715 12.5726 97.7265C12.5458 97.7322 12.5171 97.7399 12.4846 97.7456C12.4521 97.7533 12.4234 97.759 12.3966 97.7647C12.1901 97.8125 12.0314 97.7896 11.9223 97.6997C11.8133 97.6079 11.6871 97.2522 11.5456 96.6306C11.5456 96.6306 11.5456 96.6268 11.5437 96.6211C11.5418 96.6153 11.5418 96.6115 11.5418 96.6115C11.4653 96.2749 11.3983 95.7107 11.339 94.9209C11.2817 94.1291 11.4997 93.2341 11.9931 92.2358C12.0008 92.2071 12.0084 92.1842 12.018 92.1689C12.0275 92.1536 12.0371 92.1364 12.0486 92.1211C12.1423 91.9356 12.2953 91.752 12.5056 91.5665C12.716 91.3829 12.934 91.2165 13.1597 91.0692C13.3988 90.92 13.6283 90.7919 13.8482 90.6867C14.07 90.5815 14.2441 90.5146 14.3741 90.484C14.3875 90.4802 14.3971 90.4783 14.4028 90.4763C14.4085 90.4744 14.4124 90.4744 14.4124 90.4744C14.4506 90.4649 14.485 90.4611 14.5118 90.4611C14.5386 90.4611 14.5539 90.4687 14.5577 90.4821C14.5577 90.4821 14.5577 90.4859 14.5596 90.4917C14.5615 90.4993 14.5615 90.5012 14.5615 90.5012C14.5539 90.5854 14.485 90.7173 14.355 90.8952C14.2249 91.0749 14.0681 91.4441 13.8826 92.0044C13.8577 92.079 13.8233 92.1956 13.7793 92.3544C13.7334 92.515 13.6895 92.7025 13.6416 92.9166C13.5919 93.1729 13.5537 93.454 13.5269 93.76C13.502 94.066 13.5135 94.3835 13.5594 94.7124L13.5613 94.722ZM25.2503 87.0052C25.2082 86.879 25.1699 86.7585 25.1374 86.6419C25.1049 86.5271 25.0762 86.4181 25.0533 86.3129C24.9557 85.8865 24.9175 85.5097 24.9404 85.1903C24.9634 84.8709 25.0093 84.5994 25.082 84.3775C25.1336 84.1882 25.1967 84.0409 25.2675 83.9357C25.3382 83.8306 25.3803 83.7713 25.3899 83.7541C25.5371 83.5666 25.8278 83.2683 26.2581 82.8571C26.6884 82.4421 27.1971 81.9984 27.7843 81.5241C28.0501 81.3138 28.3236 81.0977 28.6066 80.8739C28.8897 80.6521 29.1727 80.4417 29.4538 80.2409C30.0295 79.8374 30.5956 79.4797 31.1521 79.1756C31.7105 78.8716 32.2154 78.6669 32.6687 78.5637C32.967 78.4948 33.1908 78.5101 33.3419 78.6038C33.493 78.6994 33.602 78.8945 33.6708 79.1929C33.6861 79.2579 33.6976 79.3229 33.7052 79.3898C33.7129 79.4568 33.7186 79.5237 33.7205 79.5906C33.7378 79.845 33.7129 80.1204 33.6421 80.4149C33.5733 80.7094 33.4777 81.0422 33.3591 81.4094C32.6649 83.5571 32.049 85.1502 31.5155 86.1848C30.9819 87.2194 30.6357 88.103 30.4751 88.8355C30.4636 88.9062 30.4541 88.977 30.4426 89.0477C30.4311 89.1185 30.4196 89.1893 30.4101 89.26C30.4024 89.2887 30.4005 89.3193 30.4005 89.3537C30.4005 89.3882 30.3986 89.4188 30.3909 89.4474C30.4005 89.4857 30.4043 89.522 30.4062 89.5565C30.4082 89.5909 30.4101 89.6196 30.4158 89.6463C30.4254 89.6846 30.4407 89.7228 30.4617 89.7592C30.4827 89.7955 30.5095 89.8242 30.542 89.8433C30.5898 89.8739 30.651 89.8835 30.7237 89.8739C30.7964 89.8644 30.871 89.851 30.9494 89.8319C31.1177 89.7936 31.5269 89.4551 32.1791 88.8183C32.8312 88.1795 33.9615 86.5233 35.5737 83.8497C35.6139 83.7866 35.6502 83.7235 35.6846 83.6604C35.7171 83.5972 35.7497 83.5437 35.7803 83.4959C35.7879 83.4672 35.7994 83.4442 35.8147 83.427C35.8319 83.4098 35.8453 83.3926 35.8548 83.3773C36.0384 83.0484 36.2507 82.6946 36.4917 82.3121C36.7327 81.9296 37.0673 81.4037 37.5015 80.7324C37.5569 80.7343 37.6124 80.7419 37.6698 80.7553C37.7271 80.7687 37.7864 80.7898 37.8476 80.8165C37.97 80.8701 38.0886 80.9427 38.2033 81.0326C38.32 81.1225 38.4156 81.2181 38.494 81.3233C38.5151 81.3597 38.538 81.3979 38.561 81.44C38.5839 81.4821 38.5992 81.5241 38.6088 81.5624C38.6126 81.5758 38.6164 81.5911 38.6203 81.6102C38.6241 81.6293 38.6222 81.6465 38.6126 81.6637C38.6222 81.702 38.6203 81.7402 38.6088 81.7766C38.5973 81.8129 38.5744 81.8493 38.5418 81.8837C38.1154 82.8801 37.7405 83.7904 37.4173 84.6108C37.0941 85.4332 36.8072 86.225 36.5605 86.9899C36.3597 87.6038 36.178 88.2254 36.0136 88.8488C35.8491 89.4685 35.698 90.1378 35.5603 90.8493C35.4876 91.2432 35.4169 91.6525 35.348 92.0694C35.2792 92.4863 35.2103 92.9319 35.1434 93.4101C35.2371 93.28 35.3385 93.1442 35.4494 93.0027C35.5603 92.8612 35.6732 92.7158 35.7898 92.5667C35.9447 92.4079 36.1035 92.2396 36.266 92.0599C36.4286 91.8801 36.595 91.7099 36.7633 91.5473C37.0329 91.2949 37.2968 91.0673 37.5588 90.8646C37.8189 90.6619 38.0618 90.5146 38.2856 90.4228C38.3124 90.4171 38.3372 90.4075 38.3621 90.396C38.3869 90.3826 38.4118 90.375 38.4367 90.3693C38.45 90.3673 38.4596 90.3635 38.4653 90.3635C38.4711 90.3616 38.4749 90.3616 38.4749 90.3616C38.5246 90.3367 38.5724 90.3157 38.6241 90.2966C38.6738 90.2775 38.7197 90.2641 38.758 90.2564C38.7962 90.2469 38.8306 90.243 38.8574 90.2449C38.8842 90.2449 38.9014 90.2583 38.9071 90.2851C38.9301 90.3884 38.8 90.6102 38.517 90.9468C38.2339 91.2834 37.6449 92.0656 36.7518 93.2915C35.4571 95.0854 34.6653 96.4088 34.3765 97.2579C34.0858 98.1071 33.8315 98.5584 33.6115 98.6081C33.5331 98.6253 33.449 98.6272 33.3572 98.6158C33.2654 98.6024 33.1659 98.568 33.0569 98.5106C32.9479 98.4532 32.8389 98.3767 32.728 98.2792C32.6171 98.1816 32.5042 98.065 32.3914 97.9273C32.3512 97.2694 32.4239 96.4164 32.6151 95.3722C32.8064 94.3261 33.2692 92.6986 34.0036 90.4859C34.5333 88.8661 34.8374 87.8563 34.9177 87.4566C34.9961 87.0569 35.0325 86.8446 35.0267 86.8178C35.0095 86.7394 34.7628 87.0894 34.2847 87.8658C33.8085 88.6423 33.2329 89.5239 32.5578 90.5089C32.3914 90.7384 32.2231 90.9698 32.0529 91.2069C31.8827 91.4441 31.7067 91.6774 31.5289 91.9088C31.3395 92.1574 31.1483 92.3945 30.9551 92.6221C30.762 92.8497 30.5707 93.0601 30.3833 93.2532C30.3336 93.3336 30.2781 93.4043 30.2169 93.4655C30.1557 93.5267 30.0964 93.5784 30.0371 93.6185C29.9664 93.6625 29.8956 93.6988 29.8268 93.7275C29.7579 93.7562 29.691 93.7792 29.6279 93.7945C29.3812 93.8499 29.1402 93.8346 28.9011 93.7467C28.6621 93.6587 28.4785 93.5401 28.3504 93.3928C28.3006 93.3508 28.2624 93.3068 28.2394 93.2647C28.2165 93.2226 28.1993 93.1748 28.1859 93.1232C28.1094 92.7866 28.1648 92.253 28.3504 91.5148C28.5378 90.7804 28.7749 89.9982 29.0618 89.1721C29.1326 89.0057 29.1995 88.8374 29.2626 88.6672C29.3257 88.4989 29.385 88.3248 29.4405 88.1489C29.6642 87.5809 29.8861 87.0416 30.1022 86.529C30.3183 86.0165 30.5057 85.5958 30.6606 85.2611C30.7256 85.1234 30.7983 84.9513 30.8805 84.7466C30.9628 84.5439 31.0469 84.3278 31.133 84.1021C31.154 84.0161 31.1789 83.9319 31.2076 83.8497C31.2363 83.7655 31.2669 83.6795 31.3013 83.5896C31.4237 83.232 31.5212 82.8954 31.592 82.576C31.6627 82.2604 31.6799 82.0214 31.6436 81.8646C31.6321 81.8129 31.6073 81.7804 31.5709 81.7689C31.5346 81.7575 31.483 81.7575 31.4179 81.7728C31.1712 81.8282 30.7543 82.0902 30.1672 82.5626C29.5782 83.0312 28.9681 83.5513 28.3351 84.1193C28.2528 84.1786 28.1763 84.2475 28.1056 84.3182C28.0329 84.389 27.9621 84.454 27.8933 84.5095C27.2736 85.0775 26.7133 85.5958 26.2161 86.0739C25.7169 86.5482 25.3975 86.8599 25.2522 87.0033L25.2503 87.0052ZM51.0761 80.763C50.8619 81.0154 50.642 81.2813 50.4182 81.5567C50.1945 81.832 49.9669 82.1132 49.7316 82.3981C49.1828 83.0962 48.6358 83.7464 48.0907 84.3469C47.5457 84.9474 47.0159 85.3089 46.4977 85.4255C46.3026 85.4695 46.1114 85.4313 45.9201 85.3127C45.7289 85.1922 45.5682 85.0526 45.4363 84.892C45.3636 84.8136 45.3024 84.7275 45.2546 84.6376C45.2068 84.5458 45.1742 84.4674 45.1609 84.4043C45.1226 84.236 45.1131 84.0467 45.1341 83.8382C45.1551 83.6298 45.1934 83.4098 45.2488 83.1784C45.2947 83.0178 45.3445 82.8495 45.3999 82.6735C45.4554 82.4976 45.5204 82.3331 45.5931 82.1801C45.6791 81.9564 45.7614 81.7575 45.8455 81.5815C45.9278 81.4056 46.0023 81.2564 46.0693 81.1321C46.3791 80.5163 46.6277 80.0133 46.819 79.6212C47.0083 79.2311 47.0829 78.9385 47.037 78.7434C47.0332 78.73 47.0312 78.7167 47.0274 78.7052C47.0236 78.6918 47.014 78.6746 46.9949 78.6516C46.9318 78.556 46.8075 78.4872 46.6201 78.4413C46.4326 78.3954 46.2223 78.3992 45.989 78.4527C45.7939 78.4967 45.6026 78.5503 45.4133 78.6153C45.224 78.6784 45.0289 78.7549 44.8319 78.841C44.1109 79.1412 43.4492 79.5428 42.8468 80.0401C42.2444 80.5392 41.8313 81.0671 41.6037 81.6217C41.7127 81.6236 41.8179 81.6312 41.9154 81.6427C42.013 81.6542 42.1048 81.6637 42.1889 81.6733C42.3457 81.7058 42.4796 81.7402 42.5905 81.7766C42.7014 81.8129 42.7952 81.8493 42.8717 81.8856L40.0928 82.97C40.0928 82.97 40.0871 82.9719 40.0737 82.9738C40.0603 82.9776 40.0469 82.9795 40.0355 82.9833C40.0259 82.9986 40.0144 83.0082 40.0011 83.012C39.9877 83.0139 39.9743 83.0178 39.9628 83.0216C39.936 83.0273 39.9112 83.0331 39.8844 83.0388C39.8576 83.0445 39.8308 83.0445 39.8022 83.0369C39.7314 83.0254 39.6549 82.991 39.5746 82.9355C39.4942 82.8782 39.435 82.773 39.4005 82.6181C39.3413 82.358 39.3432 82.0558 39.4063 81.7077C39.4694 81.3597 39.6013 80.9925 39.7983 80.6062C40.221 79.7742 40.9726 78.927 42.0512 78.0683C43.1298 77.2096 44.5948 76.569 46.446 76.1444C47.2359 75.9646 47.7656 75.9379 48.0334 76.0679C48.3011 76.1979 48.4732 76.4236 48.5459 76.7487C48.6205 77.0719 48.5784 77.4602 48.4235 77.9115C48.2667 78.3628 48.0735 78.8601 47.844 79.4032C47.8001 79.5084 47.7542 79.6251 47.7083 79.7513C47.6624 79.8775 47.6203 80.0056 47.582 80.1376C47.5361 80.2983 47.4921 80.4589 47.4462 80.6176C47.4004 80.7783 47.3621 80.937 47.3296 81.0938C47.2722 81.3788 47.2321 81.6542 47.211 81.9181C47.19 82.182 47.1995 82.4039 47.2416 82.5855C47.2474 82.6123 47.2531 82.6334 47.2569 82.6544C47.2607 82.6735 47.2741 82.6946 47.2913 82.7175C47.3066 82.7825 47.3372 82.8437 47.3851 82.9011C47.4329 82.9585 47.4826 82.9814 47.5342 82.97C47.6126 82.9527 47.7427 82.8839 47.9282 82.7672C48.1137 82.6506 48.3107 82.5129 48.5191 82.3561C48.6148 82.2929 48.7046 82.226 48.7888 82.1514C48.8749 82.0768 48.9571 82.0042 49.0355 81.9315C49.1139 81.8588 49.1847 81.7919 49.2459 81.7307C49.3071 81.6695 49.3568 81.6064 49.397 81.5433C51.0723 79.8106 52.1184 78.4068 52.5334 77.332C52.9484 76.2553 53.2926 75.6873 53.5642 75.6242C53.6024 75.6146 53.6445 75.6166 53.6885 75.6261C53.7325 75.6357 53.7765 75.651 53.8205 75.6682C53.9123 75.716 54.0002 75.7715 54.0825 75.8327C54.1647 75.8958 54.2355 75.9685 54.2948 76.0507C54.3349 76.11 54.3713 76.1635 54.4019 76.2094C54.4325 76.2572 54.4554 76.307 54.4669 76.3586C54.5032 76.5135 54.4592 76.7124 54.3368 76.9515C54.2144 77.1905 54.0251 77.5577 53.7707 78.0511C53.677 78.2366 53.5795 78.426 53.482 78.6172C53.3825 78.8104 53.2869 78.9997 53.1913 79.1833C52.4703 80.6827 51.9214 82.0998 51.5446 83.4328C51.1679 84.7658 51.0684 85.8214 51.2444 86.5979C51.3132 86.8962 51.4146 87.1372 51.5542 87.3246C51.6919 87.5101 51.8239 87.6383 51.9482 87.7052C51.9769 87.7129 52.0094 87.7186 52.0438 87.7243C52.0782 87.7301 52.1088 87.7301 52.1356 87.7243C52.2523 87.6976 52.3976 87.6191 52.5735 87.491C52.7476 87.3629 52.9254 87.2099 53.1033 87.0339C53.1626 86.9938 53.2142 86.9498 53.2582 86.9058C53.3022 86.8618 53.3462 86.814 53.3902 86.7643C53.568 86.5883 53.7268 86.4219 53.8702 86.267C54.0117 86.1121 54.1035 86.0088 54.1475 85.9591C54.3062 85.7583 54.4229 85.6168 54.4994 85.5307C54.5759 85.4447 54.639 85.3969 54.6906 85.3854C54.7691 85.3682 54.8322 85.3663 54.8838 85.3816C54.9354 85.3969 54.9641 85.4179 54.9699 85.4428C54.9852 85.5078 54.9775 85.5843 54.9507 85.6723C54.924 85.7602 54.88 85.852 54.8188 85.9477C54.8016 85.9936 54.7805 86.0356 54.7557 86.0739C54.7308 86.114 54.7079 86.1504 54.6887 86.181C54.6314 86.29 54.574 86.3837 54.5185 86.4659C54.4611 86.5462 54.4191 86.6113 54.3885 86.6591C54.3388 86.7394 54.2221 86.9115 54.0366 87.1793C53.853 87.447 53.6254 87.7339 53.3538 88.0399C53.2582 88.1565 53.1588 88.2713 53.0536 88.3841C52.9503 88.497 52.8413 88.606 52.7304 88.7131C52.5124 88.954 52.2905 89.1568 52.0629 89.3251C51.8353 89.4933 51.625 89.5985 51.4299 89.6425C51.4165 89.6463 51.4012 89.6502 51.3821 89.654C51.363 89.6578 51.3458 89.6616 51.3343 89.6655C51.0149 89.698 50.6917 89.6119 50.3647 89.4054C50.0395 89.2007 49.8081 88.9502 49.6724 88.6538C49.6628 88.6155 49.6513 88.5773 49.636 88.539C49.6207 88.5008 49.6092 88.4625 49.5997 88.4243C49.4926 87.9576 49.4735 87.4241 49.5404 86.8236C49.6073 86.223 49.7182 85.6034 49.8732 84.9685C49.9363 84.7084 50.007 84.4483 50.0835 84.1844C50.16 83.9224 50.2365 83.6584 50.313 83.3964C50.4488 82.9164 50.5884 82.4517 50.7299 82.0023C50.8734 81.5547 50.99 81.1416 51.0818 80.7668L51.0761 80.763ZM59.0243 84.9589C58.5519 85.9381 58.1656 86.5998 57.8615 86.9421C57.5574 87.2845 57.2897 87.4814 57.0564 87.535C57.0181 87.5446 56.9741 87.5465 56.9263 87.5446C56.8785 87.5426 56.8326 87.5388 56.7905 87.535C56.4998 87.4508 56.1977 87.2213 55.8859 86.8427C55.5742 86.464 55.3619 86.0222 55.2453 85.5173C55.2127 85.3758 55.1898 85.2267 55.1745 85.0737C55.1592 84.9207 55.1611 84.76 55.1764 84.5917C55.1936 84.0696 55.2931 83.5399 55.4767 83.0006C55.6603 82.4612 55.8802 81.9774 56.1365 81.5509C56.3296 81.2067 56.5266 80.9141 56.7217 80.6712C56.9187 80.4283 57.0965 80.2696 57.2572 80.1912C57.282 80.1854 57.3011 80.1778 57.3126 80.1682C57.3241 80.1586 57.3432 80.151 57.3681 80.1453C57.3815 80.1433 57.3968 80.1376 57.4178 80.1338C57.4369 80.13 57.4541 80.1261 57.4656 80.1223C57.5173 80.1108 57.5651 80.0994 57.611 80.0898C57.6569 80.0802 57.7066 80.0745 57.762 80.0764C57.7754 80.0745 57.785 80.0707 57.7907 80.0707C57.7984 80.0688 57.8079 80.0668 57.8194 80.063C57.9514 80.0458 58.0757 80.0496 58.1885 80.0707C58.3033 80.0917 58.3798 80.1873 58.418 80.3556C58.4505 80.4972 58.4352 80.6712 58.374 80.8777C58.3109 81.0824 58.2249 81.3004 58.1139 81.5299C58.0107 81.7307 57.8883 81.9315 57.7506 82.1342C57.6129 82.3369 57.4675 82.5224 57.3164 82.6927C57.1348 82.9107 56.9569 83.1019 56.7829 83.2645C56.6088 83.427 56.4463 83.538 56.2971 83.6011C56.2895 83.6298 56.2875 83.6814 56.2914 83.756C56.2952 83.8306 56.299 83.9071 56.3028 83.9893C56.3086 84.0142 56.3105 84.0409 56.3105 84.0696C56.3105 84.0964 56.3124 84.1232 56.3181 84.1499C56.3296 84.257 56.3373 84.3565 56.3468 84.4502C56.3545 84.5439 56.364 84.6166 56.3755 84.6682C56.3813 84.695 56.387 84.716 56.3908 84.7371C56.3946 84.7562 56.4061 84.7715 56.4214 84.7811C56.4635 84.9073 56.5343 85.0105 56.6356 85.0909C56.7351 85.1693 56.8249 85.2018 56.9014 85.1827C57.043 85.1502 57.2801 84.9302 57.6091 84.521C57.938 84.1117 58.2841 83.6546 58.6456 83.1497C58.6858 83.0866 58.7259 83.0254 58.768 82.968C58.8101 82.9107 58.8502 82.8495 58.8904 82.7864C59.2499 82.2681 59.5693 81.79 59.8505 81.3501C60.1316 80.9122 60.2961 80.6463 60.3439 80.5526C60.4911 80.3002 60.5867 80.1395 60.6326 80.0688C60.6785 79.998 60.7091 79.9464 60.7302 79.9138C60.7493 79.8813 60.7761 79.8431 60.8048 79.7953C60.8354 79.7475 60.8832 79.6614 60.9501 79.5371C60.9692 79.5046 60.9922 79.4663 61.0151 79.4204C61.0381 79.3745 61.0649 79.3267 61.0955 79.2789C61.1222 79.2177 61.1567 79.1603 61.1987 79.103C61.2408 79.0456 61.2771 78.9997 61.3097 78.9653C61.3422 78.9308 61.3747 78.9022 61.4034 78.883C61.4321 78.862 61.4665 78.8486 61.5066 78.839C61.5334 78.8333 61.5583 78.8295 61.587 78.8314C61.6137 78.8314 61.6424 78.8352 61.6711 78.8429C61.7572 78.8639 61.8509 78.9136 61.9503 78.994C62.0498 79.0743 62.132 79.1603 62.1932 79.256C62.199 79.2827 62.2085 79.3076 62.22 79.3325C62.2334 79.3573 62.241 79.3822 62.2468 79.409C62.2946 79.6155 62.2946 79.7972 62.2468 79.9502C62.2009 80.1032 62.1263 80.26 62.0268 80.4187C61.9867 80.4818 61.9465 80.545 61.9063 80.61C61.8662 80.6731 61.8203 80.7381 61.7667 80.8051C61.7572 80.8204 61.7438 80.8414 61.7285 80.8643C61.7132 80.8873 61.6941 80.9102 61.6711 80.9294C61.2255 81.6045 60.8564 82.2298 60.5676 82.8074C60.2769 83.385 60.1603 83.8038 60.2196 84.062C60.2215 84.0754 60.2253 84.0849 60.2253 84.0907C60.2272 84.0964 60.2291 84.1079 60.2329 84.1193C60.2635 84.1939 60.3114 84.2647 60.3745 84.3316C60.4376 84.3986 60.5045 84.4387 60.5753 84.4502C60.5753 84.4502 60.5791 84.4502 60.5848 84.4483C60.5906 84.4464 60.602 84.4445 60.6135 84.4406C60.7302 84.4139 60.8927 84.3029 61.0993 84.104C61.3058 83.9071 61.5181 83.6814 61.7323 83.4289C61.7782 83.3907 61.8184 83.3486 61.8566 83.2989C61.893 83.2492 61.9331 83.1994 61.9752 83.1497C62.0708 83.0331 62.1664 82.9145 62.2621 82.7978C62.3577 82.6812 62.4418 82.5722 62.5145 82.4746C62.8186 82.0788 63.1055 81.6752 63.3732 81.266C63.6409 80.8567 63.8991 80.4207 64.1477 79.954C64.2529 79.7532 64.3562 79.5409 64.4633 79.3191C64.5685 79.0972 64.6775 78.8716 64.7884 78.6421C64.8381 78.5617 64.8917 78.4967 64.9472 78.4413C65.0026 78.3877 65.0638 78.3533 65.1288 78.338C65.2837 78.3016 65.4234 78.3284 65.5458 78.4164C65.6681 78.5044 65.7695 78.6076 65.8517 78.7243C65.89 78.7702 65.9187 78.8218 65.9378 78.8792C65.9569 78.9366 65.9722 78.9844 65.9799 79.0226C66.0028 79.1259 65.9913 79.2349 65.9416 79.3478C65.8919 79.4606 65.8384 79.5658 65.7772 79.6614C65.758 79.6939 65.7389 79.7207 65.7255 79.7456C65.7102 79.7685 65.6987 79.7895 65.6873 79.8048C65.5974 79.9483 65.4845 80.1261 65.3507 80.3422C65.2149 80.5564 65.0753 80.7898 64.928 81.0422C64.8305 81.2143 64.7349 81.3922 64.6412 81.5777C64.5474 81.7632 64.4652 81.9449 64.3983 82.1247C64.3027 82.3637 64.2357 82.5913 64.1956 82.8036C64.1554 83.0178 64.1573 83.2148 64.1975 83.3964C64.2568 83.6565 64.3524 83.8344 64.4843 83.9338C64.6163 84.0333 64.7521 84.0945 64.8936 84.1155C64.951 84.1289 65.0103 84.1327 65.0695 84.127C65.1288 84.1193 65.1786 84.1117 65.2168 84.104C65.3067 84.083 65.3947 84.0467 65.4788 83.9931C65.563 83.9396 65.6452 83.8841 65.7274 83.8248C65.8058 83.7521 65.8843 83.6776 65.9608 83.5972C66.0372 83.5188 66.108 83.4366 66.1711 83.3544C66.2342 83.2721 66.2954 83.1975 66.3547 83.1287C66.414 83.0598 66.4637 82.9948 66.5039 82.9317C66.6091 82.7978 66.6798 82.7041 66.7143 82.6487C66.7487 82.5932 66.7774 82.555 66.8003 82.5358C66.8137 82.532 66.8233 82.5301 66.829 82.5282C66.8347 82.5263 66.8386 82.5263 66.8386 82.5263C66.917 82.5091 66.9858 82.5033 67.0489 82.5091C67.1121 82.5148 67.1484 82.5435 67.1618 82.5951C67.1905 82.7252 67.1427 82.9413 67.0126 83.2415C66.8845 83.5437 66.7009 83.865 66.4656 84.2054C66.3452 84.3966 66.2189 84.586 66.0832 84.7734C65.9493 84.9608 65.8058 85.1406 65.6548 85.3108C65.4233 85.5537 65.1958 85.766 64.972 85.9477C64.7483 86.1293 64.5379 86.2403 64.3447 86.2862C64.2797 86.3015 64.2109 86.3129 64.1382 86.3225C64.0655 86.3321 63.9871 86.334 63.903 86.3244C63.6945 86.3034 63.4918 86.225 63.2967 86.0853C63.1016 85.9457 62.9563 85.6684 62.8626 85.2553C62.8415 85.1655 62.8243 85.0564 62.809 84.9302C62.7937 84.804 62.7842 84.674 62.7803 84.5382C62.7861 84.4425 62.788 84.345 62.7861 84.2513C62.7842 84.1557 62.7861 84.0601 62.7918 83.9644C62.7861 83.9377 62.7842 83.9147 62.7861 83.8937C62.788 83.8726 62.7937 83.8478 62.7995 83.8191C62.7383 83.9702 62.656 84.148 62.5547 84.3565C62.4514 84.563 62.3366 84.7772 62.2104 84.9972C62.1129 85.1693 62.0096 85.3395 61.8987 85.5078C61.7878 85.6761 61.673 85.8348 61.5583 85.984C61.3957 86.1714 61.2332 86.334 61.0668 86.4736C60.9004 86.6132 60.7397 86.7012 60.5848 86.7375C60.5714 86.7413 60.5561 86.7432 60.537 86.749C60.5179 86.7528 60.5007 86.7566 60.4892 86.7604C60.2176 86.7681 59.9403 86.64 59.6554 86.378C59.3704 86.1159 59.1754 85.7507 59.0683 85.2859C59.053 85.2209 59.0415 85.1655 59.03 85.1215C59.0204 85.0756 59.0147 85.0258 59.0166 84.9704L59.0243 84.9589Z" fill="#FFCC00"/>
<path d="M71.4225 81.5949C71.3517 81.7613 71.2638 81.9411 71.1586 82.1362C71.0534 82.3312 70.9482 82.5282 70.8449 82.729C70.7379 82.9164 70.6288 83.0981 70.5198 83.2741C70.4108 83.4481 70.2923 83.6183 70.166 83.7847C69.971 84.062 69.7663 84.2991 69.5521 84.498C69.3379 84.6969 69.1352 84.8174 68.9401 84.8633C68.6036 84.9398 68.2612 84.7352 67.9112 84.2494C67.5613 83.7637 67.3069 83.1708 67.1482 82.4708C67.0946 82.2375 67.0889 81.9468 67.1329 81.5949C67.1749 81.2449 67.2553 80.8778 67.3738 80.4972C67.4848 80.0898 67.632 79.692 67.8156 79.3019C67.9992 78.9117 68.2 78.5694 68.42 78.2749C68.5825 78.0339 68.7527 77.835 68.9287 77.6782C69.1046 77.5233 69.2825 77.4238 69.4642 77.3818C69.6841 77.332 69.8849 77.334 70.0685 77.3875C70.2502 77.4411 70.3534 77.5195 70.3783 77.6227C70.407 77.7528 70.3764 77.944 70.2846 78.1965C70.1928 78.4489 70.0704 78.7224 69.9193 79.015C69.8199 79.1738 69.7166 79.3363 69.6114 79.5046C69.5062 79.671 69.401 79.8221 69.2959 79.9559C69.1907 80.0898 69.0874 80.2103 68.9918 80.3212C68.8942 80.4321 68.7948 80.5335 68.6934 80.6253C68.6571 80.6463 68.6284 80.6712 68.6074 80.6961C68.5863 80.7209 68.5634 80.7439 68.5404 80.763C68.5404 80.763 68.5347 80.7649 68.5213 80.7668C68.4888 80.8013 68.4563 80.8357 68.4219 80.872C68.3894 80.9064 68.3454 80.9504 68.288 81.004C68.2727 81.1168 68.2689 81.2296 68.2746 81.3444C68.2803 81.4591 68.2956 81.5682 68.3186 81.6714C68.3779 81.9296 68.485 82.1438 68.6399 82.314C68.7948 82.4842 68.9612 82.5473 69.1429 82.5053C69.2461 82.4823 69.3551 82.423 69.4699 82.3293C69.5846 82.2356 69.7185 82.1094 69.8734 81.9506C70.0054 81.811 70.1431 81.658 70.2884 81.4878C70.4338 81.3176 70.6155 81.0594 70.8354 80.7095L73.5128 76.5001C73.5224 76.4848 73.532 76.4676 73.5434 76.4523C73.553 76.437 73.5626 76.4198 73.574 76.4045C73.5912 76.3605 73.6199 76.3184 73.6582 76.2821C73.6983 76.2458 73.7423 76.2209 73.794 76.2094C73.8207 76.2037 73.8532 76.2018 73.8953 76.2075C73.9374 76.2113 73.9814 76.2286 74.0292 76.2592C74.1057 76.2955 74.1898 76.3816 74.2836 76.5173C74.3753 76.6531 74.4557 76.8692 74.5245 77.1676C74.5303 77.1944 74.536 77.223 74.5436 77.2555C74.5513 77.2881 74.557 77.3168 74.5628 77.3435C74.5723 77.3818 74.5762 77.4162 74.5742 77.443C74.5742 77.4697 74.5704 77.4984 74.5628 77.5271C74.5628 77.5271 74.5609 77.5348 74.557 77.5482C74.5532 77.5635 74.5475 77.5768 74.536 77.5941L73.2374 79.8737C73.2068 79.9215 73.1801 79.9693 73.1571 80.0152C73.1342 80.0611 73.1093 80.1147 73.0806 80.1759C73.0099 80.3423 72.9525 80.5354 72.9066 80.7573C72.8626 80.9791 72.8683 81.2182 72.9276 81.4783C72.9754 81.6848 73.0558 81.8608 73.1705 82.0061C73.2852 82.1495 73.4325 82.2012 73.6142 82.161C73.7041 82.14 73.8131 82.0922 73.9393 82.0157C74.0655 81.9392 74.1841 81.8531 74.2988 81.7594C74.3677 81.702 74.4327 81.6466 74.4958 81.5911C74.5589 81.5356 74.624 81.4802 74.6928 81.4228C74.7387 81.3846 74.7808 81.3444 74.819 81.3023C74.8573 81.2602 74.8917 81.222 74.9261 81.1857C74.9395 81.1818 74.9663 81.157 75.0103 81.1053C75.0524 81.0556 75.1021 81.0021 75.1575 80.9485C75.2264 80.8911 75.2857 80.8376 75.3354 80.786C75.3851 80.7343 75.41 80.7075 75.41 80.7075C75.4234 80.7056 75.4329 80.7018 75.4387 80.7018C75.4444 80.6999 75.4559 80.7037 75.4731 80.7152C75.5018 80.7228 75.5286 80.7324 75.5515 80.7477C75.5764 80.763 75.5917 80.7898 75.6012 80.828C75.6165 80.8931 75.5286 81.09 75.3373 81.419C75.1461 81.7479 74.9051 82.1113 74.6144 82.5033C74.5207 82.6334 74.4251 82.7654 74.3256 82.8954C74.2262 83.0274 74.1229 83.1536 74.0139 83.2741C73.7691 83.5762 73.5205 83.8306 73.268 84.0371C73.0156 84.2456 72.7918 84.3699 72.5987 84.4158C72.5853 84.4196 72.5757 84.4215 72.57 84.4235C72.5642 84.4254 72.5528 84.4273 72.5413 84.4311C72.3577 84.4598 72.1684 84.4101 71.9752 84.2838C71.7821 84.1576 71.6444 83.9071 71.5583 83.5303C71.5296 83.4003 71.5028 83.2435 71.4818 83.058C71.4608 82.8725 71.4474 82.685 71.4455 82.4938C71.4321 82.3752 71.4263 82.2566 71.4263 82.14C71.4263 82.0233 71.4282 81.9105 71.4302 81.8015C71.4206 81.7632 71.4168 81.7269 71.4149 81.6925C71.4149 81.658 71.4168 81.6274 71.4244 81.5988L71.4225 81.5949ZM77.2555 80.0994C77.2612 80.1262 77.2689 80.1548 77.2746 80.1874C77.2823 80.2199 77.288 80.2486 77.2938 80.2753C77.3091 80.3404 77.3282 80.413 77.355 80.4972C77.3798 80.5794 77.4162 80.6578 77.4582 80.7286C77.5596 80.937 77.7145 81.1168 77.9191 81.2679C78.1238 81.419 78.4011 81.4534 78.7511 81.375C78.8543 81.352 78.9672 81.3081 79.0896 81.2469C79.212 81.1857 79.3248 81.1149 79.43 81.0365C79.5256 80.9734 79.6155 80.9084 79.7015 80.8414C79.7876 80.7745 79.8737 80.7114 79.954 80.6502C80.0783 80.5392 80.195 80.436 80.3021 80.3365C80.4092 80.2371 80.4837 80.1625 80.5258 80.1109C80.9236 79.7054 81.1741 79.4319 81.2774 79.2847C81.3807 79.1393 81.4572 79.0533 81.505 79.0284C81.5146 79.0131 81.526 79.0035 81.5394 78.9997C81.5528 78.9978 81.5662 78.994 81.5777 78.9902C81.6159 78.9806 81.6503 78.9978 81.6809 79.038C81.7115 79.0781 81.7383 79.1508 81.7613 79.2541C81.7727 79.3057 81.7517 79.3918 81.6982 79.5142C81.6446 79.6366 81.5088 79.8775 81.2908 80.2409C81.2143 80.3805 81.0957 80.5679 80.9389 80.8013C80.7802 81.0346 80.6023 81.2832 80.4034 81.5471C80.2045 81.811 79.9827 82.0616 79.7379 82.3025C79.4931 82.5416 79.2406 82.7539 78.9825 82.9356C78.8543 83.0331 78.7166 83.1153 78.5694 83.1823C78.4221 83.2492 78.2768 83.3008 78.1333 83.3334C77.6533 83.4424 77.1809 83.3563 76.7143 83.0752C76.2476 82.794 75.9302 82.2834 75.7619 81.5452C75.6969 81.2603 75.6682 80.9543 75.6739 80.6253C75.6816 80.2964 75.7179 79.954 75.7867 79.5983C75.9761 78.6956 76.3375 77.8025 76.8711 76.917C77.4047 76.0316 78.0358 75.3909 78.7625 74.9931C78.8734 74.9415 78.9901 74.8898 79.1163 74.8401C79.2406 74.7904 79.363 74.754 79.4797 74.7273C79.8163 74.6508 80.0802 74.6546 80.2695 74.7407C80.4589 74.8267 80.6042 74.9396 80.7056 75.0811C80.7457 75.1404 80.7763 75.1977 80.7955 75.2551C80.8146 75.3125 80.8318 75.366 80.8433 75.4177C80.8873 75.6127 80.8796 75.8422 80.8165 76.1081C80.7553 76.3739 80.6539 76.6455 80.5124 76.9228C80.2734 77.4277 79.9253 77.9326 79.4682 78.4394C79.0111 78.9462 78.5216 79.3669 77.9995 79.7054C77.8809 79.7857 77.7585 79.8584 77.6304 79.9234C77.5022 79.9865 77.376 80.0458 77.2517 80.1013L77.2555 80.0994ZM77.091 79.3803C77.2383 79.3057 77.3951 79.2024 77.5615 79.0686C77.7279 78.9347 77.8904 78.7951 78.0492 78.6516C78.25 78.4566 78.4412 78.2481 78.6229 78.0301C78.8046 77.8121 78.9595 77.5921 79.0857 77.3722C79.1928 77.1848 79.2732 77.0031 79.3286 76.8252C79.3841 76.6493 79.3975 76.4963 79.3669 76.3663C79.3305 76.2113 79.2808 76.0928 79.2139 76.0124C79.1469 75.9321 79.0245 75.913 78.8429 75.9532C78.753 75.9742 78.665 76.0105 78.5828 76.0641C78.4986 76.1176 78.4183 76.1807 78.3399 76.2534C78.1027 76.4714 77.8924 76.7717 77.7069 77.1542C77.5213 77.5367 77.3779 77.9249 77.2765 78.3151C77.2249 78.5044 77.1809 78.6918 77.1484 78.8754C77.1159 79.0609 77.0968 79.2273 77.0891 79.3803H77.091Z" fill="#FFCC00"/>
<path d="M97.1562 79.453L96.8961 80.371C96.5423 81.5701 96.2095 82.6296 95.8959 83.5534C95.5822 84.4771 95.1921 84.9915 94.7255 85.0986C94.5304 85.1426 94.364 85.0852 94.2263 84.9265C94.0886 84.7678 93.9758 84.588 93.8897 84.391C93.8285 84.2418 93.7788 84.1003 93.7405 83.9645C93.7023 83.8307 93.6755 83.7236 93.6583 83.6471C93.4097 82.5589 93.4269 81.7346 93.7061 81.1723C93.9873 80.6101 94.3353 80.1664 94.7522 79.8394C94.844 79.7629 94.9435 79.694 95.0506 79.6271C95.1577 79.562 95.259 79.497 95.3547 79.4358C95.4044 79.411 95.4484 79.3842 95.4885 79.3536C95.5287 79.323 95.5669 79.2981 95.6033 79.2771C95.6033 79.2771 95.6052 79.2733 95.6109 79.2656C95.6167 79.258 95.6186 79.2541 95.6186 79.2541C95.6913 79.2102 95.7639 79.1623 95.8423 79.1107C95.9188 79.0591 96.0221 78.9845 96.1483 78.887C96.2937 78.3897 96.4429 77.8829 96.5978 77.3627C96.7527 76.8444 96.9133 76.3262 97.0816 75.8117C96.4448 76.6647 95.8844 77.3895 95.4006 77.9843C94.9167 78.579 94.4864 78.9195 94.1097 79.0036C94.0198 79.0247 93.9108 79.0151 93.7864 78.9749C93.6621 78.9348 93.5283 78.8697 93.3848 78.7799C93.1936 78.6594 92.9985 78.5064 92.7996 78.3209C92.6007 78.1354 92.421 77.9307 92.2603 77.7089C92.1436 77.5578 92.0442 77.4048 91.9601 77.2461C91.8759 77.0873 91.8185 76.9382 91.786 76.7947C91.7306 76.548 91.7516 76.2669 91.8491 75.9532C91.9467 75.6377 92.1073 75.3049 92.3272 74.9549C92.6543 74.4175 93.0846 73.8687 93.6181 73.3102C94.1517 72.7518 94.7236 72.2546 95.3317 71.8147C95.7544 71.5144 96.1789 71.2543 96.6054 71.0344C97.0319 70.8145 97.4392 70.6596 97.8294 70.5716C97.8676 70.562 97.904 70.5582 97.9384 70.5563C97.9728 70.5563 98.0092 70.5506 98.0474 70.541C98.2788 70.5429 98.5217 70.6615 98.7722 70.8967C99.0227 71.1319 99.2255 71.5871 99.3804 72.2603C99.4186 72.4286 99.4339 72.5586 99.4282 72.6485C99.4225 72.7384 99.4072 72.8206 99.3823 72.8933C99.3861 72.9067 99.3823 72.9201 99.3708 72.9373C99.3613 72.9526 99.3574 72.9679 99.3593 72.9813C99.3593 72.9813 99.3574 72.9851 99.3517 72.9928C99.3479 73.0004 99.3441 73.0042 99.3441 73.0042L97.4756 78.2558L100.448 75.9628C100.507 75.9226 100.557 75.8901 100.599 75.8672C100.641 75.8442 100.675 75.8289 100.702 75.8232C100.767 75.8079 100.819 75.8098 100.857 75.8289C100.895 75.8481 100.926 75.8748 100.947 75.9112C100.947 75.9112 100.947 75.915 100.949 75.9207C100.951 75.9265 100.952 75.9379 100.954 75.9494C100.966 76.0011 100.966 76.0489 100.956 76.0929C100.947 76.1349 100.929 76.1732 100.91 76.2057C100.891 76.2382 100.876 76.2612 100.864 76.2765C100.855 76.2918 100.843 76.3013 100.83 76.3051L97.1543 79.455L97.1562 79.453ZM95.9303 80.0803C95.2189 80.4877 94.7331 81.0155 94.4711 81.66C94.2091 82.3064 94.1575 82.9452 94.3162 83.5763C94.3219 83.6031 94.3277 83.6241 94.3315 83.6451C94.3353 83.6643 94.3391 83.6815 94.343 83.693C94.5323 83.6222 94.6834 83.5227 94.7962 83.3946C94.911 83.2665 95.0123 83.1039 95.1041 82.905C95.1787 82.6966 95.2571 82.4518 95.3355 82.1668C95.4139 81.8838 95.5096 81.5453 95.6243 81.1494L95.9322 80.0784L95.9303 80.0803ZM93.578 77.3876C93.6067 77.3952 93.6354 77.401 93.6641 77.4086C93.6927 77.4163 93.7214 77.422 93.7501 77.4297C93.7635 77.4258 93.7769 77.4239 93.7884 77.4201C93.8017 77.4182 93.8151 77.4144 93.8266 77.4105C93.9815 77.3742 94.2684 77.1677 94.6853 76.7852C95.1022 76.4027 95.5383 75.9571 95.9953 75.4445C96.1369 75.2896 96.2726 75.1366 96.4008 74.9836C96.5289 74.8306 96.659 74.6796 96.7871 74.5266C97.16 74.0733 97.4679 73.6449 97.7108 73.2433C97.9537 72.8398 98.0512 72.5414 98.0072 72.3483C98.0053 72.3349 97.9977 72.3234 97.9881 72.3119C97.9786 72.3005 97.9652 72.289 97.9499 72.2794C97.9307 72.2565 97.904 72.2393 97.8657 72.2278C97.8294 72.2163 97.7854 72.2163 97.7318 72.2278C97.5769 72.2641 97.3474 72.377 97.0434 72.5682C96.7393 72.7594 96.4237 72.9756 96.0967 73.2127C96.0183 73.2854 95.9341 73.3523 95.8462 73.4135C95.7582 73.4747 95.674 73.5416 95.5956 73.6143C95.3757 73.7864 95.1787 73.9509 95.0028 74.1077C94.8268 74.2645 94.6891 74.3946 94.5916 74.4979C94.2282 74.8804 93.9108 75.2801 93.6392 75.697C93.3657 76.1139 93.2911 76.5882 93.4116 77.1179C93.4231 77.1696 93.4422 77.2231 93.469 77.2786C93.4958 77.334 93.5302 77.3704 93.5761 77.3876H93.578ZM102.412 74.3487C102.417 74.3755 102.425 74.4042 102.431 74.4367C102.438 74.4692 102.444 74.4979 102.45 74.5246C102.465 74.5897 102.484 74.6623 102.511 74.7465C102.536 74.8287 102.572 74.9071 102.614 74.9779C102.716 75.1863 102.871 75.3661 103.075 75.5172C103.28 75.6683 103.557 75.7027 103.907 75.6243C104.01 75.6014 104.123 75.5574 104.246 75.4962C104.368 75.435 104.481 75.3642 104.586 75.2858C104.682 75.2227 104.772 75.1577 104.858 75.0907C104.944 75.0238 105.028 74.9607 105.11 74.8995C105.234 74.7886 105.351 74.6853 105.458 74.5858C105.565 74.4864 105.64 74.4118 105.682 74.3602C106.08 73.9547 106.33 73.6812 106.434 73.534C106.537 73.3886 106.613 73.3026 106.661 73.2777C106.671 73.2624 106.682 73.2529 106.696 73.249C106.709 73.2471 106.722 73.2433 106.734 73.2395C106.772 73.2299 106.806 73.2471 106.837 73.2873C106.868 73.3274 106.894 73.4001 106.917 73.5034C106.929 73.555 106.908 73.6411 106.854 73.7635C106.801 73.8859 106.665 74.1269 106.447 74.4902C106.37 74.6298 106.252 74.8172 106.095 75.0506C105.938 75.2839 105.758 75.5325 105.56 75.7964C105.361 76.0603 105.139 76.3109 104.894 76.5518C104.649 76.7909 104.397 77.0032 104.139 77.1849C104.01 77.2824 103.873 77.3646 103.725 77.4316C103.578 77.4985 103.433 77.5502 103.289 77.5827C102.809 77.6917 102.337 77.6056 101.87 77.3245C101.404 77.0433 101.086 76.5327 100.918 75.7945C100.853 75.5096 100.824 75.2036 100.83 74.8746C100.838 74.5457 100.874 74.2034 100.943 73.8476C101.132 72.945 101.494 72.0518 102.027 71.1664C102.561 70.2809 103.192 69.6402 103.919 69.2424C104.03 69.1908 104.148 69.1392 104.272 69.0894C104.397 69.0397 104.519 69.0034 104.636 68.9766C104.972 68.9001 105.236 68.9039 105.426 68.99C105.615 69.0761 105.76 69.1889 105.862 69.3304C105.902 69.3897 105.932 69.4471 105.952 69.5044C105.971 69.5618 105.988 69.6154 105.999 69.667C106.043 69.8621 106.036 70.0916 105.973 70.3574C105.911 70.6232 105.81 70.8948 105.669 71.1721C105.429 71.677 105.081 72.1819 104.624 72.6887C104.167 73.1955 103.678 73.6162 103.156 73.9547C103.037 74.0351 102.915 74.1077 102.786 74.1727C102.658 74.2359 102.532 74.2951 102.408 74.3506L102.412 74.3487ZM102.247 73.6296C102.394 73.555 102.551 73.4518 102.718 73.3179C102.884 73.184 103.047 73.0444 103.205 72.901C103.406 72.7059 103.597 72.4974 103.779 72.2794C103.961 72.0614 104.116 71.8415 104.242 71.6215C104.349 71.4341 104.429 71.2524 104.485 71.0746C104.54 70.8986 104.554 70.7456 104.523 70.6156C104.487 70.4607 104.437 70.3421 104.37 70.2618C104.303 70.1815 104.181 70.1623 103.999 70.2025C103.909 70.2235 103.821 70.2599 103.739 70.3134C103.655 70.367 103.574 70.4301 103.496 70.5027C103.259 70.7208 103.048 71.021 102.863 71.4035C102.677 71.786 102.534 72.1742 102.433 72.5644C102.381 72.7537 102.337 72.9411 102.305 73.1247C102.272 73.3102 102.253 73.4766 102.245 73.6296H102.247ZM108.52 73.5263C108.977 72.7824 109.392 72.1551 109.767 71.6464C110.142 71.1377 110.48 70.6787 110.782 70.2694C111.614 69.1946 112.194 68.5119 112.523 68.2269C112.852 67.9401 113.095 67.7794 113.251 67.7431C113.471 67.6933 113.63 67.7048 113.73 67.7775C113.827 67.8502 113.896 67.9381 113.932 68.0376C113.953 68.0739 113.971 68.1141 113.98 68.16C113.99 68.2059 113.999 68.248 114.009 68.2862C114.013 68.2996 114.015 68.3092 114.016 68.3149C114.018 68.3206 114.02 68.3321 114.024 68.3436C114.047 68.4469 114.06 68.5444 114.058 68.6324C114.058 68.7203 114.047 68.8083 114.026 68.8944C114.009 68.9403 113.993 68.9881 113.976 69.0378C113.961 69.0894 113.946 69.143 113.932 69.2004C113.72 69.9443 113.527 70.4645 113.349 70.7648C113.173 71.065 113.081 71.2964 113.079 71.4609C113.081 71.4743 113.085 71.4877 113.089 71.4991C113.093 71.5125 113.095 71.5259 113.098 71.5374C113.108 71.5756 113.129 71.6081 113.162 71.6349C113.194 71.6617 113.225 71.6713 113.25 71.6655C113.263 71.6617 113.272 71.6598 113.278 71.6579C113.284 71.656 113.294 71.654 113.307 71.6502C113.391 71.6043 113.517 71.4379 113.684 71.1549C113.85 70.8718 114.29 70.2866 115.001 69.4031C115.424 68.8695 115.824 68.4354 116.197 68.0988C116.57 67.7622 116.812 67.5404 116.923 67.4313C116.937 67.4275 116.948 67.4218 116.96 67.4122C116.971 67.4027 116.983 67.3893 116.992 67.374C117.038 67.3357 117.092 67.2994 117.151 67.2669C117.212 67.2324 117.273 67.2076 117.338 67.1942C117.442 67.1712 117.551 67.2114 117.662 67.3147C117.774 67.418 117.88 67.5403 117.981 67.6819C118.044 67.7775 118.1 67.8693 118.147 67.9611C118.195 68.0529 118.226 68.1237 118.237 68.1753C118.254 68.2537 118.245 68.3302 118.209 68.4067C118.172 68.4832 118.134 68.5597 118.098 68.6362C118.084 68.64 118.073 68.6477 118.063 68.6649C118.054 68.6802 118.044 68.6974 118.033 68.7127C117.497 69.4758 117.161 70.105 117.023 70.5984C116.883 71.0937 116.841 71.4571 116.895 71.6904C116.939 71.8854 117.021 72.0193 117.139 72.0939C117.258 72.1685 117.415 72.1838 117.61 72.1398C117.74 72.1111 117.924 72.0174 118.159 71.8606C118.396 71.7038 118.708 71.3423 119.098 70.7781C119.107 70.7628 119.115 70.7495 119.121 70.7418C119.125 70.7342 119.134 70.7284 119.148 70.7246C119.178 70.6768 119.213 70.6347 119.253 70.5984C119.293 70.562 119.337 70.5391 119.389 70.5257C119.415 70.52 119.442 70.52 119.471 70.5276C119.499 70.5353 119.524 70.5486 119.543 70.5716C119.563 70.5945 119.576 70.6232 119.582 70.6557C119.589 70.6883 119.589 70.7189 119.582 70.7475C119.578 70.912 119.496 71.1358 119.337 71.4169C119.176 71.698 118.975 71.9964 118.734 72.3119C118.629 72.4458 118.516 72.5835 118.4 72.725C118.283 72.8665 118.165 73.0062 118.046 73.1438C117.717 73.4919 117.401 73.796 117.099 74.0542C116.797 74.3143 116.57 74.4615 116.413 74.4979C116.374 74.5074 116.338 74.5113 116.304 74.5132C116.269 74.5132 116.241 74.517 116.214 74.5227C116.024 74.5246 115.841 74.4826 115.663 74.3927C115.485 74.3028 115.372 74.1498 115.323 73.928C115.284 73.7597 115.256 73.5416 115.235 73.2739C115.214 73.0062 115.267 72.6122 115.395 72.092C115.445 71.8893 115.485 71.7267 115.52 71.6043C115.552 71.48 115.59 71.3672 115.636 71.2601C115.636 71.2601 115.638 71.2524 115.642 71.239C115.646 71.2237 115.648 71.218 115.648 71.218C115.657 71.2027 115.665 71.1893 115.671 71.1817C115.676 71.174 115.676 71.1625 115.675 71.1511C115.743 70.9713 115.782 70.8336 115.795 70.7361C115.806 70.6385 115.806 70.5639 115.795 70.5104C115.785 70.4721 115.766 70.4492 115.738 70.4415C115.709 70.4339 115.673 70.4282 115.632 70.4243C115.632 70.4243 115.629 70.4243 115.623 70.4262C115.617 70.4282 115.606 70.4301 115.594 70.4339C115.529 70.4492 115.416 70.5467 115.252 70.7265C115.089 70.9063 114.917 71.1128 114.739 71.3442C114.716 71.3633 114.697 71.3844 114.682 71.4093C114.667 71.4322 114.648 71.4552 114.625 71.4743C114.468 71.6866 114.322 71.8835 114.187 72.0652C114.051 72.2469 113.963 72.3693 113.923 72.4324C113.433 73.1572 113.049 73.7501 112.764 74.2091C112.481 74.6681 112.19 74.932 111.892 75.0008C111.865 75.0066 111.84 75.0104 111.811 75.0085C111.785 75.0085 111.748 74.9989 111.704 74.9817C111.63 74.9569 111.549 74.9014 111.461 74.8115C111.373 74.7235 111.31 74.6011 111.276 74.4443C111.259 74.3659 111.253 74.2799 111.257 74.1823C111.262 74.0867 111.266 73.9834 111.268 73.8725C111.28 73.8017 111.293 73.731 111.31 73.6583C111.328 73.5856 111.35 73.5206 111.377 73.4594C111.406 73.3447 111.433 73.2395 111.459 73.1438C111.486 73.0501 111.507 72.9794 111.524 72.9354C111.697 72.4324 111.836 72.0595 111.943 71.8166C112.052 71.5737 112.091 71.3882 112.062 71.2582C112.06 71.2448 112.05 71.2276 112.039 71.2027C112.027 71.1778 112.01 71.1549 111.991 71.1319C111.957 71.0994 111.905 71.0707 111.838 71.044C111.771 71.0191 111.679 71.0191 111.563 71.0459C111.264 71.1147 110.966 71.3423 110.666 71.7305C110.366 72.1188 110.029 72.6294 109.656 73.2586C109.625 73.3064 109.602 73.3485 109.583 73.3886C109.564 73.4269 109.539 73.4632 109.507 73.4977C109.239 73.9949 109.04 74.4501 108.908 74.8612C108.776 75.2724 108.627 75.5593 108.461 75.7199C108.438 75.739 108.411 75.7582 108.382 75.7792C108.354 75.8002 108.319 75.8136 108.279 75.8232C108.241 75.8328 108.193 75.8366 108.139 75.8347C108.084 75.8328 108.019 75.8136 107.942 75.7773C107.805 75.7123 107.659 75.565 107.505 75.3355C107.35 75.1041 107.21 74.7178 107.086 74.1747C107.003 73.8113 106.958 73.5091 106.95 73.2643C106.942 73.0215 106.965 72.7767 107.019 72.5338C107.07 72.3444 107.147 72.136 107.244 71.9103C107.342 71.6827 107.464 71.4112 107.61 71.0918C107.694 70.9235 107.77 70.7628 107.837 70.6098C107.904 70.4588 107.979 70.3191 108.059 70.191C108.201 69.9137 108.369 69.6842 108.566 69.5025C108.763 69.3209 109.017 69.1946 109.329 69.1239C109.446 69.0971 109.549 69.1009 109.639 69.1353C109.729 69.1698 109.796 69.2233 109.838 69.2941C109.842 69.3075 109.847 69.3228 109.859 69.34C109.87 69.3572 109.876 69.3725 109.88 69.3859C109.886 69.4126 109.889 69.4413 109.889 69.4758C109.891 69.5102 109.882 69.5484 109.864 69.5943C109.861 69.6364 109.843 69.6842 109.815 69.7378C109.786 69.7913 109.763 69.841 109.746 69.8869C109.729 69.9309 109.71 69.9692 109.69 70.0017C109.671 70.0342 109.65 70.0648 109.631 70.0973C109.591 70.1604 109.499 70.3153 109.358 70.5582C109.216 70.8011 109.069 71.0707 108.918 71.3634C108.901 71.4073 108.883 71.4494 108.864 71.4877C108.845 71.5259 108.82 71.5622 108.788 71.5967C108.641 71.9027 108.51 72.1876 108.4 72.4515C108.291 72.7155 108.245 72.8933 108.266 72.9832C108.271 73.01 108.283 73.0482 108.302 73.0979C108.321 73.1477 108.342 73.1974 108.367 73.2471C108.382 73.2567 108.396 73.272 108.407 73.2892C108.419 73.3064 108.424 73.3217 108.428 73.3351C108.453 73.3829 108.472 73.4231 108.486 73.4537C108.499 73.4843 108.514 73.5053 108.53 73.5149L108.52 73.5263ZM111.324 67.898C111.228 67.8387 111.153 67.7488 111.1 67.6322C111.046 67.5155 110.995 67.3529 110.949 67.1464C110.849 66.7065 111.065 66.2265 111.603 65.7101C112.138 65.1919 112.754 64.7252 113.45 64.3083C113.953 64.0023 114.443 63.7441 114.919 63.5338C115.395 63.3234 115.762 63.1876 116.023 63.1283C116.359 63.0518 116.627 63.0423 116.824 63.0996C117.021 63.157 117.159 63.2373 117.237 63.3425C117.271 63.375 117.296 63.4075 117.31 63.4381C117.323 63.4687 117.335 63.5032 117.344 63.5433C117.348 63.5567 117.348 63.5739 117.346 63.595C117.344 63.616 117.338 63.6409 117.333 63.6695L116.983 64.731C116.967 64.7214 116.948 64.7157 116.927 64.7118C116.906 64.7099 116.889 64.7099 116.876 64.7137C116.635 64.6736 116.396 64.6698 116.158 64.7042C115.921 64.7386 115.64 64.7921 115.317 64.8667C115.045 64.9279 114.739 65.0369 114.399 65.188C114.058 65.341 113.716 65.5246 113.37 65.7388C112.932 66.0295 112.527 66.3565 112.154 66.7218C111.781 67.0871 111.505 67.4792 111.329 67.9018L111.324 67.898ZM123.801 69.6288C123.73 69.7951 123.642 69.9749 123.537 70.17C123.431 70.3651 123.326 70.562 123.223 70.7628C123.116 70.9503 123.007 71.1319 122.898 71.3079C122.789 71.4819 122.67 71.6521 122.544 71.8185C122.349 72.0958 122.144 72.333 121.93 72.5319C121.716 72.7308 121.513 72.8512 121.318 72.8971C120.982 72.9736 120.639 72.769 120.289 72.2832C119.939 71.7975 119.685 71.2046 119.526 70.5047C119.473 70.2713 119.467 69.9806 119.511 69.6288C119.553 69.2788 119.633 68.9116 119.75 68.531C119.861 68.1236 120.008 67.7259 120.194 67.3357C120.377 66.9456 120.578 66.6032 120.798 66.3087C120.961 66.0678 121.131 65.8689 121.307 65.712C121.483 65.5571 121.661 65.4577 121.842 65.4156C122.062 65.3659 122.263 65.3678 122.447 65.4213C122.628 65.4749 122.731 65.5533 122.756 65.6566C122.785 65.7866 122.754 65.9779 122.663 66.2303C122.571 66.4828 122.448 66.7562 122.297 67.0488C122.198 67.2076 122.095 67.3701 121.989 67.5384C121.884 67.7048 121.779 67.8559 121.674 67.9898C121.569 68.1237 121.467 68.2441 121.37 68.3551C121.272 68.466 121.173 68.5673 121.071 68.6591C121.035 68.6802 121.006 68.705 120.985 68.7299C120.964 68.7548 120.941 68.7777 120.918 68.7968C120.918 68.7968 120.913 68.7987 120.899 68.8007C120.867 68.8351 120.834 68.8695 120.8 68.9058C120.767 68.9403 120.723 68.9843 120.666 69.0378C120.651 69.1506 120.647 69.2635 120.653 69.3782C120.658 69.493 120.674 69.602 120.697 69.7053C120.756 69.9634 120.863 70.1776 121.018 70.3478C121.173 70.518 121.339 70.5812 121.521 70.5391C121.624 70.5161 121.733 70.4568 121.848 70.3631C121.963 70.2694 122.097 70.1432 122.251 69.9845C122.383 69.8449 122.521 69.6919 122.666 69.5217C122.812 69.3514 122.993 69.0933 123.213 68.7433L125.891 64.534C125.9 64.5187 125.91 64.5015 125.921 64.4862C125.931 64.4709 125.941 64.4536 125.952 64.4383C125.969 64.3944 125.998 64.3523 126.036 64.3179C126.076 64.2815 126.122 64.2567 126.174 64.2452C126.199 64.2394 126.233 64.2375 126.275 64.2433C126.317 64.2471 126.361 64.2643 126.409 64.2949C126.486 64.3312 126.57 64.4173 126.663 64.5531C126.755 64.6889 126.836 64.905 126.904 65.2033C126.91 65.2301 126.918 65.2588 126.924 65.2913C126.931 65.3238 126.937 65.3525 126.943 65.3793C126.952 65.4175 126.956 65.45 126.954 65.4787C126.954 65.5055 126.95 65.5342 126.943 65.5629C126.943 65.5629 126.941 65.5705 126.937 65.5839C126.933 65.5992 126.927 65.6126 126.916 65.6298L125.617 67.9095C125.587 67.9573 125.56 68.0051 125.537 68.051C125.514 68.0969 125.487 68.1504 125.461 68.2116C125.39 68.378 125.332 68.5712 125.287 68.793C125.241 69.0149 125.248 69.2539 125.308 69.514C125.355 69.7206 125.436 69.8965 125.55 70.0418C125.665 70.1853 125.812 70.2369 125.994 70.1968C126.084 70.1757 126.193 70.1279 126.319 70.0514C126.445 69.9749 126.564 69.8888 126.679 69.7951C126.748 69.7378 126.813 69.6823 126.876 69.6268C126.939 69.5714 127.004 69.5159 127.073 69.4585C127.119 69.4203 127.161 69.3801 127.199 69.3381C127.237 69.296 127.272 69.2577 127.306 69.2214C127.319 69.2195 127.346 69.1927 127.39 69.1411C127.432 69.0914 127.482 69.0378 127.537 68.9843C127.606 68.9269 127.666 68.8733 127.715 68.8217C127.765 68.7701 127.79 68.7433 127.79 68.7433C127.803 68.7395 127.813 68.7375 127.819 68.7356C127.824 68.7337 127.836 68.7376 127.851 68.749C127.88 68.7567 127.907 68.7662 127.93 68.7815C127.952 68.7968 127.97 68.8236 127.979 68.8619C127.995 68.9269 127.907 69.1239 127.715 69.4528C127.524 69.7818 127.283 70.1451 126.992 70.5372C126.899 70.6672 126.803 70.7992 126.704 70.9292C126.604 71.0612 126.501 71.1874 126.392 71.3079C126.147 71.6081 125.899 71.8644 125.646 72.071C125.394 72.2794 125.17 72.4037 124.977 72.4496C124.963 72.4534 124.954 72.4554 124.948 72.4573C124.942 72.4592 124.931 72.4611 124.919 72.4649C124.736 72.4936 124.546 72.4439 124.353 72.3177C124.16 72.1914 124.022 71.9409 123.936 71.5642C123.908 71.4341 123.881 71.2773 123.86 71.0918C123.839 70.9063 123.825 70.7189 123.824 70.5276C123.81 70.409 123.804 70.2905 123.804 70.1738C123.804 70.0571 123.806 69.9443 123.808 69.8353C123.799 69.7971 123.795 69.7607 123.793 69.7263C123.791 69.6919 123.795 69.6613 123.802 69.6326L123.801 69.6288Z" fill="white"/>
<path fill-rule="evenodd" clip-rule="evenodd" d="M108.563 101.114C105.927 100.961 103.328 100.446 100.834 99.5816L83.7084 144.197C82.4806 144.266 81.2451 144.306 80.0001 144.306C79.0764 144.306 78.1565 144.285 77.2424 144.247L97.7057 98.285C95.3342 97.1318 93.1292 95.6554 91.1574 93.9035L50.25 137.01C48.2514 135.966 46.3084 134.821 44.4323 133.576L88.763 91.5072C87.0112 89.5355 85.5348 87.3304 84.3816 84.959L83.0849 81.8302C82.2205 79.3364 81.7061 76.7373 81.5531 74.102V70.715C81.7061 68.0758 82.2224 65.4749 83.0888 62.9772L19.9375 38.7349L20.6432 37.7442C21.6472 36.3347 22.701 34.9616 23.8026 33.6267L24.2577 33.0759L84.3873 59.8465C85.5424 57.4731 87.0208 55.2662 88.7764 53.2944L47.9321 14.5346L49.1828 13.9494C50.6114 13.2801 52.0591 12.6566 53.5279 12.0829L54.1169 11.8534L91.1727 50.9019C93.1464 49.1501 95.3553 47.6737 97.7286 46.5224L80.1723 7.09326L81.6563 7.12577C83.0161 7.15637 84.3758 7.21948 85.7318 7.32467L86.3246 7.37057L100.857 45.2277C103.353 44.3652 105.952 43.8526 108.589 43.7015L107.773 12.5495L109.129 13.1405C110.15 13.5861 111.162 14.0527 112.162 14.5442L112.703 14.81L111.946 43.7015C114.581 43.8545 117.18 44.369 119.674 45.2334L127.557 24.6974L128.575 25.6059C129.261 26.2198 129.94 26.8451 130.604 27.4839L131.08 27.9429L122.805 46.532C125.176 47.6852 127.381 49.1616 129.353 50.9134L140.472 39.1958L141.124 40.1922C141.554 40.852 141.979 41.5156 142.388 42.1888L142.782 42.8371L131.747 53.3078C133.499 55.2795 134.976 57.4846 136.129 59.8561L148.338 54.4189L148.68 55.3733C148.925 56.0579 149.16 56.7464 149.384 57.4368L149.661 58.2878L137.426 62.9848C138.29 65.4787 138.804 68.0777 138.957 70.7131L152.32 70.3631L152.421 71.2141C152.509 71.9428 152.584 72.6733 152.649 73.4058L152.742 74.4596L138.955 74.0981C138.802 76.7373 138.288 79.3383 137.42 81.8359L152.549 87.6441L152.467 88.3689C152.373 89.1798 152.27 89.9887 152.151 90.7958L151.97 92.0217L136.121 84.9666C134.966 87.3419 133.488 89.547 131.732 91.5187L141.017 100.329C140.539 101.762 140.013 103.173 139.439 104.56L129.336 93.9131C127.362 95.6649 125.155 97.1413 122.78 98.2926L131.675 118.27C130.632 119.674 129.537 121.034 128.385 122.348L119.649 99.5893C117.153 100.452 114.554 100.964 111.917 101.114L112.812 135.31C111.12 136.316 109.377 137.247 107.589 138.097L108.557 101.112L108.563 101.114ZM110.255 96.9252C123.795 96.9252 134.771 85.9496 134.771 72.4094C134.771 58.8692 123.795 47.8917 110.255 47.8917C96.715 47.8917 85.7375 58.8692 85.7375 72.4094C85.7375 85.9496 96.7131 96.9252 110.255 96.9252Z" fill="#FFCC00"/>
<path d="M15.3666 112.816L12.8231 113.963L12.213 112.609L13.5574 112.003L11.1611 106.688L17.5201 103.82L18.1798 105.283L13.02 107.61L14.2976 110.444L19.4574 108.117L20.1172 109.58L14.9574 111.907L15.3666 112.816ZM19.0538 119.31L17.9312 119.957L15.2366 115.275L21.2819 111.795L23.9115 116.363L22.7889 117.01L20.9586 113.831L19.6467 114.587L21.2627 117.394L20.1745 118.021L18.5585 115.214L17.1586 116.019L19.0519 119.31H19.0538ZM28.6926 122.73L23.2077 127.041L22.2094 125.771L24.4584 124.004L22.5001 121.512L20.251 123.279L19.2527 122.009L24.7358 117.698L25.7341 118.968L23.5711 120.668L25.5294 123.16L27.6924 121.46L28.6907 122.73H28.6926ZM32.8465 129.177L31.305 127.563L27.2105 131.472L26.1089 130.319L30.2035 126.411L28.6697 124.803L29.6202 123.895L33.797 128.27L32.8446 129.179L32.8465 129.177ZM37.1858 131.227C37.6525 131.631 37.991 132.059 38.2014 132.512C38.4117 132.965 38.4844 133.417 38.4232 133.862C38.362 134.31 38.1612 134.729 37.8227 135.121C37.488 135.507 37.1036 135.765 36.6676 135.893C36.2315 136.022 35.7745 136.014 35.2983 135.869C34.8221 135.725 34.3497 135.45 33.8811 135.046L32.8178 134.128L31.5594 135.584L30.3373 134.528L34.9005 129.251L37.1839 131.227H37.1858ZM34.6748 133.996C35.042 134.314 35.3881 134.476 35.7171 134.482C36.0441 134.49 36.3348 134.346 36.5872 134.056C36.8435 133.759 36.9449 133.449 36.8913 133.126C36.8378 132.803 36.6274 132.482 36.2602 132.166L35.2657 131.305L33.6822 133.138L34.6767 133.998L34.6748 133.996ZM44.9485 143.56L43.4606 145.886L42.2022 145.081L42.9806 143.865L38.8344 141.21L38.056 142.426L36.7976 141.621L38.2951 139.301L38.5303 139.452C38.8898 139.667 39.3029 139.569 39.7715 139.158C40.2381 138.747 40.7889 138.085 41.42 137.173L42.6631 135.377L47.1784 138.267L44.1262 143.035L44.9485 143.56V143.56ZM42.5388 138.066C42.0626 138.747 41.6304 139.296 41.2364 139.711C40.8444 140.126 40.4848 140.388 40.1559 140.493L42.7817 142.174L45.1245 138.515L43.1106 137.226L42.5369 138.066H42.5388ZM51.6804 146.718L51.1468 147.898L46.226 145.674L49.1005 139.317L53.9045 141.489L53.371 142.669L50.0299 141.158L49.4064 142.539L52.3574 143.874L51.8391 145.018L48.8882 143.683L48.2226 145.154L51.6823 146.718H51.6804ZM60.2596 145.22L58.1464 144.499L56.32 149.856L54.8111 149.342L56.6374 143.985L54.5337 143.268L54.9583 142.023L60.6823 143.975L60.2577 145.22H60.2596ZM63.5778 152.035C62.8854 151.874 62.2926 151.579 61.803 151.149C61.3134 150.719 60.9692 150.2 60.7722 149.592C60.5752 148.984 60.5542 148.343 60.7091 147.67C60.864 146.997 61.1642 146.431 61.6079 145.97C62.0516 145.509 62.589 145.194 63.2182 145.022C63.8474 144.849 64.5129 144.844 65.211 145.006C65.8 145.142 66.3087 145.368 66.7371 145.685C67.1655 146.003 67.4964 146.393 67.7297 146.856L66.5038 147.556C66.1672 146.919 65.6585 146.521 64.9796 146.364C64.5588 146.267 64.1611 146.272 63.79 146.381C63.4171 146.49 63.1015 146.687 62.8395 146.974C62.5794 147.261 62.3997 147.617 62.3021 148.037C62.2046 148.458 62.2103 148.854 62.3194 149.227C62.4284 149.6 62.6253 149.916 62.9141 150.178C63.201 150.438 63.5548 150.617 63.9775 150.715C64.6564 150.872 65.2894 150.734 65.8727 150.304L66.6683 151.468C66.2533 151.788 65.7828 151.996 65.2569 152.094C64.7291 152.189 64.1725 152.17 63.5835 152.035H63.5778ZM71.6005 150.455L70.4932 150.315L70.1432 153.104L68.5521 152.903L69.4222 145.982L71.0134 146.182L70.6615 148.98L71.809 149.124L73.9796 146.555L75.6702 146.768L72.9851 149.824L74.8689 153.696L73.0502 153.467L71.6005 150.453V150.455ZM80.0631 153.907C79.3383 153.926 78.6823 153.788 78.0933 153.49C77.5043 153.193 77.0376 152.775 76.6953 152.235C76.3511 151.696 76.1713 151.084 76.1541 150.401C76.1369 149.717 76.2841 149.097 76.5978 148.54C76.9114 147.984 77.3551 147.542 77.9288 147.215C78.5026 146.888 79.1509 146.714 79.8738 146.695C80.5986 146.676 81.2527 146.814 81.8379 147.112C82.4231 147.408 82.8897 147.827 83.2359 148.366C83.5821 148.906 83.7656 149.518 83.7829 150.2C83.8001 150.885 83.6509 151.505 83.3334 152.061C83.016 152.618 82.5723 153.06 82.0024 153.389C81.4325 153.716 80.786 153.89 80.0631 153.909V153.907ZM80.0268 152.532C80.438 152.52 80.8071 152.417 81.136 152.218C81.4631 152.019 81.7155 151.75 81.8972 151.405C82.077 151.061 82.1611 150.673 82.1496 150.243C82.1382 149.81 82.033 149.428 81.836 149.095C81.6371 148.762 81.3693 148.504 81.0327 148.324C80.6962 148.145 80.3213 148.059 79.9101 148.07C79.499 148.081 79.1279 148.185 78.8009 148.384C78.4739 148.583 78.2195 148.852 78.0398 149.196C77.86 149.541 77.7758 149.929 77.7873 150.359C77.7988 150.791 77.904 151.174 78.1029 151.507C78.3018 151.839 78.5695 152.098 78.9061 152.277C79.2427 152.457 79.6175 152.543 80.0287 152.532H80.0268ZM90.4172 147.341L87.1239 147.756L87.8411 153.371L86.2499 153.572L85.3798 146.651L90.2642 146.037L90.4191 147.343L90.4172 147.341ZM95.8141 152.199C95.1084 152.362 94.4372 152.358 93.8003 152.184C93.1635 152.01 92.6242 151.694 92.1786 151.233C91.7349 150.774 91.4365 150.21 91.2816 149.543C91.1267 148.875 91.1497 148.238 91.3466 147.63C91.5436 147.022 91.8898 146.5 92.387 146.066C92.8823 145.63 93.4848 145.331 94.1905 145.169C94.8962 145.006 95.5655 145.012 96.1985 145.186C96.8316 145.36 97.3728 145.678 97.8184 146.137C98.2659 146.596 98.5662 147.158 98.7211 147.825C98.876 148.493 98.853 149.13 98.6522 149.738C98.4514 150.346 98.1053 150.868 97.6118 151.302C97.1184 151.736 96.5198 152.035 95.8141 152.199V152.199ZM95.5043 150.858C95.9059 150.765 96.2463 150.589 96.5275 150.331C96.8086 150.072 97.0018 149.755 97.1108 149.382C97.2179 149.009 97.2236 148.613 97.128 148.192C97.0305 147.772 96.8526 147.418 96.5906 147.129C96.3305 146.842 96.0169 146.643 95.6497 146.532C95.2825 146.423 94.9 146.414 94.4984 146.508C94.0967 146.601 93.7563 146.777 93.4752 147.035C93.1941 147.295 92.999 147.611 92.8919 147.984C92.7829 148.357 92.7791 148.753 92.8747 149.173C92.9722 149.594 93.1501 149.948 93.4121 150.235C93.6722 150.522 93.9858 150.721 94.353 150.832C94.7183 150.941 95.1027 150.95 95.5043 150.856V150.858ZM103.663 142.501C104.239 142.273 104.774 142.172 105.273 142.197C105.772 142.222 106.205 142.363 106.574 142.625C106.941 142.887 107.22 143.258 107.411 143.74C107.599 144.216 107.65 144.677 107.562 145.123C107.474 145.569 107.256 145.97 106.906 146.326C106.558 146.682 106.096 146.974 105.522 147.2L104.216 147.716L104.923 149.504L103.422 150.099L100.855 143.612L103.663 142.501V142.501ZM104.954 146.008C105.405 145.831 105.709 145.597 105.866 145.31C106.023 145.023 106.032 144.7 105.891 144.343C105.747 143.977 105.518 143.746 105.206 143.643C104.894 143.541 104.514 143.58 104.063 143.757L102.839 144.241L103.73 146.492L104.954 146.008V146.008ZM114.279 143.683L111.395 145.155L111.525 146.768L110.052 147.519L109.649 139.892L111.068 139.168L117.019 143.962L115.511 144.733L114.281 143.683H114.279ZM113.269 142.822L111.07 140.948L111.299 143.83L113.269 142.824V142.822ZM120.108 137.622C120.525 137.521 120.909 137.532 121.261 137.657C121.613 137.781 121.896 138.009 122.109 138.339C122.338 138.697 122.42 139.083 122.353 139.496C122.286 139.91 122.099 140.315 121.789 140.711C121.479 141.107 121.087 141.459 120.611 141.763C120.208 142.021 119.775 142.229 119.311 142.384C118.846 142.541 118.37 142.629 117.878 142.652L117.674 141.411C118.031 141.401 118.391 141.338 118.754 141.22C119.116 141.101 119.446 140.948 119.741 140.757C120.142 140.499 120.431 140.212 120.603 139.896C120.776 139.581 120.777 139.292 120.609 139.028C120.47 138.81 120.273 138.703 120.018 138.709C119.764 138.712 119.481 138.816 119.169 139.018L117.735 139.94L117.077 138.917L118.41 138.06C118.683 137.884 118.861 137.691 118.943 137.481C119.026 137.27 119.003 137.068 118.878 136.871C118.731 136.641 118.505 136.534 118.203 136.547C117.899 136.561 117.574 136.679 117.228 136.901C116.97 137.066 116.727 137.272 116.499 137.517C116.27 137.764 116.079 138.035 115.922 138.332L114.832 137.54C115.247 136.823 115.817 136.232 116.538 135.769C116.997 135.475 117.461 135.27 117.934 135.157C118.406 135.044 118.838 135.042 119.232 135.151C119.626 135.26 119.934 135.486 120.152 135.828C120.332 136.108 120.416 136.404 120.405 136.72C120.393 137.035 120.296 137.335 120.108 137.62V137.622ZM126.381 132.642C126.784 132.459 127.165 132.401 127.523 132.47C127.88 132.539 128.196 132.73 128.471 133.046C128.877 133.512 129.014 134.031 128.886 134.599C128.758 135.167 128.366 135.735 127.708 136.305L125.111 138.556L120.542 133.285L122.998 131.156C123.61 130.625 124.189 130.33 124.734 130.271C125.279 130.211 125.742 130.399 126.121 130.837C126.347 131.097 126.48 131.384 126.522 131.696C126.565 132.007 126.517 132.323 126.381 132.642V132.642ZM123.648 134.419L124.786 133.434C125.052 133.203 125.207 132.975 125.249 132.749C125.291 132.524 125.22 132.306 125.038 132.095C124.861 131.889 124.654 131.791 124.421 131.801C124.187 131.81 123.939 131.927 123.679 132.155L122.541 133.139L123.65 134.419H123.648ZM126.882 135.44C127.454 134.945 127.546 134.471 127.154 134.019C126.775 133.583 126.299 133.612 125.727 134.107L124.386 135.268L125.541 136.601L126.882 135.44V135.44ZM126.48 128.081L127.588 126.92L130.875 130.058L129.886 124.512L130.933 123.417L135.978 128.232L134.876 129.385L131.596 126.255L132.577 131.793L131.525 132.897L126.478 128.079L126.48 128.081ZM136.582 118.28L135.203 120.035L139.653 123.533L138.668 124.786L134.218 121.288L132.845 123.034L131.81 122.221L135.549 117.467L136.584 118.28H136.582ZM136.127 116.463L136.928 115.072L140.864 117.343L138.59 112.188L139.347 110.877L145.391 114.361L144.595 115.742L140.667 113.477L142.933 118.626L142.172 119.947L136.129 116.463H136.127ZM142.578 103.835L148.935 106.709L148.279 108.163L146.59 107.4L145.982 108.744L147.162 110.634L146.46 112.187L145.144 109.995C144.775 110.345 144.36 110.555 143.903 110.626C143.444 110.697 142.968 110.618 142.47 110.395C141.981 110.173 141.608 109.871 141.355 109.486C141.103 109.102 140.973 108.662 140.969 108.163C140.965 107.666 141.088 107.138 141.34 106.581L142.579 103.839L142.578 103.835ZM142.553 107.082C142.363 107.499 142.316 107.863 142.409 108.172C142.503 108.48 142.74 108.721 143.123 108.893C143.492 109.06 143.824 109.083 144.119 108.962C144.415 108.84 144.656 108.574 144.842 108.163L145.425 106.874L143.119 105.831L142.553 107.084V107.082Z" fill="white"/>
<path d="M40.7988 60.4355C41.8391 62.2045 43.7956 64.0998 45.7845 64.729C46.0312 64.8074 46.0829 64.9068 46.19 65.1956C46.538 66.1423 45.9127 67.1215 45.5837 67.5919C45.2433 68.0777 44.0691 69.3342 43.4532 69.7415C43.0918 69.9806 41.9998 70.474 42.2407 71.0707C42.4626 71.6215 44.0442 71.6024 44.7193 71.5641C46.1211 71.4857 47.1825 71.2715 48.504 70.9502L48.3855 71.1032C48.2497 71.2294 48.1502 71.2811 48.0948 71.4857C47.7524 72.7135 50.7474 72.352 50.7148 71.2658C50.6976 70.648 49.9499 70.6939 49.7338 70.6347L49.6668 70.6098C50.4528 70.3803 52.4647 69.5905 52.8644 68.9039C53.1647 68.3894 52.6464 68.2288 52.3519 68.0987C51.9446 67.9171 49.7873 65.1995 49.5291 64.729C50.3878 64.4785 51.2255 63.9965 51.8814 63.5356C52.0536 63.4151 53.6046 62.2734 53.6371 61.9808L51.8489 62.4991C49.7949 63.0307 47.0315 63.2851 45.1649 62.8969C43.4513 62.5411 42.1585 61.9272 41.0244 60.6134C40.8867 60.4546 40.8982 60.4355 40.8026 60.4374L40.7988 60.4355ZM23.0091 64.3121C22.8389 66.3565 21.8998 68.9134 20.3794 70.344C20.1901 70.5218 20.1882 70.6327 20.2169 70.9407C20.3144 71.9447 21.3032 72.5548 21.8042 72.8359C22.3206 73.1247 23.9251 73.7481 24.6557 73.8476C25.0841 73.905 26.2832 73.8782 26.3253 74.5189C26.3635 75.1098 24.9311 75.7811 24.3057 76.0393C23.0091 76.5767 21.961 76.8444 20.6281 77.1294L20.8002 77.2154C20.978 77.2709 21.089 77.2747 21.2286 77.4334C22.0701 78.3916 19.2167 79.365 18.773 78.3725C18.5205 77.8083 19.2128 77.5252 19.3831 77.378L19.4328 77.3263C18.6257 77.4621 16.4704 77.6228 15.8125 77.1772C15.3191 76.8425 15.7169 76.4753 15.9253 76.2286C16.2122 75.8882 16.9791 72.5031 17.0059 71.9676C16.1223 72.1149 15.1603 72.0441 14.3686 71.9122C14.1601 71.8778 12.2687 71.5239 12.1119 71.2734L13.9479 70.9636C16.0286 70.5524 18.6295 69.5809 20.1423 68.4219C21.5307 67.3586 22.4296 66.2437 22.8829 64.5683C22.9383 64.3656 22.9192 64.3541 23.0072 64.3121H23.0091ZM21.8329 77.9995C21.4619 77.4143 22.267 76.8693 22.7758 76.7067C23.4241 76.5002 24.2866 76.5499 24.5486 76.9955C25.1816 78.0722 22.4755 79.0112 21.8329 77.9995ZM19.0044 66.8977C18.1935 67.8348 16.8146 68.181 15.8775 68.6285C16.3346 69.0837 17.1876 69.6038 17.9544 68.8522C18.6965 68.1255 18.8954 67.0966 19.0044 66.8977ZM22.6304 64.3102C22.5405 64.5722 22.0758 64.838 21.7526 64.6831C21.7755 65.0847 21.8941 65.1344 22.0777 65.341C21.7258 65.4232 21.6627 65.2855 21.4256 65.2186C21.4619 65.3735 21.4944 65.5016 21.4963 65.6546C21.5021 65.9377 21.4695 65.9243 21.395 65.9893C21.2993 65.4404 21.2362 65.0981 20.6854 65.1497C20.6931 65.0235 20.7352 65.0943 20.7428 64.9948C20.454 64.7883 20.6472 64.3446 20.7046 64.1266C20.4885 63.92 19.6929 63.2487 19.2664 63.7192C19.0751 63.9296 18.8457 64.6965 19.0254 64.8973L19.3199 65.1899C20.0735 65.9893 19.997 67.5346 19.1746 68.4143C17.9411 69.7301 15.6786 69.8467 14.5331 68.4219C14.0186 67.7813 14.076 67.3892 14.0186 66.5707C13.6304 66.5802 13.1198 66.1404 12.743 66.2685C12.8291 66.6529 12.7602 66.4617 12.9381 66.7199C12.6703 66.8155 12.5996 67.0469 12.611 67.3299C12.6263 67.6665 12.766 67.984 12.7832 68.116C12.7851 68.1255 12.7851 68.1351 12.7851 68.1446L12.7774 68.225C12.5441 68.0567 12.46 67.548 12.3777 67.242C12.3988 67.5613 12.2266 67.9381 11.9627 68.0643C11.9665 67.7947 12.0622 67.8291 11.9321 67.4409C11.6127 67.8176 11.2723 67.7105 10.9472 67.5365C11.0065 67.4562 10.9453 67.4944 11.1442 67.4848C11.2704 67.4791 11.322 67.4676 11.4387 67.4122C11.9015 67.1961 11.5841 66.8805 12.219 66.2876C13.0566 65.5054 13.9804 66.1327 14.1353 66.1576L14.3093 65.6967C14.3246 65.6661 14.3284 65.6642 14.3456 65.6336L14.9366 64.9241C15.0188 64.8629 15.036 64.8686 15.0972 64.8303C15.3459 64.6716 15.1718 64.7041 15.8048 64.423C16.2179 64.2394 16.8127 64.1419 17.2851 64.1782C17.8129 64.2203 18.1151 64.3446 18.5511 64.5339C18.641 64.291 18.4402 63.5815 18.8763 63.2143C19.2817 62.872 19.9205 63.1302 20.2322 63.2679C20.6682 63.4591 20.9647 63.681 21.3548 63.9066C21.5499 64.0195 21.7105 64.1055 21.9343 64.1897C22.3971 64.3675 22.4831 64.2547 22.6247 64.3044L22.6304 64.3102ZM26.1646 67.0086L26.1474 66.9341C26.2698 66.9723 26.3234 67.0507 26.4419 67.1253C28.2569 68.2766 30.7048 67.6646 32.5255 66.8537C34.1912 66.1117 35.7422 64.9642 37.1154 63.8148C37.2856 63.6714 37.5418 63.4362 37.7025 63.3252C37.6183 63.6179 37.1383 64.2298 36.9585 64.5091C36.817 64.729 36.6946 64.8782 36.5454 65.0732C36.1094 65.6451 35.6715 66.1786 35.1417 66.695C34.6521 67.1712 34.4915 67.2726 34.0401 67.6818C34.7286 68.4124 35.2125 69.3438 35.0805 70.5543C34.9734 71.545 34.4781 72.3788 33.4779 72.7594C33.9369 72.7785 34.9046 72.7537 34.9983 73.6009C35.1379 74.8803 32.4126 75.4674 32.0512 74.2339C31.8504 73.5492 32.5044 73.0864 33.1317 72.8416C32.2386 72.8359 31.619 72.614 31.0108 71.8586C30.2764 70.9464 30.2783 70.1623 30.286 69.1869C29.7696 69.0454 29.3642 69.2806 27.9796 68.5137C26.9698 67.9534 26.3272 67.1157 26.1627 67.0106L26.1646 67.0086ZM37.8364 72.9908C37.8555 74.4156 35.1436 74.7369 35.069 73.2413C34.9964 71.8051 37.8153 71.4589 37.8364 72.9908ZM29.4101 64.0156C29.739 64.6525 30.3663 65.4538 30.9381 65.821C32.2788 66.6835 32.426 63.6886 32.4604 62.7764C32.2807 62.9102 32.3801 62.9963 31.9881 63.3826C31.2537 64.1036 30.3261 64.1361 29.4101 64.0176V64.0156ZM30.5939 59.835C32.6383 59.6744 34.1606 61.2082 34.153 63.0594C34.1472 64.6965 32.9328 66.4387 30.875 66.63C29.1461 66.7906 27.314 65.5418 27.3102 63.4228C27.3083 61.7857 28.5342 59.9976 30.5939 59.835V59.835ZM47.7983 72.2583C47.8787 71.5698 46.9167 71.4283 46.387 71.5029C45.7138 71.5985 44.9583 72.0174 44.9144 72.5318C44.8111 73.7749 47.6568 73.4479 47.7983 72.2583V72.2583ZM45.5283 61.0284C46.6662 61.5218 48.0584 61.2349 49.095 61.2311C48.8808 61.8393 48.3377 62.6788 47.3221 62.3346C46.3391 62.0018 45.7138 61.1603 45.5283 61.0303V61.0284ZM41.1373 60.2691C41.3323 60.4661 41.8659 60.5044 42.0897 60.2232C42.2427 60.5943 42.1585 60.6918 42.082 60.9576C42.4358 60.8792 42.432 60.7281 42.6175 60.5637C42.65 60.7186 42.6787 60.8467 42.7418 60.9882C42.8604 61.2445 42.8833 61.2196 42.979 61.2464C42.826 60.7109 42.7342 60.3762 43.2543 60.1812C43.1912 60.0702 43.1855 60.1525 43.1358 60.0664C43.3041 59.7547 42.9388 59.4391 42.7934 59.2689C42.8986 58.9897 43.3232 58.0392 43.9122 58.2783C44.1762 58.3854 44.7155 58.9763 44.6409 59.2364L44.5013 59.6266C44.1685 60.6727 44.9086 62.0324 46.0331 62.4685C47.7142 63.1187 49.8045 62.2428 50.2195 60.4623C50.405 59.6629 50.1832 59.3339 49.8791 58.5728C50.2329 58.4121 50.5026 57.7944 50.8965 57.7485C50.9864 58.1329 50.9654 57.9302 50.9176 58.24C51.2006 58.2094 51.3651 58.3873 51.476 58.6474C51.608 58.9572 51.6194 59.3034 51.6615 59.4315C51.6634 59.4391 51.6692 59.4506 51.6711 59.4583L51.7131 59.5271C51.8489 59.2747 51.7055 58.7793 51.6481 58.4676C51.7686 58.764 52.0861 59.0299 52.3787 59.0299C52.2582 58.7889 52.1874 58.8597 52.1358 58.4542C52.5871 58.655 52.8472 58.4102 53.0653 58.1138C52.9773 58.066 53.048 58.0755 52.8644 58.154C52.7478 58.2037 52.6961 58.2152 52.568 58.2171C52.0574 58.2228 52.2066 57.8021 51.3766 57.542C50.2826 57.2016 49.7223 58.1673 49.5922 58.2553L49.2365 57.9168C49.2097 57.8958 49.2059 57.8958 49.1753 57.8747L48.3338 57.4923C48.2344 57.4731 48.2191 57.4865 48.1483 57.477C47.8538 57.4425 48.0259 57.3966 47.3336 57.4177C46.8823 57.4311 46.3028 57.6013 45.8935 57.8403C45.4365 58.1081 45.2184 58.3509 44.9067 58.7086C44.7193 58.5288 44.5931 57.8021 44.0404 57.6605C43.5278 57.5286 43.0631 58.0392 42.8413 58.2974C42.5314 58.6588 42.3612 58.9878 42.1069 59.3607C41.9807 59.5462 41.8716 59.6935 41.7091 59.8675C41.3687 60.229 41.2424 60.164 41.1353 60.2711L41.1373 60.2691Z" fill="white"/>
</g>
<defs>
<clipPath id="clip0">
<rect width="160" height="160" fill="white"/>
</clipPath>
</defs>
</svg>
