<svg width="53" height="60" viewBox="0 0 53 60" fill="none" xmlns="http://www.w3.org/2000/svg">
<g clip-path="url(#clip0)">
<path fill-rule="evenodd" clip-rule="evenodd" d="M40.685 32.5685V16.4384C40.685 8.42466 34.2124 1.95206 26.1987 1.95206C18.185 1.95206 11.6096 8.42466 11.6096 16.4384V32.4658C11.6096 36.3699 10.0685 39.9658 7.29456 42.5342C7.91099 43.0479 8.93839 43.8699 10.0685 44.589L19.5206 40.6849C20.6507 40.274 21.3699 39.1438 21.3699 38.0137V37.2945C16.6439 34.0069 13.6644 28.5616 13.6644 22.5C13.6644 18.3904 16.2329 14.7945 20.137 13.4589L20.548 13.3562L23.9384 15.411C28.1507 17.9795 32.9795 19.2123 37.8082 19.2123H38.7329V22.6027C38.7329 28.6644 35.7535 34.1096 31.0274 37.3973V38.1164C31.0274 39.3493 31.7466 40.3767 32.8767 40.7877L42.3288 44.6918C43.4589 43.9726 44.4863 43.2534 45.1028 42.637C42.2261 39.9658 40.685 36.3699 40.685 32.5685ZM36.1644 12.9452C34.5206 8.73288 31.4384 6.36986 27.0206 5.85617C26.5069 5.75343 26.0959 5.44521 26.0959 4.93151C26.0959 4.31507 26.6096 3.90411 27.2261 4.00685C32.2603 4.52055 36.0617 7.39726 38.0137 12.3288C38.2192 12.8425 37.911 13.4589 37.3973 13.6644C36.8836 13.6644 36.3699 13.4589 36.1644 12.9452ZM37.7055 17.363C37.1918 17.363 36.7808 16.9521 36.7808 16.4384C36.7808 15.9247 37.1918 15.5137 37.7055 15.5137C38.2192 15.5137 38.6302 15.9247 38.6302 16.4384C38.6302 16.9521 38.2192 17.363 37.7055 17.363Z" fill="#00A4B5"/>
<path d="M21.3699 24.7603C22.1643 24.7603 22.8082 24.1163 22.8082 23.3219C22.8082 22.5275 22.1643 21.8835 21.3699 21.8835C20.5755 21.8835 19.9315 22.5275 19.9315 23.3219C19.9315 24.1163 20.5755 24.7603 21.3699 24.7603Z" fill="#003333"/>
<path d="M30.9247 24.7603C31.7191 24.7603 32.363 24.1163 32.363 23.3219C32.363 22.5275 31.7191 21.8835 30.9247 21.8835C30.1303 21.8835 29.4863 22.5275 29.4863 23.3219C29.4863 24.1163 30.1303 24.7603 30.9247 24.7603Z" fill="#003333"/>
<path fill-rule="evenodd" clip-rule="evenodd" d="M36.1644 12.9452C34.5206 8.73288 31.4384 6.36987 27.0206 5.85617C26.5069 5.75343 26.0959 5.44521 26.0959 4.93151C26.0959 4.31507 26.6096 3.90411 27.2261 4.00685C32.2603 4.52055 36.0617 7.39726 38.0138 12.3288C38.2192 12.8425 37.911 13.4589 37.3973 13.6644C36.8836 13.6644 36.3699 13.4589 36.1644 12.9452Z" fill="#003333"/>
<path d="M37.7054 17.363C38.2161 17.363 38.6301 16.949 38.6301 16.4384C38.6301 15.9277 38.2161 15.5137 37.7054 15.5137C37.1947 15.5137 36.7808 15.9277 36.7808 16.4384C36.7808 16.949 37.1947 17.363 37.7054 17.363Z" fill="#003333"/>
<path fill-rule="evenodd" clip-rule="evenodd" d="M44.3836 45.6164C46.0274 44.4863 47.1575 43.3562 47.2603 43.3562L47.9795 42.637L47.1575 41.9178C44.2808 39.6575 42.637 36.2671 42.637 32.5685V16.4384C42.637 7.39726 35.2397 0 26.1986 0C17.1575 0 9.76027 7.39726 9.76027 16.4384V32.4658C9.76027 36.0616 8.11644 39.5548 5.23973 41.8151L4.41781 42.5342L5.13699 43.2534C5.23973 43.3562 6.26712 44.3836 8.0137 45.5137C3.08219 48.2877 0 53.4247 0 59.0753V60H52.2945V59.0753C52.2945 53.4247 49.2123 48.2877 44.3836 45.6164ZM11.6096 32.5685V16.4384C11.6096 8.42466 18.0822 1.95205 26.0959 1.95205C34.1096 1.95205 40.6849 8.42466 40.6849 16.4384V32.4658C40.6849 36.3699 42.226 39.9658 45 42.5342C44.3836 43.0479 43.3562 43.8699 42.226 44.589L32.774 40.6849C31.6438 40.274 30.9247 39.1438 30.9247 38.0137V37.2945C35.6507 34.0068 38.6301 28.5616 38.6301 22.5V19.2123H37.7055C32.774 19.2123 28.0479 17.8767 23.8356 15.411L20.4452 13.3562L20.0342 13.4589C16.1301 14.7945 13.5616 18.3904 13.5616 22.5C13.5616 28.4589 16.5411 34.0068 21.2671 37.2945V38.0137C21.2671 39.2466 20.5479 40.274 19.4178 40.6849L9.96575 44.589C8.83562 43.8699 7.80822 43.1507 7.19178 42.5342C10.0685 39.9658 11.6096 36.3699 11.6096 32.5685ZM15.5137 44.4863V52.2945H13.5616V45.3082L15.5137 44.4863ZM26.1986 37.7055C19.8288 35.4452 15.5137 29.3836 15.5137 22.6027C15.5137 19.5205 17.363 16.7466 20.2397 15.6164L22.911 17.1575C27.1233 19.726 31.9521 21.0616 36.8836 21.2671V22.6027C36.7808 29.3836 32.5685 35.4452 26.1986 37.7055ZM26.1986 39.7603C26.1986 39.7603 28.2534 38.9384 29.1781 38.5274C29.2808 39.2466 29.4863 39.9658 29.7945 40.5822L26.1986 44.1781L22.6027 40.5822C22.911 39.9658 23.2192 39.2466 23.2192 38.5274C24.0411 38.9384 26.1986 39.7603 26.1986 39.7603ZM17.4658 52.2945V44.2808L18.3904 45.9247C19.2123 47.4658 20.8562 48.3904 22.6027 48.3904C23.8356 48.3904 25.1712 47.8767 25.9932 46.9521L26.0959 46.8493L26.1986 46.9521C27.1233 47.8767 28.3562 48.3904 29.589 48.3904C31.3356 48.3904 32.9795 47.4658 33.8014 45.9247L34.726 44.2808V52.2945H17.4658ZM32.2603 45C31.7466 45.9247 30.7192 46.4384 29.6918 46.4384C28.9726 46.4384 28.1507 46.1301 27.637 45.6164L27.5342 45.5137L31.0274 42.0205C31.3356 42.226 31.6438 42.4315 32.0548 42.637L33.2877 43.1507L32.2603 45ZM21.2671 42.0205L24.7603 45.5137L24.6575 45.6164C24.1438 46.1301 23.3219 46.4384 22.6027 46.4384C21.5753 46.4384 20.5479 45.9247 20.0342 45L18.9041 43.0479L20.137 42.5342C20.6507 42.4315 20.9589 42.226 21.2671 42.0205ZM12.0205 54.2466H40.1712C40.5822 54.2466 40.9932 54.5548 41.0959 54.863L42.1233 58.0479H10.0685L11.0959 54.863C11.3014 54.4521 11.6096 54.2466 12.0205 54.2466ZM38.7329 52.2945H36.7808V44.4863L38.7329 45.3082V52.2945ZM10.274 46.6438L11.6096 46.1301V52.3973C10.5822 52.6027 9.65753 53.3219 9.24658 54.3493L8.0137 58.1507H1.95205C2.36301 53.0137 5.54795 48.5959 10.274 46.6438ZM44.2808 58.1507L43.0479 54.3493C42.7397 53.3219 41.8151 52.6027 40.6849 52.3973V46.1301L42.0205 46.6438C46.8493 48.5959 50.0342 53.0137 50.3425 58.1507H44.2808Z" fill="#003333"/>
<path fill-rule="evenodd" clip-rule="evenodd" d="M30.5137 30.7192C30.2055 30.3082 29.6918 30.2055 29.2808 30.5137C27.4315 31.8493 24.9657 31.8493 23.1164 30.5137C22.7055 30.2055 22.1918 30.3082 21.8836 30.7192C21.5753 31.1301 21.6781 31.6438 22.089 31.952C23.3219 32.774 24.7603 33.2877 26.1986 33.2877C27.637 33.2877 29.0753 32.774 30.3082 31.952C30.6164 31.6438 30.7192 31.1301 30.5137 30.7192Z" fill="#003333"/>
</g>
<defs>
<clipPath id="clip0">
<rect width="52.2945" height="60" fill="white"/>
</clipPath>
</defs>
</svg>
