<svg width="65" height="60" viewBox="0 0 65 60" fill="none" xmlns="http://www.w3.org/2000/svg">
<g clip-path="url(#clip0)">
<path d="M60.6925 20.1469H38.5057C38.3043 24.2896 36.9821 28.2812 34.7156 31.744C34.7408 31.7566 34.7534 31.7692 34.7786 31.7943C35.4711 32.3987 36.3525 32.7387 37.2717 32.7387C38.1909 32.7387 39.085 32.3987 39.7649 31.7943C40.2812 31.3284 41.0871 31.3788 41.5404 31.9077C41.9937 32.4365 41.9559 33.2298 41.427 33.6831C40.2812 34.7031 38.7953 35.2571 37.2591 35.2571C35.7733 35.2571 34.3504 34.7408 33.2172 33.7838C31.8698 35.446 30.2833 36.957 28.4952 38.2665C29.0871 46.0735 34.2371 53.1123 41.7922 56.3484L43.6936 57.1669C44.6379 57.5698 45.7208 57.5698 46.6652 57.1669L48.5666 56.3484C56.5498 52.9234 61.9139 45.0158 61.9139 36.6674V21.4061C61.9517 20.7135 61.3851 20.1469 60.6925 20.1469ZM47.7229 22.6653H55.278C55.9706 22.6653 56.5372 23.2319 56.5372 23.9245C56.5372 24.617 55.9706 25.1836 55.278 25.1836H47.7229C47.0304 25.1836 46.4638 24.617 46.4638 23.9245C46.4638 23.2319 47.0304 22.6653 47.7229 22.6653ZM41.427 23.9245C41.427 23.2319 41.9937 22.6653 42.6862 22.6653C43.3788 22.6653 43.9454 23.2319 43.9454 23.9245C43.9454 24.617 43.3788 25.1836 42.6862 25.1836C41.9937 25.1836 41.427 24.617 41.427 23.9245ZM52.7597 50.3673H37.6495C36.9569 50.3673 36.3903 49.8006 36.3903 49.1081C36.3903 44.2476 40.3441 40.2938 45.2046 40.2938C50.065 40.2938 54.0188 44.2476 54.0188 49.1081C54.0188 49.8006 53.4522 50.3673 52.7597 50.3673ZM56.9276 33.6831C55.7817 34.7031 54.2959 35.2571 52.7597 35.2571C51.2235 35.2571 49.7502 34.7031 48.5918 33.6831C48.0755 33.2172 48.0251 32.4239 48.4784 31.9077C48.9443 31.3914 49.7376 31.341 50.2539 31.7943C50.9464 32.3987 51.8279 32.7387 52.7471 32.7387C53.6663 32.7387 54.5603 32.3987 55.2403 31.7943C55.7565 31.3284 56.5624 31.3788 57.0157 31.9077C57.4942 32.4239 57.4438 33.2172 56.9276 33.6831Z" fill="#00A4B5"/>
<path d="M42.6863 25.1836C43.3817 25.1836 43.9455 24.6199 43.9455 23.9245C43.9455 23.229 43.3817 22.6653 42.6863 22.6653C41.9909 22.6653 41.4271 23.229 41.4271 23.9245C41.4271 24.6199 41.9909 25.1836 42.6863 25.1836Z" fill="#003333"/>
<path d="M9.19204 7.55511C9.88459 7.55511 10.4512 6.98847 10.4512 6.29592C10.4512 5.60337 9.88459 5.03674 9.19204 5.03674C8.49949 5.03674 7.93286 5.60337 7.93286 6.29592C7.93286 6.98847 8.49949 7.55511 9.19204 7.55511Z" fill="#003333"/>
<path d="M60.6925 17.6285H38.531V3.77754C38.531 1.6999 36.8311 0 34.7534 0H3.77754C1.6999 0 0 1.6999 0 3.77754V19.0514C0 28.5708 6.01889 37.2466 14.8835 41.0367L16.7849 41.8552C18.3589 42.5351 20.1721 42.5351 21.7461 41.8552L23.6474 41.0367C24.5037 40.6716 25.3347 40.256 26.1406 39.8027C27.2613 47.9874 32.8395 55.2529 40.8101 58.6653L42.7114 59.4837C44.2854 60.1637 46.0986 60.1637 47.6726 59.4837L49.574 58.6653C58.4638 54.8751 64.4701 46.1868 64.4701 36.68V21.4061C64.4701 19.3284 62.7702 17.6285 60.6925 17.6285ZM22.6653 38.7324L20.7639 39.5509C19.8195 39.9538 18.7366 39.9538 17.7922 39.5509L15.8909 38.7324C7.90766 35.3074 2.54355 27.3998 2.54355 19.0514V3.77754C2.54355 3.08499 3.11018 2.51836 3.80273 2.51836H34.7786C35.4711 2.51836 36.0378 3.08499 36.0378 3.77754V19.0514C36.0126 27.6516 30.5352 35.3578 22.6653 38.7324ZM61.9517 36.68C61.9517 45.0283 56.5876 52.936 48.6044 56.361L46.703 57.1794C45.7587 57.5824 44.6758 57.5824 43.7314 57.1794L41.83 56.361C34.2875 53.1249 29.1249 46.0735 28.5331 38.2791C30.3211 36.9822 31.9077 35.4711 33.255 33.7964C34.3882 34.7408 35.8111 35.2697 37.297 35.2697C38.8332 35.2697 40.3064 34.7156 41.4648 33.6957C41.9811 33.2298 42.0315 32.4365 41.5782 31.9203C41.1123 31.404 40.319 31.3536 39.8027 31.8069C39.1102 32.4113 38.2287 32.7513 37.3095 32.7513C36.3903 32.7513 35.4963 32.4113 34.8164 31.8069C34.8038 31.7943 34.7786 31.7817 34.7534 31.7566C37.0073 28.2812 38.3421 24.2896 38.5435 20.1595H60.6925C61.3851 20.1595 61.9517 20.7261 61.9517 21.4187V36.68Z" fill="#003333"/>
<path d="M26.8205 22.6653H11.7104C11.0178 22.6653 10.4512 23.2319 10.4512 23.9245C10.4512 28.7849 14.405 32.7387 19.2654 32.7387C24.1259 32.7387 28.0797 28.7849 28.0797 23.9245C28.0797 23.2319 27.5131 22.6653 26.8205 22.6653ZM19.2654 30.2204C16.2308 30.2204 13.6873 28.0546 13.0955 25.1836H25.4354C24.8436 28.0546 22.3001 30.2204 19.2654 30.2204Z" fill="#003333"/>
<path d="M11.7104 15.1102C12.6296 15.1102 13.5236 15.4501 14.2036 16.0545C14.7198 16.5204 15.5257 16.4575 15.979 15.9412C16.4449 15.425 16.3945 14.6191 15.8657 14.1658C14.7198 13.1458 13.234 12.5918 11.6978 12.5918C10.1616 12.5918 8.68834 13.1458 7.5299 14.1658C7.01363 14.6317 6.96326 15.425 7.41657 15.9412C7.86987 16.4575 8.67575 16.5078 9.19202 16.0545C9.89716 15.4501 10.7912 15.1102 11.7104 15.1102Z" fill="#003333"/>
<path d="M22.6526 14.1658C22.1363 14.6317 22.0859 15.4249 22.5393 15.9412C23.0051 16.4575 23.7984 16.5078 24.3147 16.0545C25.0072 15.4501 25.8887 15.1102 26.8079 15.1102C27.7271 15.1102 28.6211 15.4501 29.3011 16.0545C29.8299 16.5204 30.6232 16.4701 31.0765 15.9412C31.5424 15.4249 31.492 14.6191 30.9632 14.1658C29.8173 13.1458 28.3315 12.5918 26.7953 12.5918C25.2591 12.5918 23.811 13.1458 22.6526 14.1658Z" fill="#003333"/>
<path d="M14.2288 7.55511H29.339C30.0315 7.55511 30.5981 6.98847 30.5981 6.29592C30.5981 5.60337 30.0315 5.03674 29.339 5.03674H14.2288C13.5362 5.03674 12.9696 5.60337 12.9696 6.29592C12.9696 6.98847 13.5362 7.55511 14.2288 7.55511Z" fill="#003333"/>
<path d="M45.2047 40.2938C40.3442 40.2938 36.3904 44.2477 36.3904 49.1081C36.3904 49.8006 36.957 50.3673 37.6496 50.3673H52.7597C53.4523 50.3673 54.0189 49.8006 54.0189 49.1081C54.0189 44.2477 50.0651 40.2938 45.2047 40.2938ZM39.0347 47.8489C39.6265 44.978 42.17 42.8122 45.2047 42.8122C48.2393 42.8122 50.7828 44.978 51.3746 47.8489H39.0347Z" fill="#003333"/>
<path d="M56.9276 33.6831C55.7817 34.7031 54.2959 35.2571 52.7597 35.2571C51.2235 35.2571 49.7502 34.7031 48.5918 33.6831C48.0755 33.2172 48.0252 32.4239 48.4785 31.9077C48.9444 31.3914 49.7376 31.3411 50.2539 31.7944C50.9465 32.3988 51.8279 32.7387 52.7471 32.7387C53.6663 32.7387 54.5603 32.3988 55.2403 31.7944C55.7565 31.3285 56.5624 31.3788 57.0157 31.9077C57.4942 32.4239 57.4438 33.2172 56.9276 33.6831Z" fill="#003333"/>
<path d="M56.5372 23.9245C56.5372 24.617 55.9706 25.1836 55.278 25.1836H47.7229C47.0304 25.1836 46.4637 24.617 46.4637 23.9245C46.4637 23.2319 47.0304 22.6653 47.7229 22.6653H55.278C55.9706 22.6653 56.5372 23.2319 56.5372 23.9245Z" fill="#003333"/>
</g>
<defs>
<clipPath id="clip0">
<rect width="64.4701" height="60" fill="white"/>
</clipPath>
</defs>
</svg>
