<svg width="22" height="30" viewBox="0 0 22 30" fill="none" xmlns="http://www.w3.org/2000/svg">
<path d="M6.99981 9.20393V15.1594H9.09791V11.3696C9.09791 11.0706 9.33277 10.8282 9.62244 10.8282H12.7696C13.0593 10.8282 13.2941 11.0706 13.2941 11.3696V15.1594H15.3922V9.20393C15.3922 8.90494 15.6271 8.66252 15.9168 8.66252H16.4728L11.196 4.47322L5.91925 8.66252H6.47528C6.76495 8.66252 6.99981 8.90494 6.99981 9.20393Z" fill="#003333"/>
<path d="M10.1469 11.911H12.245V15.1594H10.1469V11.911Z" fill="#003333"/>
<path d="M11.196 30C13.1696 27.4563 21.6865 16.1719 21.6865 10.8281C21.6865 4.84782 16.9896 0 11.196 0C5.40211 0 0.705444 4.84782 0.705444 10.8281C0.705444 16.173 9.22209 27.4569 11.196 30ZM4.05724 8.77672L10.8761 3.36265C11.0646 3.21276 11.3274 3.21276 11.5159 3.36265L18.3347 8.77672C18.5112 8.91868 18.5811 9.16031 18.5089 9.37867C18.4369 9.59703 18.2384 9.74428 18.0148 9.74533H16.4413V15.7008C16.4413 15.9998 16.2064 16.2422 15.9167 16.2422H6.47524C6.18557 16.2422 5.95071 15.9998 5.95071 15.7008V9.74533H4.37713C4.15277 9.74533 3.95326 9.59782 3.88078 9.3784C3.80855 9.15899 3.8795 8.91657 4.05724 8.77514V8.77672Z" fill="#003333"/>
</svg>
