<svg width="48" height="60" viewBox="0 0 48 60" fill="none" xmlns="http://www.w3.org/2000/svg">
<g clip-path="url(#clip0)">
<path d="M23.8721 28.135C22.913 28.135 20.675 28.0284 19.3961 26.643C19.0764 26.3233 19.0764 25.6838 19.3961 25.3641C19.7158 25.0444 20.3552 25.0444 20.675 25.3641C21.3144 26.0035 22.6998 26.2167 23.7655 26.2167C24.8313 26.2167 26.3233 26.0035 26.8561 25.3641C27.1758 25.0444 27.8153 24.9378 28.135 25.3641C28.4547 25.6838 28.5613 26.3233 28.135 26.643C27.0693 28.0284 24.8313 28.135 23.8721 28.135Z" fill="#003333"/>
<path d="M41.8828 28.2416C41.5631 28.2416 41.3499 28.135 41.1368 27.9219C40.9236 27.7087 40.9236 27.389 41.0302 27.0693C41.0302 26.9627 41.1368 26.7496 41.1368 26.5364V26.4299C41.6696 24.2984 41.9894 21.9538 41.9894 19.5027C41.9894 19.2895 41.9894 19.183 41.9894 18.9698C41.9894 18.6501 42.0959 18.437 42.4156 18.2238C42.6288 18.0107 42.9485 18.0107 43.2682 18.1172C44.7602 18.6501 45.9325 19.5027 46.6785 20.5684C47.9574 22.3801 47.8508 24.5116 46.572 26.1101C46.572 26.1101 46.5719 26.2167 46.4654 26.2167C45.6128 27.2824 44.0142 28.0284 41.8828 28.2416C41.9894 28.2416 41.9894 28.2416 41.8828 28.2416ZM43.9077 20.3553C43.8011 22.3801 43.5879 24.405 43.1616 26.2167C44.0142 26.0036 44.6537 25.5773 45.0799 25.151C45.0799 25.151 45.0799 25.151 45.1865 25.0444C46.0391 24.0853 46.0391 22.8064 45.2931 21.6341C44.9734 21.1013 44.4405 20.675 43.9077 20.3553Z" fill="#003333"/>
<path fill-rule="evenodd" clip-rule="evenodd" d="M46.0391 20.9947C45.3997 20.1421 44.4405 19.3961 43.0551 18.8632C34.7425 17.2646 25.4707 8.95203 23.8721 6.39431V0.959137C38.5791 0.959137 46.0391 14.9201 46.0391 20.9947Z" fill="#00A4B5"/>
<path d="M46.0391 21.9538C45.7194 21.9538 45.5062 21.8472 45.2931 21.5275C44.7602 20.7815 43.9076 20.1421 42.8419 19.8224C34.103 18.0107 24.7247 9.59147 23.1261 6.92718C23.0195 6.8206 23.0195 6.60746 23.0195 6.39432V0.959147C23.0195 0.426288 23.4458 0 23.9787 0C31.7584 0 36.9805 3.73002 40.071 6.8206C44.7602 11.6163 46.8916 17.5844 46.8916 20.9947C46.8916 21.421 46.6785 21.7407 46.2522 21.8472C46.1456 21.9538 46.1456 21.9538 46.0391 21.9538ZM24.7247 6.18117C26.5364 8.7389 35.3819 16.4121 43.1616 18.0107H43.2682C43.8011 18.2238 44.3339 18.4369 44.7602 18.6501C44.0142 15.4529 41.9893 11.2966 38.579 7.9929C35.9147 5.3286 31.3321 2.13144 24.7247 1.81172V6.18117Z" fill="#003333"/>
<path fill-rule="evenodd" clip-rule="evenodd" d="M45.9326 25.5773C45.9326 25.0444 45.1866 35.4885 38.6857 41.9893C38.2594 41.0302 37.8331 40.071 37.4068 39.2185C37.1937 38.8988 37.0871 38.4725 36.8739 38.1528C36.5542 37.5133 36.2345 36.9805 36.1279 36.6607C36.0214 36.5542 36.0214 36.4476 35.9148 36.341L36.0214 36.1279C38.5791 33.9965 40.604 31.0124 41.7763 27.1758C43.8011 27.0693 45.08 26.4298 45.9326 25.5773Z" fill="#00A4B5"/>
<path d="M38.6856 42.9485C38.5791 42.9485 38.5791 42.9485 38.4725 42.9485C38.1528 42.8419 37.9396 42.7354 37.8331 42.4156C37.5133 41.5631 37.0871 40.7105 36.6608 39.7513C36.5542 39.5382 36.4476 39.3251 36.341 39.0053L36.2345 38.6856C35.9148 38.0462 35.7016 37.6199 35.4885 37.3002L35.3819 37.1936C35.1688 36.8739 35.1688 36.4476 35.3819 36.1279L35.4885 35.9148C35.4885 35.8082 35.595 35.8082 35.7016 35.7016C38.2593 33.5702 40.0711 30.6927 41.1368 27.1759C41.2434 26.8561 41.5631 26.5364 41.8828 26.5364C43.3748 26.3233 44.5471 25.897 45.2931 25.0444C45.5062 24.8313 45.7194 24.7247 46.0391 24.7247C46.572 24.7247 46.8917 25.151 46.8917 25.6838V25.7904C46.6785 27.7087 45.3997 36.7673 39.4316 42.7354C39.1119 42.8419 38.8988 42.9485 38.6856 42.9485ZM37.0871 36.6608C37.3002 36.9805 37.5133 37.4068 37.7265 37.833L37.9396 38.1528C38.0462 38.3659 38.1528 38.5791 38.2593 38.8988C38.4725 39.4316 38.7922 39.9645 39.0053 40.3908C42.6288 36.1279 44.1208 30.5862 44.7602 27.6021C44.1208 27.9219 43.4814 28.135 42.7354 28.2416C41.4565 31.5453 39.6448 34.4227 37.0871 36.6608Z" fill="#003333"/>
<path d="M5.75491 28.2416C5.75491 28.2416 5.64833 28.2416 5.75491 28.2416C3.73004 28.0284 2.13146 27.2824 1.06574 26.2167L0.95917 26.1101C-0.426265 24.5116 -0.426265 22.3801 0.852598 20.5684C1.5986 19.5027 2.77089 18.6501 4.2629 18.1172C4.58262 18.0107 4.79576 18.0107 5.11548 18.2238C5.32862 18.437 5.54176 18.6501 5.54176 18.9698C5.54176 19.183 5.54176 19.3961 5.54176 19.5027C5.54176 22.0604 5.86148 24.405 6.39434 26.5364V26.643C6.39434 26.8561 6.50091 26.9627 6.50091 27.1759C6.60748 27.4956 6.50091 27.8153 6.39434 28.0284C6.28777 28.135 6.07462 28.2416 5.75491 28.2416ZM2.55775 25.0444C2.98404 25.5773 3.73004 25.897 4.47604 26.2167C4.04976 24.405 3.83661 22.4867 3.73004 20.3553C3.19718 20.675 2.77089 21.1013 2.3446 21.5275C1.5986 22.6998 1.5986 23.9787 2.55775 25.0444C2.45118 24.9378 2.55775 25.0444 2.55775 25.0444Z" fill="#003333"/>
<path fill-rule="evenodd" clip-rule="evenodd" d="M23.8721 0.959137V6.50088C22.2736 9.0586 13.0018 17.2646 4.68918 18.9698C3.30375 19.3961 2.3446 20.2487 1.70517 21.1012C1.59859 14.9201 9.05863 0.959137 23.8721 0.959137Z" fill="#00A4B5"/>
<path d="M1.70518 21.9538C1.59861 21.9538 1.49204 21.9538 1.38546 21.9538C0.959177 21.8472 0.746033 21.5275 0.746033 21.1012C0.746033 17.5844 2.87747 11.6163 7.67321 6.8206C10.7638 3.73002 16.0924 0 23.8721 0C24.405 0 24.8313 0.426288 24.8313 0.959147V6.50089C24.8313 6.71403 24.8313 6.8206 24.7247 7.03375C23.0196 9.4849 13.5347 18.0107 4.90234 19.8224C3.83662 20.2487 2.98404 20.7815 2.45118 21.6341C2.23804 21.8472 1.91832 21.9538 1.70518 21.9538ZM22.913 1.81172C16.3055 2.13144 11.7229 5.3286 9.05865 8.09947C5.64834 11.5098 3.62348 15.6661 2.87747 18.7567C3.30376 18.4369 3.83662 18.2238 4.36948 18.0107H4.47605C12.2558 16.4121 21.1013 8.7389 22.913 6.18117V1.81172Z" fill="#003333"/>
<path fill-rule="evenodd" clip-rule="evenodd" d="M11.723 36.5542C11.6164 36.6608 11.5098 36.9805 11.2967 37.3002C11.1901 37.5133 11.0835 37.6199 10.977 37.833C10.4441 38.8988 9.6981 40.3908 8.95209 41.9894C2.4512 35.4885 1.81177 26.0036 1.7052 25.5773C2.4512 26.4298 3.83664 27.1759 5.64836 27.389C6.82065 31.2256 8.95209 34.2096 11.4032 36.341L11.723 36.5542Z" fill="#00A4B5"/>
<path d="M8.95207 42.9485C8.73892 42.9485 8.52578 42.8419 8.31264 42.7353C1.49203 35.9147 0.8526 25.7904 0.8526 25.6838C0.8526 25.2576 1.06574 24.9378 1.38546 24.8313C1.70518 24.7247 2.13146 24.8313 2.45118 25.0444C3.19718 25.7904 4.36947 26.3233 5.86148 26.5364C6.28777 26.5364 6.60748 26.8561 6.60748 27.2824C7.6732 30.6927 9.48493 33.5702 12.0427 35.7016C12.1492 35.8082 12.1492 35.8082 12.2558 35.9147L12.3624 36.1279C12.5755 36.4476 12.5755 36.7673 12.3624 37.087C12.2558 37.1936 12.1492 37.4068 11.9361 37.7265C11.8295 37.833 11.8295 38.0462 11.7229 38.2593C11.4032 38.8988 10.5506 40.4973 9.69807 42.4156C9.5915 42.7354 9.37836 42.9485 9.05864 42.9485C9.05864 42.9485 9.05864 42.9485 8.95207 42.9485ZM2.98404 27.4956C3.5169 30.373 4.90233 35.9148 8.73892 40.3908C9.37836 39.0053 9.91121 37.9396 10.2309 37.4068C10.2309 37.4068 10.2309 37.3002 10.3375 37.3002C10.4441 37.087 10.5506 36.9805 10.5506 36.8739C10.5506 36.7673 10.6572 36.7673 10.6572 36.6608C8.09949 34.4227 6.28777 31.5453 5.11548 28.135C4.2629 28.0284 3.5169 27.8153 2.98404 27.4956Z" fill="#003333"/>
<path fill-rule="evenodd" clip-rule="evenodd" d="M34.5293 21.5275C34.5293 22.4867 33.6768 23.3393 32.7176 23.3393C31.7585 23.3393 30.9059 22.4867 30.9059 21.5275C30.9059 20.4618 31.7585 19.7158 32.7176 19.7158C33.7833 19.7158 34.5293 20.5684 34.5293 21.5275Z" fill="#003333"/>
<path d="M43.9077 18.9698C43.9077 18.5435 43.588 18.1172 43.1617 18.1172C35.1688 16.4121 26.0036 8.31262 24.6181 5.96804C24.405 5.75489 24.1919 5.54175 23.8721 5.54175C23.5524 5.54175 23.2327 5.64832 23.1261 5.96804C21.7407 8.31262 12.5755 16.4121 4.47604 18.0107C4.04976 18.1172 3.73004 18.437 3.73004 18.8632C3.73004 18.8632 3.73004 19.183 3.73004 19.2895V19.3961C3.73004 22.0604 4.04976 24.5116 4.68919 26.7496C4.79576 26.9627 4.79576 27.1759 4.90233 27.389V27.4956C6.07462 31.2256 8.09949 34.3162 10.8704 36.7673C10.8704 36.7673 11.0835 36.9805 11.6164 37.4068C11.7229 36.7673 11.9361 36.2345 12.2558 35.7016L12.1492 35.595C9.5915 33.4636 7.77978 30.5862 6.71406 27.1759V27.0693C6.71406 26.9627 6.60748 26.7496 6.60748 26.5364C6.60748 26.5364 6.60748 26.5364 6.60748 26.4298C6.07462 24.405 5.75491 22.0604 5.75491 19.6092C13.3215 17.7975 21.3144 11.0835 24.0853 7.88633C26.8562 11.0835 34.7425 17.7975 42.4157 19.6092C42.4157 22.0604 42.0959 24.405 41.5631 26.4298C41.5631 26.4298 41.5631 26.4299 41.5631 26.5364C41.5631 26.7496 41.4565 26.9627 41.4565 27.0693V27.1759C40.3908 30.5862 38.5791 33.357 36.0213 35.595C36.3411 36.1279 36.5542 36.6608 36.7673 37.1936C40.6039 33.9965 42.5222 29.7336 43.1617 27.6021C43.1617 27.6021 43.1617 27.6021 43.1617 27.4956C43.2682 27.2824 43.2682 27.0693 43.3748 26.8561C44.0142 24.6181 44.334 22.167 44.334 19.5027V19.3961C43.9077 19.2895 43.9077 18.9698 43.9077 18.9698Z" fill="#003333"/>
<path fill-rule="evenodd" clip-rule="evenodd" d="M16.7318 21.5275C16.7318 22.4867 15.8792 23.3393 14.9201 23.3393C13.8543 23.3393 13.1083 22.4867 13.1083 21.5275C13.1083 20.4618 13.9609 19.7158 14.9201 19.7158C15.9858 19.7158 16.7318 20.5684 16.7318 21.5275Z" fill="#003333"/>
<path fill-rule="evenodd" clip-rule="evenodd" d="M25.5773 44.0142C25.3642 44.3339 24.6182 44.4405 23.8721 44.4405C23.1261 44.4405 22.3801 44.2273 22.167 44.0142C21.8473 43.5879 21.2079 43.5879 20.8881 44.0142C20.4618 44.3339 20.4618 44.9734 20.8881 45.2931C21.7407 46.1456 23.1261 46.3588 23.9787 46.3588C24.7247 46.3588 26.2167 46.2522 27.0693 45.2931C27.389 44.8668 27.389 44.3339 27.0693 44.0142C26.5364 43.5879 25.897 43.5879 25.5773 44.0142Z" fill="#003333"/>
<path fill-rule="evenodd" clip-rule="evenodd" d="M37.4068 38.8987C37.3002 38.4725 37.3002 38.1527 37.1936 37.9396C36.0213 33.6767 31.865 28.7744 23.8721 28.7744C15.8792 28.7744 11.7229 33.6767 10.6572 37.9396C10.5506 38.1527 10.5506 38.579 10.4441 38.8987C8.95206 39.5382 8.09948 41.1368 8.31262 42.8419C8.52577 44.5471 9.80463 46.4654 12.2558 46.7851C13.1084 48.7034 14.1741 50.0888 15.2398 51.048C13.0018 54.6714 12.3624 56.8028 13.1084 57.9751C13.7478 58.9343 14.7069 59.0408 16.0924 59.0408H31.5453C32.9307 59.0408 33.8899 59.0408 34.5293 57.9751C35.3819 56.8028 34.6359 54.5648 32.3979 51.048C33.4636 50.0888 34.5293 48.7034 35.3819 46.7851C37.833 46.4654 39.1119 44.5471 39.3251 42.8419C39.6448 41.0302 38.7922 39.5382 37.4068 38.8987ZM13.0018 35.9147C14.1741 33.7833 17.2647 30.1598 23.8721 30.1598C30.4796 30.1598 33.5702 33.7833 34.7425 35.9147C35.8082 37.833 36.0213 39.4316 35.9148 39.9645C35.9148 39.9645 35.9148 39.9645 35.8082 39.9645C35.8082 39.9645 35.7016 39.9645 35.7016 39.8579C35.595 39.8579 35.595 39.7513 35.4885 39.7513C35.4885 39.7513 35.3819 39.6448 35.2753 39.6448C35.1687 39.5382 35.1688 39.5382 35.0622 39.4316C34.9556 39.325 34.9556 39.325 34.849 39.2185C34.7425 39.1119 34.7425 39.1119 34.6359 39.0053C34.5293 38.8987 34.5293 38.8987 34.4227 38.7922C34.3162 38.6856 34.3162 38.6856 34.2096 38.579C34.103 38.4725 33.9965 38.3659 33.8899 38.2593C33.8899 38.1527 33.7833 38.1527 33.7833 38.0462C33.6767 37.9396 33.5702 37.833 33.4636 37.6199L33.357 37.5133C33.2505 37.4067 33.1439 37.1936 33.0373 36.9805C32.9307 36.7673 32.7176 36.5542 32.611 36.341C32.5045 36.1279 32.2913 36.0213 32.1847 36.0213C31.9716 36.0213 31.7584 36.0213 31.6519 36.1279C31.6519 36.1279 29.4139 37.6199 28.135 38.2593C26.7496 38.8987 20.9947 38.8987 19.6092 38.2593C18.3304 37.6199 16.0924 36.1279 16.0924 36.1279C15.8792 36.0213 15.7727 36.0213 15.5595 36.0213C15.3464 36.0213 15.2398 36.1279 15.1332 36.341C14.8135 36.8739 14.3872 37.4067 13.9609 37.833C13.1084 38.8987 12.3624 39.7513 11.8295 39.8579C11.7229 39.4316 11.9361 37.833 13.0018 35.9147ZM9.80463 42.6288C9.69806 41.9893 9.9112 41.1368 10.4441 40.6039C10.4441 40.817 10.5506 40.9236 10.6572 41.1368C10.7638 41.3499 10.8703 41.4565 11.0835 41.6696C11.0835 43.0551 11.2966 44.1208 11.5098 45.1865C10.3375 44.5471 9.9112 43.4813 9.80463 42.6288ZM33.357 57.2291C33.1439 57.5488 33.0373 57.6554 31.6519 57.6554H16.1989C14.8135 57.6554 14.6004 57.5488 14.4938 57.2291C14.3872 57.016 13.9609 56.0568 16.5187 52.0071C16.5187 52.0071 16.6252 52.0071 16.6252 52.1137C16.7318 52.2202 16.945 52.3268 17.0515 52.4334C17.1581 52.54 17.3712 52.6465 17.4778 52.6465C17.691 52.7531 17.7975 52.8597 18.0107 52.8597C18.1172 52.9662 18.3304 52.9662 18.437 53.0728C18.6501 53.1794 18.7567 53.1794 18.9698 53.286C19.0764 53.3925 19.2895 53.3925 19.3961 53.3925C19.6093 53.4991 19.7158 53.4991 19.929 53.6057C20.0355 53.6057 20.2487 53.7122 20.3553 53.7122C20.5684 53.8188 20.7815 53.8188 20.9947 53.8188C21.1013 53.8188 21.3144 53.9254 21.421 53.9254C21.6341 53.9254 21.8473 54.032 22.0604 54.032C22.167 54.032 22.2735 54.032 22.4867 54.032C22.6998 54.032 22.913 54.1385 23.1261 54.1385C23.2327 54.1385 23.3393 54.1385 23.4458 54.1385C23.659 54.1385 23.9787 54.1385 24.1918 54.1385C24.405 54.1385 24.6181 54.1385 24.8313 54.1385C24.9378 54.1385 25.0444 54.1385 25.151 54.1385C25.3641 54.1385 25.5773 54.1385 25.6838 54.032C25.897 54.032 26.0036 54.032 26.2167 53.9254C26.4299 53.9254 26.5364 53.8188 26.7496 53.8188C26.9627 53.8188 27.0693 53.7122 27.2824 53.7122C27.4956 53.7122 27.6021 53.6057 27.8153 53.6057C28.0284 53.6057 28.135 53.4991 28.3481 53.4991C28.4547 53.4991 28.6679 53.3925 28.7744 53.3925C28.9876 53.286 29.0942 53.286 29.3073 53.1794C29.4139 53.0728 29.627 53.0728 29.7336 52.9662C29.9467 52.8597 30.0533 52.8597 30.2664 52.7531C30.373 52.6465 30.5862 52.6465 30.6927 52.54C30.7993 52.4334 31.0124 52.3268 31.119 52.3268C31.3322 52.2202 31.4387 52.1137 31.6519 52.0071C31.6519 52.0071 31.6519 52.0071 31.7584 52.0071C33.8899 56.0568 33.4636 57.016 33.357 57.2291ZM31.0124 50.3019C29.0942 51.9005 26.5364 52.7531 23.8721 52.7531C22.4867 52.7531 21.2078 52.54 19.929 52.1137C18.7567 51.6874 17.691 51.0479 16.7318 50.3019C14.1741 48.2771 12.7886 45.0799 12.5755 41.2433C12.6821 41.1368 12.7886 41.1368 12.8952 41.0302C12.8952 41.0302 13.0018 41.0302 13.0018 40.9236C13.2149 40.817 13.3215 40.7105 13.5346 40.4973C13.7478 40.3908 13.8544 40.1776 14.0675 40.071C14.0675 40.071 14.0675 40.071 14.1741 39.9645C14.2807 39.8579 14.4938 39.6448 14.6004 39.4316C14.6004 39.4316 14.6004 39.4316 14.6004 39.325C15.1332 38.7922 15.5595 38.1527 15.8792 37.7265C16.6252 38.2593 18.0107 39.1119 18.9698 39.5382C20.7815 40.3908 26.9627 40.3908 28.7744 39.5382C29.7336 39.1119 31.119 38.2593 31.865 37.7265C32.611 38.7922 33.9965 40.4973 35.1688 41.1368C34.9556 45.1865 33.5702 48.2771 31.0124 50.3019ZM37.9396 42.6288C37.833 43.4813 37.3002 44.5471 36.2345 45.0799C36.4476 44.1208 36.5542 42.9485 36.6608 41.563C36.8739 41.4565 36.9805 41.2433 37.087 41.0302C37.1936 40.9236 37.1936 40.7105 37.3002 40.4973C37.9396 41.1368 38.0462 41.9893 37.9396 42.6288Z" fill="#003333"/>
<path fill-rule="evenodd" clip-rule="evenodd" d="M17.9041 40.6039C17.1581 40.6039 16.6252 41.1367 16.6252 41.8827C16.6252 42.6287 17.1581 43.1616 17.9041 43.1616C18.6501 43.1616 19.183 42.6287 19.183 41.8827C19.183 41.2433 18.6501 40.6039 17.9041 40.6039Z" fill="#003333"/>
<path d="M29.7336 43.1616C30.4399 43.1616 31.0124 42.589 31.0124 41.8827C31.0124 41.1764 30.4399 40.6039 29.7336 40.6039C29.0273 40.6039 28.4547 41.1764 28.4547 41.8827C28.4547 42.589 29.0273 43.1616 29.7336 43.1616Z" fill="#003333"/>
<path d="M35.9148 39.9645C35.1688 39.6448 33.7833 37.9396 32.7176 36.341C32.6111 36.1279 32.3979 36.0213 32.2913 36.0213C32.0782 36.0213 31.8651 36.0213 31.7585 36.1279C31.7585 36.1279 29.5205 37.6199 28.2416 38.2593C26.8562 38.8988 21.1013 38.8988 19.7159 38.2593C18.437 37.6199 16.199 36.1279 16.199 36.1279C15.9858 36.0213 15.8793 36.0213 15.6661 36.0213C15.453 36.0213 15.3464 36.1279 15.2398 36.341C14.1741 37.9396 12.5755 39.7513 12.0427 39.9645C11.9361 39.4316 12.0427 37.833 13.215 35.9147C14.3873 33.7833 17.4778 30.1599 24.0853 30.1599C30.6928 30.1599 33.7833 33.7833 34.9556 35.9147C35.8082 37.833 36.0214 39.4316 35.9148 39.9645Z" fill="#00A4B5"/>
<path d="M39.5382 41.6696L37.9396 42.4156C40.7105 48.5968 42.3091 54.032 42.5222 58.1883H23.8722H5.22206C5.43521 54.032 7.03379 48.5968 9.80466 42.4156L8.20608 41.6696C5.00892 48.7034 3.41034 54.5648 3.41034 59.0408C3.41034 59.5737 3.83663 59.8934 4.26291 59.8934H23.7656H43.2682C43.8011 59.8934 44.1208 59.4671 44.1208 59.0408C44.2274 54.5648 42.6288 48.7034 39.5382 41.6696Z" fill="#003333"/>
</g>
<defs>
<clipPath id="clip0">
<rect width="47.6377" height="60" fill="white"/>
</clipPath>
</defs>
</svg>
