<svg width="49" height="60" viewBox="0 0 49 60" fill="none" xmlns="http://www.w3.org/2000/svg">
<g clip-path="url(#clip0)">
<path d="M5.32856 27.8153C4.15626 27.7087 2.66426 27.1758 1.81168 26.2167C1.27882 25.5773 0.959106 24.8313 0.959106 23.7655C0.959106 22.6998 1.27882 21.8472 1.70511 21.2078C2.45111 20.2487 3.51683 19.7158 4.36941 19.3961C4.26284 20.0355 4.26284 20.675 4.26284 21.421C4.26284 23.5524 4.58255 25.6838 5.32856 27.8153ZM5.32856 27.8153C5.22198 27.7087 5.32856 27.7087 5.32856 27.8153Z" stroke="#003333" stroke-width="1.7008" stroke-miterlimit="10" stroke-linecap="round" stroke-linejoin="round"/>
<path d="M17.2646 50.9414C16.5186 50.7282 15.666 50.5151 14.7069 50.4085C12.1491 50.1954 10.8703 50.302 9.37828 51.1545C9.37828 51.1545 9.27171 51.1545 9.27171 51.2611C8.73885 51.048 8.20599 50.6217 7.7797 50.0888C6.92712 48.81 8.20599 44.9734 9.05856 42.7353V42.6288C9.91114 40.4973 10.6571 39.1119 11.936 37.1936C11.936 37.1936 11.936 37.087 12.0426 37.087L12.1491 37.1936C13.2149 38.0462 14.4937 38.7922 15.7726 39.4316C14.2806 42.0959 13.8543 45.5062 13.8543 45.5062C19.7158 46.2522 20.4618 49.6625 17.2646 50.9414Z" stroke="#003333" stroke-width="1.7008" stroke-miterlimit="10" stroke-linecap="round" stroke-linejoin="round"/>
<path fill-rule="evenodd" clip-rule="evenodd" d="M11.9361 37.1936C11.9361 37.1936 11.9361 37.3002 11.8295 37.3002C10.5507 39.2185 9.91124 40.6039 8.95209 42.7354C2.55778 36.341 1.7052 27.0693 1.7052 26.1101C2.55778 27.1759 3.94321 27.6021 5.22207 27.7087C6.50094 31.5453 8.84552 34.7425 11.9361 37.1936Z" fill="#00A4B5" stroke="#003333" stroke-width="1.7008" stroke-miterlimit="10" stroke-linejoin="round"/>
<path d="M26.1102 59.1474H11.4032C6.92723 59.1474 6.07465 53.1794 9.27181 51.3677L9.37838 51.2611C10.8704 50.4085 12.1493 50.302 14.707 50.5151C15.6661 50.6217 16.5187 50.8348 17.2647 51.048C20.7816 52.0071 22.913 54.1386 24.2985 55.9503C25.5773 57.5489 26.0036 59.0409 26.1102 59.1474Z" stroke="#003333" stroke-width="1.7008" stroke-miterlimit="10" stroke-linecap="round" stroke-linejoin="round"/>
<path fill-rule="evenodd" clip-rule="evenodd" d="M24.2985 0.959137V6.60745C22.5933 9.16518 13.1084 17.5844 4.68921 19.2895C4.58264 19.2895 4.47607 19.3961 4.3695 19.3961C3.51692 19.6092 2.4512 20.1421 1.7052 21.2078C1.81177 14.7069 9.37838 0.959137 24.2985 0.959137Z" fill="#00A4B5" stroke="#003333" stroke-width="1.7008" stroke-miterlimit="10" stroke-linejoin="round"/>
<path d="M47.6376 23.659C47.6376 24.7247 47.3179 25.4707 46.7851 26.1101C45.9325 27.1758 44.4405 27.6021 43.2682 27.7087C43.9076 25.6838 44.3339 23.5524 44.3339 21.3144C44.3339 20.675 44.3339 20.0355 44.2273 19.3961C45.0799 19.6092 46.1456 20.1421 46.8916 21.2078C47.3179 21.7407 47.6376 22.5932 47.6376 23.659Z" stroke="#003333" stroke-width="1.7008" stroke-miterlimit="10" stroke-linecap="round" stroke-linejoin="round"/>
<path d="M40.817 50.1954C40.4973 50.7282 39.9645 51.1545 39.4316 51.3677C39.4316 51.3677 39.325 51.2611 39.2185 51.2611C37.7265 50.4085 36.4476 50.302 33.8899 50.5151C32.9307 50.6217 32.0781 50.8348 31.3321 51.048C28.135 49.7691 28.881 46.3588 34.7424 45.6128C34.7424 45.6128 34.3162 42.2025 32.8241 39.5382C33.1439 39.4316 33.4636 39.2185 33.7833 39.0053C34.103 38.8988 34.4227 38.6856 34.7424 38.4725C35.0622 38.2593 35.3819 38.0462 35.595 37.9396C35.9147 37.7265 36.1279 37.5133 36.4476 37.3002C36.4476 37.3002 36.5542 37.3002 36.5542 37.1936C36.5542 37.1936 36.5542 37.3002 36.6607 37.3002C37.9396 39.2185 38.579 40.6039 39.5382 42.7353C39.5382 42.7353 39.5382 42.7353 39.5382 42.8419C40.3907 44.9734 41.6696 48.9165 40.817 50.1954Z" stroke="#003333" stroke-width="1.7008" stroke-miterlimit="10" stroke-linecap="round" stroke-linejoin="round"/>
<path fill-rule="evenodd" clip-rule="evenodd" d="M46.7851 26.1101C46.7851 27.0693 45.9325 36.341 39.5382 42.7354C38.6856 40.6039 37.9396 39.2185 36.6608 37.3002C36.6608 37.3002 36.6608 37.1936 36.5542 37.1936C39.6448 34.849 41.9894 31.5453 43.2682 27.8153C44.4405 27.6021 45.9325 27.1759 46.7851 26.1101Z" fill="#00A4B5" stroke="#003333" stroke-width="1.7008" stroke-miterlimit="10" stroke-linejoin="round"/>
<path d="M31.3322 50.9414C27.8153 51.9005 25.6839 54.032 24.2984 55.8437C22.913 54.032 20.7815 52.0071 17.2647 50.9414C20.4618 49.6625 19.7158 46.2522 13.8544 45.5062C13.8544 45.5062 14.2807 42.0959 15.7727 39.4316C18.3304 40.7105 21.2078 41.3499 24.2984 41.3499C27.389 41.3499 30.2664 40.7105 32.8242 39.4316C34.3162 42.0959 34.7425 45.5062 34.7425 45.5062C28.881 46.2522 28.0284 49.6625 31.3322 50.9414Z" stroke="#003333" stroke-width="1.7008" stroke-miterlimit="10" stroke-linecap="round" stroke-linejoin="round"/>
<path d="M37.1937 59.1474H26.1102C26.1102 59.1474 25.5773 57.6554 24.2985 55.9503C25.6839 54.1386 27.8153 52.1137 31.3322 51.048C32.0782 50.8348 32.9308 50.6217 33.8899 50.5151C36.4477 50.302 37.7265 50.4085 39.2185 51.2611C39.2185 51.2611 39.3251 51.2611 39.4317 51.3677C42.5223 53.1794 41.6697 59.1474 37.1937 59.1474Z" stroke="#003333" stroke-width="1.7008" stroke-miterlimit="10" stroke-linecap="round" stroke-linejoin="round"/>
<path fill-rule="evenodd" clip-rule="evenodd" d="M44.3339 21.4209C44.3339 23.659 44.0141 25.7904 43.2681 27.8153C41.9893 31.5453 39.6447 34.849 36.5541 37.1936C36.5541 37.1936 36.4475 37.1936 36.4475 37.3002C36.1278 37.5133 35.9147 37.7265 35.595 37.9396C35.2753 38.1527 35.0621 38.3659 34.7424 38.4725C34.4227 38.6856 34.103 38.7922 33.7832 39.0053C33.4635 39.2185 33.1438 39.325 32.8241 39.5382C30.2664 40.7105 27.3889 41.4565 24.2983 41.4565C21.2078 41.4565 18.3303 40.817 15.7726 39.5382C14.4937 38.8987 13.3214 38.1527 12.1491 37.3002L12.0426 37.1936C8.95198 34.849 6.6074 31.5453 5.32854 27.8153C4.68911 25.7904 4.26282 23.659 4.26282 21.4209C4.26282 20.7815 4.26282 20.1421 4.36939 19.5027C4.47596 19.5027 4.58253 19.3961 4.68911 19.3961C13.1083 17.6909 22.5932 9.27175 24.2983 6.71402C26.0035 9.27175 35.4884 17.6909 43.9076 19.3961C44.0142 19.3961 44.1207 19.5027 44.2273 19.5027C44.2273 20.0355 44.3339 20.6749 44.3339 21.4209Z" stroke="#003333" stroke-width="1.7008" stroke-miterlimit="10" stroke-linejoin="round"/>
<path fill-rule="evenodd" clip-rule="evenodd" d="M46.8917 21.1012C46.1457 20.1421 45.08 19.6092 44.2274 19.2895C44.1208 19.2895 44.0143 19.1829 43.9077 19.1829C35.4885 17.4778 26.0036 9.0586 24.2985 6.50088V0.959137C39.2185 0.959137 46.7851 14.7069 46.8917 21.1012Z" fill="#00A4B5" stroke="#003333" stroke-width="1.7008" stroke-miterlimit="10" stroke-linejoin="round"/>
<path d="M28.135 26.5364C27.1758 27.6021 25.2575 27.7087 24.2984 27.7087C23.3392 27.7087 21.4209 27.4956 20.4618 26.5364" stroke="#003333" stroke-width="1.7008" stroke-miterlimit="10" stroke-linecap="round" stroke-linejoin="round"/>
<path d="M32.1847 22.3801C32.1847 22.3801 33.9964 24.2984 35.9147 22.3801" stroke="#003333" stroke-width="1.7008" stroke-miterlimit="10" stroke-linecap="round" stroke-linejoin="round"/>
<path d="M16.412 22.4867C16.412 22.4867 14.6003 24.405 12.682 22.4867" stroke="#003333" stroke-width="1.7008" stroke-miterlimit="10" stroke-linecap="round" stroke-linejoin="round"/>
</g>
<defs>
<clipPath id="clip0">
<rect width="48.4902" height="60" fill="white"/>
</clipPath>
</defs>
</svg>
