<svg width="30" height="30" viewBox="0 0 30 30" fill="none" xmlns="http://www.w3.org/2000/svg">
<path d="M20.6334 0H9.39353C4.22132 0 0.0269775 4.19813 0.0269775 9.375V20.625C0.0269775 25.8019 4.22132 30 9.39353 30H20.6334C25.8056 30 29.9999 25.8019 29.9999 20.625V9.375C29.9999 4.19813 25.8056 0 20.6334 0ZM27.19 20.625C27.19 24.2437 24.2489 27.1875 20.6334 27.1875H9.39353C5.77804 27.1875 2.83694 24.2437 2.83694 20.625V9.375C2.83694 5.75625 5.77804 2.8125 9.39353 2.8125H20.6334C24.2489 2.8125 27.19 5.75625 27.19 9.375V20.625Z" fill="#003333"/>
<path d="M15.0135 7.5C10.8753 7.5 7.52022 10.8581 7.52022 15C7.52022 19.1419 10.8753 22.5 15.0135 22.5C19.1516 22.5 22.5067 19.1419 22.5067 15C22.5067 10.8581 19.1516 7.5 15.0135 7.5ZM15.0135 19.6875C12.432 19.6875 10.3302 17.5838 10.3302 15C10.3302 12.4144 12.432 10.3125 15.0135 10.3125C17.5949 10.3125 19.6967 12.4144 19.6967 15C19.6967 17.5838 17.5949 19.6875 15.0135 19.6875Z" fill="#003333"/>
<path d="M23.0688 7.93688C23.6202 7.93688 24.0673 7.48944 24.0673 6.9375C24.0673 6.38557 23.6202 5.93813 23.0688 5.93813C22.5174 5.93813 22.0703 6.38557 22.0703 6.9375C22.0703 7.48944 22.5174 7.93688 23.0688 7.93688Z" fill="#003333"/>
</svg>
