<svg width="17" height="30" viewBox="0 0 17 30" fill="none" xmlns="http://www.w3.org/2000/svg">
<path d="M15.0099 0H1.97481C0.88883 0 0 0.911143 0 2.02629V27.9729C0 29.088 0.88883 30 1.97481 30H15.0099C16.0959 30 16.9847 29.0897 16.9847 27.9737V2.02629C16.9847 0.911143 16.0959 0 15.0099 0ZM6.40727 1.46057H10.5774C10.7094 1.46057 10.8163 1.57029 10.8163 1.70657C10.8163 1.842 10.7094 1.95171 10.5774 1.95171H6.40727C6.27528 1.95171 6.16835 1.842 6.16835 1.70657C6.16835 1.57029 6.27528 1.46057 6.40727 1.46057ZM8.49234 28.9869C7.94685 28.9869 7.50494 28.5334 7.50494 27.9729C7.50494 27.4123 7.94685 26.9597 8.49234 26.9597C9.03784 26.9597 9.47975 27.4123 9.47975 27.9729C9.47975 28.5334 9.03784 28.9869 8.49234 28.9869ZM15.6105 26.25H1.37418V3.21343H15.6105V26.25Z" fill="#003333"/>
</svg>
