<svg width="60" height="60" viewBox="0 0 60 60" fill="none" xmlns="http://www.w3.org/2000/svg">
<path d="M30 21.8789L8.20312 58.6992V58.8281H51.7969V58.6992L30 21.8789Z" fill="#00A4B5"/>
<path d="M10.6641 17.1094C14.2148 17.1094 17.1094 14.2148 17.1094 10.6641C17.1094 7.11328 14.2148 4.21875 10.6641 4.21875C7.11328 4.21875 4.21875 7.11328 4.21875 10.6641C4.21875 14.2148 7.11328 17.1094 10.6641 17.1094ZM10.6641 6.5625C12.9258 6.5625 14.7656 8.40234 14.7656 10.6641C14.7656 12.9258 12.9258 14.7656 10.6641 14.7656C8.40234 14.7656 6.5625 12.9258 6.5625 10.6641C6.5625 8.40234 8.40234 6.5625 10.6641 6.5625Z" fill="#003333"/>
<path d="M1.17188 60H58.8281C59.4727 60 60 59.4727 60 58.8281C60 58.1836 59.4727 57.6562 58.8281 57.6562H52.9688V33.9023C56.9414 33.3281 60 29.9062 60 25.7812C60 25.6055 60 8.41406 60 8.20312C60 3.67969 56.3438 0 51.7969 0C47.2734 0 43.5938 3.67969 43.5938 8.20312V25.7812C43.5938 29.9062 46.6523 33.3281 50.625 33.9023V54.4219L31.3594 21.8789L34.5234 16.5352C34.8516 15.9727 34.6641 15.2578 34.1133 14.9297C33.5625 14.6016 32.8359 14.7891 32.5078 15.3398L30 19.582L27.4922 15.3516C27.1641 14.7891 26.4492 14.6133 25.8867 14.9414C25.3242 15.2695 25.1484 15.9844 25.4766 16.5469L28.6406 21.8906L20.6367 35.4141C20.3086 35.9766 20.4961 36.6914 21.0469 37.0195C21.5977 37.3477 22.3242 37.1719 22.6523 36.6094L28.8281 26.1797V57.6562H10.1836L17.2852 45.668C17.6133 45.1055 17.4258 44.3906 16.875 44.0625C16.3125 43.7344 15.5977 43.9219 15.2695 44.4727L7.46484 57.6562H1.17188C0.527344 57.6562 0 58.1836 0 58.8281C0 59.4727 0.527344 60 1.17188 60ZM31.1719 26.1562L49.8164 57.6562H41.6367L31.1719 40.2188V26.1562ZM52.9688 31.5234V22.7461L57.6562 18.0586V25.7812C57.6562 28.6055 55.6406 30.9727 52.9688 31.5234ZM51.7969 2.34375C55.043 2.34375 57.6562 4.96875 57.6562 8.20312V14.7539L52.9688 19.4414C52.9688 18.293 52.9688 10.9688 52.9688 8.20312C52.9688 7.55859 52.4414 7.03125 51.7969 7.03125C51.1523 7.03125 50.625 7.55859 50.625 8.20312V15.9258L45.9375 11.2383V8.20312C45.9375 4.96875 48.5625 2.34375 51.7969 2.34375ZM45.9375 25.7812V14.543L50.625 19.2305V31.5234C47.9531 30.9727 45.9375 28.6055 45.9375 25.7812ZM31.1719 44.7773L38.9062 57.6562H31.1719V44.7773Z" fill="#003333"/>
<path d="M18.9844 41.7188C19.6316 41.7188 20.1562 41.1941 20.1562 40.5469C20.1562 39.8997 19.6316 39.375 18.9844 39.375C18.3372 39.375 17.8125 39.8997 17.8125 40.5469C17.8125 41.1941 18.3372 41.7188 18.9844 41.7188Z" fill="black"/>
</svg>
