<svg width="61" height="60" viewBox="0 0 61 60" fill="none" xmlns="http://www.w3.org/2000/svg">
<g clip-path="url(#clip0)">
<path d="M38.0578 39.4215C36.8182 41.157 35.2066 42.2727 33.3471 42.7686C31.8595 43.1405 30.6198 44.5041 30.7438 46.1157C30.8678 50.0826 29.2562 54.0496 25.7851 56.6529C21.0744 60.3719 14.3802 59.7521 9.91734 55.7851C9.66941 55.6611 9.54544 55.4132 9.29751 55.1653L5.08263 50.9504C4.8347 50.7025 4.58677 50.3306 4.33883 50.0826C0.619824 45.7438 0.123956 39.0496 3.59503 34.4628C6.19834 30.8678 10.2892 29.2562 14.1322 29.5041C15.6198 29.6281 17.1074 28.3884 17.4793 26.9008C17.9752 25.1653 19.0909 23.4297 20.8264 22.1901C24.2975 19.7107 29.1322 20.3306 32.2314 23.1818L32.9752 23.9256L26.281 30.6198L29.6281 33.9669L36.3223 27.2727L37.1901 28.1405C40.0413 31.2397 40.5372 36.0744 38.0578 39.4215Z" fill="#00A4B5"/>
<path d="M19.7108 44.0082C21.6278 44.0082 23.1818 42.4542 23.1818 40.5372C23.1818 38.6202 21.6278 37.0661 19.7108 37.0661C17.7937 37.0661 16.2397 38.6202 16.2397 40.5372C16.2397 42.4542 17.7937 44.0082 19.7108 44.0082Z" fill="white"/>
<path d="M22.9339 43.8843C24.7934 42.0248 24.7934 39.0496 22.9339 37.1901C21.0744 35.3306 18.0992 35.3306 16.2397 37.1901C14.3802 39.0496 14.3802 42.0248 16.2397 43.8843C18.2231 45.7438 21.1983 45.7438 22.9339 43.8843ZM17.9752 38.9256C18.843 38.0579 20.3306 37.9339 21.3223 38.9256C22.1901 39.7934 22.1901 41.281 21.3223 42.2727C20.4545 43.1405 18.9669 43.2645 17.9752 42.2727C17.1074 41.405 17.1074 39.9174 17.9752 38.9256Z" fill="#003333"/>
<path d="M8.80165 44.7521C8.30578 45.248 8.30578 45.9918 8.80165 46.3637L13.7603 51.3223C14.2562 51.8182 15 51.8182 15.3719 51.3223C15.8678 50.8265 15.8678 50.0827 15.3719 49.7108L10.4132 44.7521C10.0413 44.2562 9.29752 44.2562 8.80165 44.7521Z" fill="#003333"/>
<path d="M7.1901 54.1735C7.80629 54.1735 8.30581 53.674 8.30581 53.0578C8.30581 52.4417 7.80629 51.9421 7.1901 51.9421C6.57392 51.9421 6.0744 52.4417 6.0744 53.0578C6.0744 53.674 6.57392 54.1735 7.1901 54.1735Z" fill="#003333"/>
<path d="M58.2646 13.6364L59.8762 12.0248C60.3721 11.5289 60.3721 10.7851 59.8762 10.4132L49.8349 0.371901C49.339 -0.123967 48.5952 -0.123967 48.2233 0.371901L46.6117 1.98347L45.0002 0.371901C44.5043 -0.123967 43.7605 -0.123967 43.3886 0.371901C42.8927 0.867769 42.8927 1.61157 43.3886 1.98347L44.8762 3.71901L43.2646 5.33058C43.1407 5.45455 43.0167 5.57851 43.0167 5.82645L42.3969 7.80992L40.0415 5.45455C39.5456 4.95868 38.8018 4.95868 38.4299 5.45455C37.934 5.95041 37.934 6.69421 38.4299 7.06612L41.653 10.2893L40.6613 13.1405L32.1076 21.6942C26.1572 17.3554 18.2233 20.0826 16.3638 26.7769C16.1159 27.8926 15.1241 28.5124 14.1324 28.5124C9.54561 28.2645 5.33074 30.2479 2.60346 33.843C-0.991577 38.6777 -0.743643 45.2479 2.60346 49.9587C2.97537 50.4545 3.71917 50.5785 4.21503 50.2066C4.21503 50.2066 4.339 50.2066 4.339 50.0826C4.7109 49.7107 4.83487 49.0909 4.46297 48.595C1.48776 44.3802 1.48776 39.0496 4.339 35.2066C6.57041 32.2314 10.0415 30.6198 13.8845 30.7438C15.9919 30.8678 17.8514 29.3802 18.4712 27.2727C19.8349 22.3141 25.6613 20.0826 30.2481 23.1818L23.8018 29.7521C23.3059 30.2479 23.3059 30.9917 23.8018 31.3636L28.7605 36.3223C29.2564 36.8182 30.0002 36.8182 30.3721 36.3223L36.9423 29.7521C40.0415 34.3388 37.8101 40.1653 32.8514 41.5289C30.744 42.1488 29.2564 44.0083 29.3803 46.1157C29.6283 49.8347 28.0167 53.3058 24.9175 55.6612C21.0745 58.5124 15.744 58.5124 11.5291 55.5372C11.0332 55.1653 10.2894 55.2893 9.91751 55.7851C9.54561 56.281 9.66958 57.0248 10.1654 57.3967C14.8762 60.7438 21.4464 61.1157 26.2812 57.3967C30.0002 54.6694 31.8597 50.4545 31.6117 45.8678C31.6117 44.876 32.2316 44.0083 33.3473 43.6364C40.0415 41.7769 42.8927 33.843 38.4299 27.8926L46.9836 19.3388L49.8349 18.3471L53.058 21.5702C53.5539 22.0661 54.2977 22.0661 54.6696 21.5702C55.1654 21.0744 55.1654 20.3306 54.6696 19.9587L52.3142 17.6033L54.2977 16.9835C54.4216 16.9835 54.6696 16.8595 54.7935 16.7355L56.4051 15.124L58.0167 16.7355C58.5126 17.2314 59.2564 17.2314 59.6283 16.7355C60.1241 16.2397 60.1241 15.4959 59.6283 15.124L58.2646 13.6364ZM36.3225 27.2727L29.6283 33.9669L26.2812 30.6198L32.9754 23.9256L41.5291 15.3719L44.8762 18.719L36.3225 27.2727ZM53.4299 15.124L46.8597 17.3554L42.8927 13.3884L45.1241 6.81818L49.0911 2.85124L57.3969 11.157L53.4299 15.124Z" fill="#003333"/>
</g>
<defs>
<clipPath id="clip0">
<rect width="60.2479" height="60" fill="white"/>
</clipPath>
</defs>
</svg>
