<svg width="31" height="30" viewBox="0 0 31 30" fill="none" xmlns="http://www.w3.org/2000/svg">
<path d="M26.0016 0H4.10658C1.87597 0 0.067627 1.80989 0.067627 4.04256V25.9573C0.067627 28.19 1.8759 29.9999 4.10658 29.9999H14.9051L14.9235 19.2795H12.1408C11.7792 19.2795 11.4857 18.9869 11.4843 18.6249L11.471 15.1693C11.4696 14.8054 11.764 14.5096 12.1276 14.5096H14.9052V11.1706C14.9052 7.29576 17.2696 5.18587 20.7231 5.18587H23.557C23.9196 5.18587 24.2136 5.48008 24.2136 5.84305V8.75684C24.2136 9.11967 23.9198 9.4138 23.5574 9.41402L21.8183 9.41483C19.9401 9.41483 19.5764 10.3081 19.5764 11.619V14.5097H23.7034C24.0966 14.5097 24.4017 14.8534 24.3554 15.2442L23.9461 18.6998C23.907 19.0305 23.6268 19.2797 23.2942 19.2797H19.5948L19.5764 30H26.0017C28.2323 30 30.0406 28.1901 30.0406 25.9575V4.04256C30.0405 1.80989 28.2323 0 26.0016 0Z" fill="#003333"/>
</svg>
